NunitoSans-M0XghtMin250SlantedItalic.ufo
<glyph name="exclam" format="2">
  <advance width="211"/>
  <unicode hex="0021"/>
  <outline>
    <contour>
      <point x="84" y="162" type="line"/>
      <point x="111" y="162" type="line"/>
      <point x="210" y="705" type="line"/>
      <point x="157" y="705" type="line"/>
    </contour>
    <contour>
      <point x="37" y="0" type="line"/>
      <point x="106" y="0" type="line"/>
      <point x="117" y="70" type="line"/>
      <point x="48" y="70" type="line"/>
    </contour>
  </outline>
</glyph>
<glyph name="numbersign" format="2">
  <advance width="600"/>
  <unicode hex="0023"/>
  <outline>
    <contour>
      <point x="60" y="0" type="line"/>
      <point x="103" y="0" type="line"/>
      <point x="170" y="191" type="line"/>
      <point x="357" y="191" type="line"/>
      <point x="290" y="0" type="line"/>
      <point x="333" y="0" type="line"/>
      <point x="401" y="191" type="line"/>
      <point x="550" y="191" type="line"/>
      <point x="557" y="231" type="line"/>
      <point x="415" y="231" type="line"/>
      <point x="503" y="482" type="line"/>
      <point x="615" y="482" type="line"/>
      <point x="622" y="522" type="line"/>
      <point x="518" y="522" type="line"/>
      <point x="582" y="705" type="line"/>
      <point x="539" y="705" type="line"/>
      <point x="475" y="522" type="line"/>
      <point x="287" y="522" type="line"/>
      <point x="351" y="705" type="line"/>
      <point x="309" y="705" type="line"/>
      <point x="244" y="522" type="line"/>
      <point x="95" y="522" type="line"/>
      <point x="88" y="482" type="line"/>
      <point x="230" y="482" type="line"/>
      <point x="142" y="231" type="line"/>
      <point x="30" y="231" type="line"/>
      <point x="23" y="191" type="line"/>
      <point x="128" y="191" type="line"/>
    </contour>
    <contour>
      <point x="184" y="231" type="line"/>
      <point x="272" y="482" type="line"/>
      <point x="460" y="482" type="line"/>
      <point x="372" y="231" type="line"/>
    </contour>
  </outline>
</glyph>
<glyph name="dollar" format="2">
  <advance width="600"/>
  <unicode hex="0024"/>
  <outline>
    <contour>
      <point x="238" y="-115" type="line"/>
      <point x="278" y="-115" type="line"/>
      <point x="298" y="10" type="line"/>
      <point x="283" y="-4" type="line"/>
      <point x="417" y="-6"/>
      <point x="532" y="63"/>
      <point x="532" y="184" type="curve" smooth="yes"/>
      <point x="532" y="273"/>
      <point x="479" y="324"/>
      <point x="345" y="361" type="curve" smooth="yes"/>
      <point x="264" y="383" type="line" smooth="yes"/>
      <point x="189" y="403"/>
      <point x="150" y="434"/>
      <point x="150" y="517" type="curve" smooth="yes"/>
      <point x="150" y="615"/>
      <point x="231" y="668"/>
      <point x="356" y="668" type="curve" smooth="yes"/>
      <point x="434" y="668"/>
      <point x="502" y="644"/>
      <point x="561" y="578" type="curve"/>
      <point x="584" y="612" type="line"/>
      <point x="538" y="666"/>
      <point x="472" y="697"/>
      <point x="402" y="706" type="curve"/>
      <point x="406" y="698" type="line"/>
      <point x="426" y="820" type="line"/>
      <point x="386" y="820" type="line"/>
      <point x="367" y="700" type="line"/>
      <point x="374" y="709" type="line"/>
      <point x="225" y="715"/>
      <point x="106" y="646"/>
      <point x="106" y="517" type="curve" smooth="yes"/>
      <point x="106" y="412"/>
      <point x="165" y="367"/>
      <point x="255" y="343" type="curve" smooth="yes"/>
      <point x="336" y="321" type="line" smooth="yes"/>
      <point x="453" y="289"/>
      <point x="488" y="252"/>
      <point x="488" y="180" type="curve" smooth="yes"/>
      <point x="488" y="86"/>
      <point x="399" y="37"/>
      <point x="293" y="37" type="curve" smooth="yes"/>
      <point x="193" y="37"/>
      <point x="131" y="56"/>
      <point x="61" y="118" type="curve"/>
      <point x="38" y="83" type="line"/>
      <point x="99" y="24"/>
      <point x="176" y="0"/>
      <point x="268" y="-4" type="curve"/>
      <point x="258" y="8" type="line"/>
    </contour>
  </outline>
</glyph>
<glyph name="percent" format="2">
  <advance width="916"/>
  <unicode hex="0025"/>
  <outline>
    <contour>
      <point x="231" y="-22" type="line"/>
      <point x="764" y="703" type="line"/>
      <point x="732" y="727" type="line"/>
      <point x="199" y="2" type="line"/>
    </contour>
    <contour>
      <point x="245" y="282" type="curve" smooth="yes"/>
      <point x="378" y="282"/>
      <point x="448" y="406"/>
      <point x="448" y="554" type="curve" smooth="yes"/>
      <point x="448" y="654"/>
      <point x="395" y="713"/>
      <point x="311" y="713" type="curve" smooth="yes"/>
      <point x="178" y="713"/>
      <point x="108" y="589"/>
      <point x="108" y="441" type="curve" smooth="yes"/>
      <point x="108" y="341"/>
      <point x="161" y="282"/>
    </contour>
    <contour>
      <point x="245" y="319" type="curve" smooth="yes"/>
      <point x="188" y="319"/>
      <point x="147" y="358"/>
      <point x="150" y="447" type="curve" smooth="yes"/>
      <point x="154" y="576"/>
      <point x="205" y="676"/>
      <point x="311" y="676" type="curve" smooth="yes"/>
      <point x="368" y="676"/>
      <point x="409" y="637"/>
      <point x="406" y="548" type="curve" smooth="yes"/>
      <point x="402" y="419"/>
      <point x="351" y="319"/>
    </contour>
    <contour>
      <point x="652" y="-8" type="curve" smooth="yes"/>
      <point x="785" y="-8"/>
      <point x="855" y="116"/>
      <point x="855" y="264" type="curve" smooth="yes"/>
      <point x="855" y="364"/>
      <point x="802" y="423"/>
      <point x="718" y="423" type="curve" smooth="yes"/>
      <point x="585" y="423"/>
      <point x="515" y="299"/>
      <point x="515" y="151" type="curve" smooth="yes"/>
      <point x="515" y="51"/>
      <point x="568" y="-8"/>
    </contour>
    <contour>
      <point x="652" y="29" type="curve" smooth="yes"/>
      <point x="595" y="29"/>
      <point x="554" y="68"/>
      <point x="557" y="157" type="curve" smooth="yes"/>
      <point x="561" y="286"/>
      <point x="612" y="386"/>
      <point x="718" y="386" type="curve" smooth="yes"/>
      <point x="775" y="386"/>
      <point x="816" y="347"/>
      <point x="813" y="258" type="curve" smooth="yes"/>
      <point x="809" y="129"/>
      <point x="758" y="29"/>
    </contour>
  </outline>
</glyph>
<glyph name="ampersand" format="2">
  <advance width="664"/>
  <unicode hex="0026"/>
  <guideline x="707" y="577" angle="215.7274"/>
  <guideline x="723" y="625" angle="215.7274"/>
  <guideline x="808" y="397" angle="310.9671"/>
  <guideline x="854" y="409" angle="310.6489"/>
  <outline>
    <contour>
      <point x="246" y="-8" type="curve" smooth="yes"/>
      <point x="351" y="-8"/>
      <point x="433" y="35"/>
      <point x="492" y="110" type="curve"/>
      <point x="475" y="110" type="line"/>
      <point x="552" y="0" type="line"/>
      <point x="600" y="0" type="line"/>
      <point x="499" y="144" type="line"/>
      <point x="503" y="126" type="line"/>
      <point x="555" y="196"/>
      <point x="593" y="292"/>
      <point x="613" y="404" type="curve"/>
      <point x="572" y="404" type="line"/>
      <point x="555" y="308"/>
      <point x="520" y="216"/>
      <point x="479" y="161" type="curve"/>
      <point x="487" y="161" type="line"/>
      <point x="322" y="396" type="line"/>
      <point x="320" y="381" type="line"/>
      <point x="431" y="448"/>
      <point x="506" y="497"/>
      <point x="506" y="593" type="curve" smooth="yes"/>
      <point x="506" y="664"/>
      <point x="457" y="713"/>
      <point x="378" y="713" type="curve" smooth="yes"/>
      <point x="276" y="713"/>
      <point x="209" y="649"/>
      <point x="209" y="552" type="curve" smooth="yes"/>
      <point x="209" y="509"/>
      <point x="227" y="458"/>
      <point x="275" y="393" type="curve"/>
      <point x="279" y="402" type="line"/>
      <point x="244" y="382" type="line" smooth="yes"/>
      <point x="163" y="336"/>
      <point x="56" y="257"/>
      <point x="56" y="142" type="curve" smooth="yes"/>
      <point x="56" y="48"/>
      <point x="130" y="-8"/>
    </contour>
    <contour>
      <point x="243" y="31" type="curve" smooth="yes"/>
      <point x="148" y="31"/>
      <point x="98" y="70"/>
      <point x="98" y="144" type="curve" smooth="yes"/>
      <point x="98" y="231"/>
      <point x="164" y="290"/>
      <point x="264" y="350" type="curve" smooth="yes"/>
      <point x="299" y="371" type="line"/>
      <point x="288" y="372" type="line"/>
      <point x="466" y="123" type="line"/>
      <point x="468" y="143" type="line"/>
      <point x="414" y="70"/>
      <point x="341" y="31"/>
    </contour>
    <contour>
      <point x="377" y="674" type="curve" smooth="yes"/>
      <point x="430" y="674"/>
      <point x="466" y="638"/>
      <point x="466" y="589" type="curve" smooth="yes"/>
      <point x="466" y="529"/>
      <point x="426" y="489"/>
      <point x="296" y="410" type="curve"/>
      <point x="311" y="413" type="line"/>
      <point x="263" y="480"/>
      <point x="251" y="510"/>
      <point x="251" y="556" type="curve" smooth="yes"/>
      <point x="251" y="621"/>
      <point x="302" y="674"/>
    </contour>
  </outline>
</glyph>
<glyph name="parenleft" format="2">
  <advance width="281"/>
  <unicode hex="0028"/>
  <outline>
    <contour>
      <point x="147" y="-190" type="curve"/>
      <point x="184" y="-178" type="line"/>
      <point x="142" y="-33"/>
      <point x="132" y="115"/>
      <point x="156" y="263" type="curve" smooth="yes"/>
      <point x="179" y="411"/>
      <point x="236" y="559"/>
      <point x="324" y="704" type="curve"/>
      <point x="290" y="716" type="line"/>
      <point x="195" y="566"/>
      <point x="136" y="419"/>
      <point x="112" y="263" type="curve" smooth="yes"/>
      <point x="87" y="107"/>
      <point x="99" y="-41"/>
    </contour>
  </outline>
</glyph>
<glyph name="parenright" format="2">
  <advance width="281"/>
  <unicode hex="0029"/>
  <outline>
    <contour>
      <point x="6" y="-190" type="line"/>
      <point x="102" y="-41"/>
      <point x="160" y="107"/>
      <point x="185" y="263" type="curve" smooth="yes"/>
      <point x="209" y="418"/>
      <point x="197" y="565"/>
      <point x="149" y="716" type="curve"/>
      <point x="113" y="704" type="line"/>
      <point x="154" y="556"/>
      <point x="163" y="409"/>
      <point x="140" y="263" type="curve" smooth="yes"/>
      <point x="117" y="117"/>
      <point x="61" y="-30"/>
      <point x="-27" y="-178" type="curve"/>
    </contour>
  </outline>
</glyph>
<glyph name="asterisk" format="2">
  <advance width="448"/>
  <unicode hex="002A"/>
  <outline>
    <contour>
      <point x="197" y="367" type="line"/>
      <point x="278" y="513" type="line"/>
      <point x="272" y="513" type="line"/>
      <point x="352" y="368" type="line"/>
      <point x="385" y="387" type="line"/>
      <point x="298" y="531" type="line"/>
      <point x="292" y="524" type="line"/>
      <point x="463" y="520" type="line"/>
      <point x="463" y="559" type="line"/>
      <point x="292" y="555" type="line"/>
      <point x="298" y="549" type="line"/>
      <point x="385" y="693" type="line"/>
      <point x="352" y="712" type="line"/>
      <point x="272" y="566" type="line"/>
      <point x="278" y="566" type="line"/>
      <point x="197" y="712" type="line"/>
      <point x="164" y="693" type="line"/>
      <point x="252" y="549" type="line"/>
      <point x="257" y="555" type="line"/>
      <point x="87" y="559" type="line"/>
      <point x="87" y="520" type="line"/>
      <point x="257" y="524" type="line"/>
      <point x="252" y="531" type="line"/>
      <point x="164" y="387" type="line"/>
    </contour>
  </outline>
</glyph>
<glyph name="comma" format="2">
  <advance width="211"/>
  <unicode hex="002C"/>
  <outline>
    <contour>
      <point x="46" y="-98" type="line"/>
      <point x="86" y="-65"/>
      <point x="102" y="-27"/>
      <point x="108" y="15" type="curve" smooth="yes"/>
      <point x="117" y="70" type="line"/>
      <point x="48" y="70" type="line"/>
      <point x="37" y="0" type="line"/>
      <point x="79" y="0" type="line"/>
      <point x="70" y="6" type="line"/>
      <point x="66" y="-20"/>
      <point x="58" y="-46"/>
      <point x="24" y="-78" type="curve"/>
    </contour>
  </outline>
</glyph>
<glyph name="period" format="2">
  <advance width="211"/>
  <unicode hex="002E"/>
  <outline>
    <contour>
      <point x="37" y="0" type="line"/>
      <point x="106" y="0" type="line"/>
      <point x="117" y="70" type="line"/>
      <point x="48" y="70" type="line"/>
    </contour>
  </outline>
</glyph>
<glyph name="zero" format="2">
  <advance width="600"/>
  <unicode hex="0030"/>
  <outline>
    <contour>
      <point x="294" y="-8" type="curve" smooth="yes"/>
      <point x="460" y="-8"/>
      <point x="564" y="168"/>
      <point x="564" y="460" type="curve" smooth="yes"/>
      <point x="564" y="624"/>
      <point x="492" y="713"/>
      <point x="352" y="713" type="curve" smooth="yes"/>
      <point x="186" y="713"/>
      <point x="81" y="537"/>
      <point x="81" y="245" type="curve" smooth="yes"/>
      <point x="81" y="81"/>
      <point x="154" y="-8"/>
    </contour>
    <contour>
      <point x="297" y="33" type="curve" smooth="yes"/>
      <point x="182" y="33"/>
      <point x="126" y="98"/>
      <point x="126" y="227" type="curve" smooth="yes"/>
      <point x="126" y="513"/>
      <point x="210" y="672"/>
      <point x="349" y="672" type="curve" smooth="yes"/>
      <point x="464" y="672"/>
      <point x="519" y="607"/>
      <point x="519" y="478" type="curve" smooth="yes"/>
      <point x="519" y="192"/>
      <point x="436" y="33"/>
    </contour>
  </outline>
</glyph>
<glyph name="one" format="2">
  <advance width="600"/>
  <unicode hex="0031"/>
  <outline>
    <contour>
      <point x="104" y="0" type="line"/>
      <point x="460" y="0" type="line"/>
      <point x="466" y="39" type="line"/>
      <point x="314" y="39" type="line"/>
      <point x="420" y="705" type="line"/>
      <point x="390" y="705" type="line"/>
      <point x="210" y="595" type="line"/>
      <point x="227" y="560" type="line"/>
      <point x="401" y="665" type="line"/>
      <point x="372" y="668" type="line"/>
      <point x="272" y="39" type="line"/>
      <point x="110" y="39" type="line"/>
    </contour>
  </outline>
</glyph>
<glyph name="three" format="2">
  <advance width="600"/>
  <unicode hex="0033"/>
  <outline>
    <contour>
      <point x="280" y="-8" type="curve" smooth="yes"/>
      <point x="402" y="-8"/>
      <point x="506" y="75"/>
      <point x="506" y="204" type="curve" smooth="yes"/>
      <point x="506" y="281"/>
      <point x="461" y="343"/>
      <point x="376" y="363" type="curve"/>
      <point x="375" y="353" type="line"/>
      <point x="472" y="371"/>
      <point x="542" y="449"/>
      <point x="542" y="547" type="curve" smooth="yes"/>
      <point x="542" y="643"/>
      <point x="469" y="713"/>
      <point x="358" y="713" type="curve" smooth="yes"/>
      <point x="274" y="713"/>
      <point x="189" y="681"/>
      <point x="132" y="620" type="curve"/>
      <point x="151" y="585" type="line"/>
      <point x="211" y="645"/>
      <point x="284" y="672"/>
      <point x="357" y="672" type="curve" smooth="yes"/>
      <point x="442" y="672"/>
      <point x="498" y="621"/>
      <point x="498" y="546" type="curve" smooth="yes"/>
      <point x="498" y="443"/>
      <point x="413" y="378"/>
      <point x="309" y="378" type="curve" smooth="yes"/>
      <point x="218" y="378" type="line"/>
      <point x="212" y="339" type="line"/>
      <point x="305" y="339" type="line" smooth="yes"/>
      <point x="405" y="339"/>
      <point x="462" y="284"/>
      <point x="462" y="204" type="curve" smooth="yes"/>
      <point x="462" y="98"/>
      <point x="382" y="33"/>
      <point x="280" y="33" type="curve" smooth="yes"/>
      <point x="200" y="33"/>
      <point x="137" y="48"/>
      <point x="66" y="114" type="curve"/>
      <point x="43" y="80" type="line"/>
      <point x="109" y="13"/>
      <point x="197" y="-8"/>
    </contour>
  </outline>
</glyph>
<glyph name="six" format="2">
  <advance width="600"/>
  <unicode hex="0036"/>
  <guideline x="593" y="603" angle="236.6894"/>
  <outline>
    <contour>
      <point x="307" y="-8" type="curve" smooth="yes"/>
      <point x="439" y="-8"/>
      <point x="540" y="98"/>
      <point x="540" y="237" type="curve" smooth="yes"/>
      <point x="540" y="349"/>
      <point x="457" y="433"/>
      <point x="342" y="433" type="curve" smooth="yes"/>
      <point x="238" y="433"/>
      <point x="140" y="360"/>
      <point x="120" y="241" type="curve"/>
      <point x="128" y="241" type="line"/>
      <point x="129" y="267" type="line" smooth="yes"/>
      <point x="138" y="513"/>
      <point x="241" y="672"/>
      <point x="396" y="672" type="curve" smooth="yes"/>
      <point x="462" y="672"/>
      <point x="522" y="645"/>
      <point x="571" y="586" type="curve"/>
      <point x="594" y="620" type="line"/>
      <point x="548" y="678"/>
      <point x="473" y="713"/>
      <point x="401" y="713" type="curve" smooth="yes"/>
      <point x="191" y="713"/>
      <point x="89" y="492"/>
      <point x="89" y="247" type="curve" smooth="yes"/>
      <point x="89" y="90"/>
      <point x="175" y="-8"/>
    </contour>
    <contour>
      <point x="304" y="33" type="curve" smooth="yes"/>
      <point x="214" y="33"/>
      <point x="146" y="97"/>
      <point x="146" y="189" type="curve" smooth="yes"/>
      <point x="146" y="300"/>
      <point x="223" y="392"/>
      <point x="338" y="392" type="curve" smooth="yes"/>
      <point x="428" y="392"/>
      <point x="496" y="328"/>
      <point x="496" y="236" type="curve" smooth="yes"/>
      <point x="496" y="125"/>
      <point x="419" y="33"/>
    </contour>
  </outline>
</glyph>
<glyph name="seven" format="2">
  <advance width="600"/>
  <unicode hex="0037"/>
  <outline>
    <contour>
      <point x="100" y="0" type="line"/>
      <point x="150" y="0" type="line"/>
      <point x="593" y="674" type="line"/>
      <point x="598" y="705" type="line"/>
      <point x="155" y="705" type="line"/>
      <point x="149" y="666" type="line"/>
      <point x="558" y="666" type="line"/>
      <point x="559" y="695" type="line"/>
    </contour>
  </outline>
</glyph>
<glyph name="nine" format="2">
  <advance width="600"/>
  <unicode hex="0039"/>
  <guideline x="64" y="50" angle="130.684"/>
  <outline>
    <contour>
      <point x="244" y="-8" type="curve" smooth="yes"/>
      <point x="454" y="-8"/>
      <point x="556" y="213"/>
      <point x="556" y="458" type="curve" smooth="yes"/>
      <point x="556" y="615"/>
      <point x="470" y="713"/>
      <point x="338" y="713" type="curve" smooth="yes"/>
      <point x="206" y="713"/>
      <point x="105" y="607"/>
      <point x="105" y="468" type="curve" smooth="yes"/>
      <point x="105" y="356"/>
      <point x="188" y="272"/>
      <point x="303" y="272" type="curve" smooth="yes"/>
      <point x="407" y="272"/>
      <point x="505" y="345"/>
      <point x="525" y="464" type="curve"/>
      <point x="517" y="464" type="line"/>
      <point x="516" y="438" type="line" smooth="yes"/>
      <point x="507" y="192"/>
      <point x="404" y="33"/>
      <point x="249" y="33" type="curve" smooth="yes"/>
      <point x="183" y="33"/>
      <point x="123" y="60"/>
      <point x="74" y="119" type="curve"/>
      <point x="51" y="85" type="line"/>
      <point x="97" y="27"/>
      <point x="172" y="-8"/>
    </contour>
    <contour>
      <point x="307" y="313" type="curve" smooth="yes"/>
      <point x="217" y="313"/>
      <point x="149" y="377"/>
      <point x="149" y="469" type="curve" smooth="yes"/>
      <point x="149" y="580"/>
      <point x="226" y="672"/>
      <point x="341" y="672" type="curve" smooth="yes"/>
      <point x="431" y="672"/>
      <point x="499" y="608"/>
      <point x="499" y="516" type="curve" smooth="yes"/>
      <point x="499" y="405"/>
      <point x="422" y="313"/>
    </contour>
  </outline>
</glyph>
<glyph name="colon" format="2">
  <advance width="211"/>
  <unicode hex="003A"/>
  <outline>
    <contour>
      <point x="95" y="364" type="line"/>
      <point x="164" y="364" type="line"/>
      <point x="175" y="434" type="line"/>
      <point x="106" y="434" type="line"/>
    </contour>
    <contour>
      <point x="37" y="0" type="line"/>
      <point x="106" y="0" type="line"/>
      <point x="117" y="70" type="line"/>
      <point x="48" y="70" type="line"/>
    </contour>
  </outline>
</glyph>
<glyph name="semicolon" format="2">
  <advance width="211"/>
  <unicode hex="003B"/>
  <outline>
    <contour>
      <point x="46" y="-98" type="line"/>
      <point x="86" y="-65"/>
      <point x="102" y="-27"/>
      <point x="108" y="15" type="curve" smooth="yes"/>
      <point x="117" y="70" type="line"/>
      <point x="48" y="70" type="line"/>
      <point x="37" y="0" type="line"/>
      <point x="84" y="0" type="line"/>
      <point x="70" y="6" type="line"/>
      <point x="66" y="-20"/>
      <point x="58" y="-46"/>
      <point x="24" y="-78" type="curve"/>
    </contour>
    <contour>
      <point x="95" y="364" type="line"/>
      <point x="164" y="364" type="line"/>
      <point x="175" y="434" type="line"/>
      <point x="106" y="434" type="line"/>
    </contour>
  </outline>
</glyph>
<glyph name="less" format="2">
  <advance width="600"/>
  <unicode hex="003C"/>
  <outline>
    <contour>
      <point x="515" y="37" type="line"/>
      <point x="522" y="78" type="line"/>
      <point x="97" y="295" type="line"/>
      <point x="93" y="273" type="line"/>
      <point x="587" y="491" type="line"/>
      <point x="594" y="537" type="line"/>
      <point x="70" y="305" type="line"/>
      <point x="64" y="269" type="line"/>
    </contour>
  </outline>
</glyph>
<glyph name="equal" format="2">
  <advance width="600"/>
  <unicode hex="003D"/>
  <outline>
    <contour>
      <point x="80" y="367" type="line"/>
      <point x="568" y="367" type="line"/>
      <point x="574" y="406" type="line"/>
      <point x="86" y="406" type="line"/>
    </contour>
    <contour>
      <point x="49" y="168" type="line"/>
      <point x="537" y="168" type="line"/>
      <point x="543" y="207" type="line"/>
      <point x="55" y="207" type="line"/>
    </contour>
  </outline>
</glyph>
<glyph name="greater" format="2">
  <advance width="600"/>
  <unicode hex="003E"/>
  <outline>
    <contour>
      <point x="28" y="37" type="line"/>
      <point x="553" y="269" type="line"/>
      <point x="559" y="305" type="line"/>
      <point x="107" y="537" type="line"/>
      <point x="100" y="496" type="line"/>
      <point x="526" y="278" type="line"/>
      <point x="530" y="300" type="line"/>
      <point x="35" y="83" type="line"/>
    </contour>
  </outline>
</glyph>
<glyph name="at" format="2">
  <advance width="943"/>
  <unicode hex="0040"/>
  <outline>
    <contour>
      <point x="499" y="-162" type="curve" smooth="yes"/>
      <point x="621" y="-162"/>
      <point x="726" y="-121"/>
      <point x="791" y="-47" type="curve"/>
      <point x="764" y="-15" type="line"/>
      <point x="708" y="-83"/>
      <point x="613" y="-123"/>
      <point x="499" y="-123" type="curve" smooth="yes"/>
      <point x="269" y="-123"/>
      <point x="124" y="27"/>
      <point x="124" y="277" type="curve" smooth="yes"/>
      <point x="124" y="513"/>
      <point x="280" y="674"/>
      <point x="508" y="674" type="curve" smooth="yes"/>
      <point x="710" y="674"/>
      <point x="852" y="539"/>
      <point x="852" y="346" type="curve" smooth="yes"/>
      <point x="852" y="195"/>
      <point x="793" y="96"/>
      <point x="706" y="96" type="curve" smooth="yes"/>
      <point x="660" y="96"/>
      <point x="638" y="120"/>
      <point x="638" y="168" type="curve" smooth="yes"/>
      <point x="638" y="180"/>
      <point x="639" y="194"/>
      <point x="642" y="209" type="curve" smooth="yes"/>
      <point x="689" y="484" type="line"/>
      <point x="647" y="484" type="line"/>
      <point x="631" y="389" type="line"/>
      <point x="638" y="389" type="line"/>
      <point x="626" y="453"/>
      <point x="576" y="492"/>
      <point x="502" y="492" type="curve" smooth="yes"/>
      <point x="378" y="492"/>
      <point x="284" y="384"/>
      <point x="284" y="236" type="curve" smooth="yes"/>
      <point x="284" y="125"/>
      <point x="342" y="59"/>
      <point x="442" y="59" type="curve" smooth="yes"/>
      <point x="506" y="59"/>
      <point x="572" y="99"/>
      <point x="607" y="169" type="curve"/>
      <point x="599" y="188" type="line"/>
      <point x="585" y="110"/>
      <point x="626" y="59"/>
      <point x="703" y="59" type="curve" smooth="yes"/>
      <point x="816" y="59"/>
      <point x="891" y="172"/>
      <point x="891" y="346" type="curve" smooth="yes"/>
      <point x="891" y="564"/>
      <point x="735" y="713"/>
      <point x="509" y="713" type="curve" smooth="yes"/>
      <point x="258" y="713"/>
      <point x="82" y="534"/>
      <point x="82" y="277" type="curve" smooth="yes"/>
      <point x="82" y="6"/>
      <point x="246" y="-162"/>
    </contour>
    <contour>
      <point x="443" y="98" type="curve" smooth="yes"/>
      <point x="369" y="98"/>
      <point x="327" y="147"/>
      <point x="327" y="236" type="curve" smooth="yes"/>
      <point x="327" y="361"/>
      <point x="403" y="453"/>
      <point x="502" y="453" type="curve" smooth="yes"/>
      <point x="581" y="453"/>
      <point x="618" y="412"/>
      <point x="618" y="327" type="curve" smooth="yes"/>
      <point x="618" y="196"/>
      <point x="543" y="98"/>
    </contour>
  </outline>
</glyph>
<glyph name="A" format="2">
  <advance width="716"/>
  <unicode hex="0041"/>
  <anchor x="341" y="0" name="bottom"/>
  <anchor x="647" y="0" name="ogonek"/>
  <anchor x="438" y="705" name="top"/>
  <outline>
    <contour>
      <point x="1" y="0" type="line"/>
      <point x="50" y="0" type="line"/>
      <point x="170" y="204" type="line"/>
      <point x="138" y="195" type="line"/>
      <point x="574" y="195" type="line"/>
      <point x="550" y="204" type="line"/>
      <point x="605" y="0" type="line"/>
      <point x="647" y="0" type="line"/>
      <point x="456" y="705" type="line"/>
      <point x="416" y="705" type="line"/>
    </contour>
    <contour>
      <point x="429" y="648" type="line"/>
      <point x="431" y="648" type="line"/>
      <point x="543" y="228" type="line"/>
      <point x="563" y="234" type="line"/>
      <point x="161" y="234" type="line"/>
      <point x="184" y="228" type="line"/>
    </contour>
  </outline>
</glyph>
<glyph name="B" format="2">
  <advance width="666"/>
  <unicode hex="0042"/>
  <guideline x="328" y="220" angle="0"/>
  <anchor x="304" y="0" name="bottom"/>
  <anchor x="415" y="705" name="top"/>
  <outline>
    <contour>
      <point x="62" y="0" type="line"/>
      <point x="350" y="0" type="line" smooth="yes"/>
      <point x="507" y="0"/>
      <point x="592" y="70"/>
      <point x="592" y="207" type="curve" smooth="yes"/>
      <point x="592" y="290"/>
      <point x="536" y="349"/>
      <point x="447" y="363" type="curve"/>
      <point x="447" y="349" type="line"/>
      <point x="558" y="363"/>
      <point x="629" y="434"/>
      <point x="629" y="541" type="curve" smooth="yes"/>
      <point x="629" y="643"/>
      <point x="559" y="705"/>
      <point x="421" y="705" type="curve" smooth="yes"/>
      <point x="174" y="705" type="line"/>
    </contour>
    <contour>
      <point x="111" y="39" type="line"/>
      <point x="158" y="337" type="line"/>
      <point x="383" y="337" type="line" smooth="yes"/>
      <point x="489" y="337"/>
      <point x="548" y="292"/>
      <point x="548" y="206" type="curve" smooth="yes"/>
      <point x="548" y="96"/>
      <point x="483" y="39"/>
      <point x="354" y="39" type="curve" smooth="yes"/>
    </contour>
    <contour>
      <point x="164" y="376" type="line"/>
      <point x="210" y="666" type="line"/>
      <point x="418" y="666" type="line" smooth="yes"/>
      <point x="531" y="666"/>
      <point x="585" y="622"/>
      <point x="585" y="540" type="curve" smooth="yes"/>
      <point x="585" y="435"/>
      <point x="509" y="376"/>
      <point x="391" y="376" type="curve" smooth="yes"/>
    </contour>
  </outline>
</glyph>
<glyph name="D" format="2">
  <advance width="725"/>
  <unicode hex="0044"/>
  <anchor x="329" y="0" name="bottom"/>
  <anchor x="196" y="358" name="center"/>
  <anchor x="430" y="705" name="top"/>
  <outline>
    <contour>
      <point x="62" y="0" type="line"/>
      <point x="288" y="0" type="line" smooth="yes"/>
      <point x="567" y="0"/>
      <point x="683" y="190"/>
      <point x="683" y="416" type="curve" smooth="yes"/>
      <point x="683" y="600"/>
      <point x="568" y="705"/>
      <point x="364" y="705" type="curve" smooth="yes"/>
      <point x="174" y="705" type="line"/>
    </contour>
    <contour>
      <point x="110" y="39" type="line"/>
      <point x="210" y="666" type="line"/>
      <point x="363" y="666" type="line" smooth="yes"/>
      <point x="546" y="666"/>
      <point x="638" y="578"/>
      <point x="638" y="416" type="curve" smooth="yes"/>
      <point x="638" y="215"/>
      <point x="545" y="39"/>
      <point x="290" y="39" type="curve" smooth="yes"/>
    </contour>
  </outline>
</glyph>
<glyph name="E" format="2">
  <advance width="570"/>
  <unicode hex="0045"/>
  <anchor x="293" y="0" name="bottom"/>
  <anchor x="453" y="0" name="ogonek"/>
  <anchor x="400" y="705" name="top"/>
  <anchor x="105" y="705" name="topleft"/>
  <outline>
    <contour>
      <point x="62" y="0" type="line"/>
      <point x="486" y="0" type="line"/>
      <point x="492" y="39" type="line"/>
      <point x="110" y="39" type="line"/>
      <point x="157" y="338" type="line"/>
      <point x="520" y="338" type="line"/>
      <point x="526" y="377" type="line"/>
      <point x="164" y="377" type="line"/>
      <point x="210" y="666" type="line"/>
      <point x="592" y="666" type="line"/>
      <point x="598" y="705" type="line"/>
      <point x="174" y="705" type="line"/>
    </contour>
  </outline>
</glyph>
<glyph name="H" format="2">
  <advance width="751"/>
  <unicode hex="0048"/>
  <anchor x="346" y="0" name="bottom"/>
  <anchor x="428" y="546" name="center"/>
  <anchor x="452" y="705" name="top"/>
  <anchor x="104" y="705" name="topleft"/>
  <outline>
    <contour>
      <point x="62" y="0" type="line"/>
      <point x="104" y="0" type="line"/>
      <point x="158" y="338" type="line"/>
      <point x="632" y="338" type="line"/>
      <point x="578" y="0" type="line"/>
      <point x="620" y="0" type="line"/>
      <point x="732" y="705" type="line"/>
      <point x="690" y="705" type="line"/>
      <point x="638" y="377" type="line"/>
      <point x="164" y="377" type="line"/>
      <point x="216" y="705" type="line"/>
      <point x="174" y="705" type="line"/>
    </contour>
  </outline>
</glyph>
<glyph name="I" format="2">
  <advance width="234"/>
  <unicode hex="0049"/>
  <anchor x="83" y="0" name="bottom"/>
  <anchor x="104" y="0" name="ogonek"/>
  <anchor x="195" y="705" name="top"/>
  <anchor x="106" y="705" name="topleft"/>
  <outline>
    <contour>
      <point x="62" y="0" type="line"/>
      <point x="104" y="0" type="line"/>
      <point x="216" y="705" type="line"/>
      <point x="174" y="705" type="line"/>
    </contour>
  </outline>
</glyph>
<glyph name="K" format="2">
  <advance width="590"/>
  <unicode hex="004B"/>
  <anchor x="281" y="0" name="bottom"/>
  <anchor x="379" y="705" name="top"/>
  <anchor x="105" y="705" name="topleft"/>
  <outline>
    <contour>
      <point x="62" y="0" type="line"/>
      <point x="104" y="0" type="line"/>
      <point x="158" y="338" type="line"/>
      <point x="160" y="338" type="line"/>
      <point x="503" y="0" type="line"/>
      <point x="560" y="0" type="line"/>
      <point x="187" y="369" type="line"/>
      <point x="182" y="339" type="line"/>
      <point x="649" y="705" type="line"/>
      <point x="587" y="705" type="line"/>
      <point x="166" y="377" type="line"/>
      <point x="164" y="377" type="line"/>
      <point x="216" y="705" type="line"/>
      <point x="174" y="705" type="line"/>
    </contour>
  </outline>
</glyph>
<glyph name="N" format="2">
  <advance width="732"/>
  <unicode hex="004E"/>
  <anchor x="342" y="0" name="bottom"/>
  <anchor x="444" y="705" name="top"/>
  <outline>
    <contour>
      <point x="62" y="0" type="line"/>
      <point x="101" y="0" type="line"/>
      <point x="206" y="663" type="line"/>
      <point x="189" y="663" type="line"/>
      <point x="567" y="0" type="line"/>
      <point x="601" y="0" type="line"/>
      <point x="713" y="705" type="line"/>
      <point x="674" y="705" type="line"/>
      <point x="569" y="42" type="line"/>
      <point x="587" y="42" type="line"/>
      <point x="209" y="705" type="line"/>
      <point x="174" y="705" type="line"/>
    </contour>
  </outline>
</glyph>
<glyph name="P" format="2">
  <advance width="616"/>
  <unicode hex="0050"/>
  <anchor x="282" y="0" name="bottom"/>
  <anchor x="394" y="705" name="top"/>
  <outline>
    <contour>
      <point x="62" y="0" type="line"/>
      <point x="104" y="0" type="line"/>
      <point x="151" y="297" type="line"/>
      <point x="374" y="297" type="line" smooth="yes"/>
      <point x="537" y="297"/>
      <point x="625" y="386"/>
      <point x="625" y="521" type="curve" smooth="yes"/>
      <point x="625" y="645"/>
      <point x="544" y="705"/>
      <point x="411" y="705" type="curve" smooth="yes"/>
      <point x="174" y="705" type="line"/>
    </contour>
    <contour>
      <point x="158" y="336" type="line"/>
      <point x="210" y="666" type="line"/>
      <point x="411" y="666" type="line" smooth="yes"/>
      <point x="522" y="666"/>
      <point x="581" y="621"/>
      <point x="581" y="520" type="curve" smooth="yes"/>
      <point x="581" y="400"/>
      <point x="510" y="336"/>
      <point x="378" y="336" type="curve" smooth="yes"/>
    </contour>
  </outline>
</glyph>
<glyph name="R" format="2">
  <advance width="654"/>
  <unicode hex="0052"/>
  <anchor x="309" y="0" name="bottom"/>
  <anchor x="399" y="705" name="top"/>
  <outline>
    <contour>
      <point x="62" y="0" type="line"/>
      <point x="104" y="0" type="line"/>
      <point x="153" y="312" type="line"/>
      <point x="321" y="312" type="line" smooth="yes"/>
      <point x="399" y="312"/>
      <point x="433" y="288"/>
      <point x="459" y="221" type="curve" smooth="yes"/>
      <point x="543" y="0" type="line"/>
      <point x="584" y="0" type="line"/>
      <point x="495" y="234" type="line" smooth="yes"/>
      <point x="472" y="294"/>
      <point x="438" y="327"/>
      <point x="385" y="327" type="curve" smooth="yes"/>
      <point x="377" y="327" type="line"/>
      <point x="377" y="316" type="line"/>
      <point x="519" y="312"/>
      <point x="625" y="385"/>
      <point x="625" y="520" type="curve" smooth="yes"/>
      <point x="625" y="634"/>
      <point x="553" y="705"/>
      <point x="405" y="705" type="curve" smooth="yes"/>
      <point x="174" y="705" type="line"/>
    </contour>
    <contour>
      <point x="160" y="351" type="line"/>
      <point x="210" y="666" type="line"/>
      <point x="405" y="666" type="line" smooth="yes"/>
      <point x="527" y="666"/>
      <point x="581" y="616"/>
      <point x="581" y="519" type="curve" smooth="yes"/>
      <point x="581" y="412"/>
      <point x="508" y="351"/>
      <point x="387" y="351" type="curve" smooth="yes"/>
    </contour>
  </outline>
</glyph>
<glyph name="T" format="2">
  <advance width="586"/>
  <unicode hex="0054"/>
  <anchor x="258" y="0" name="bottom"/>
  <anchor x="315" y="358" name="center"/>
  <anchor x="370" y="705" name="top"/>
  <outline>
    <contour>
      <point x="237" y="0" type="line"/>
      <point x="279" y="0" type="line"/>
      <point x="385" y="666" type="line"/>
      <point x="654" y="666" type="line"/>
      <point x="660" y="705" type="line"/>
      <point x="80" y="705" type="line"/>
      <point x="74" y="666" type="line"/>
      <point x="343" y="666" type="line"/>
    </contour>
  </outline>
</glyph>
<glyph name="W" format="2">
  <advance width="1091"/>
  <unicode hex="0057"/>
  <anchor x="512" y="0" name="bottom"/>
  <anchor x="623" y="705" name="top"/>
  <outline>
    <contour>
      <point x="248" y="0" type="line"/>
      <point x="289" y="0" type="line"/>
      <point x="627" y="671" type="line"/>
      <point x="607" y="671" type="line"/>
      <point x="732" y="0" type="line"/>
      <point x="775" y="0" type="line"/>
      <point x="1131" y="705" type="line"/>
      <point x="1085" y="705" type="line"/>
      <point x="740" y="19" type="line"/>
      <point x="767" y="19" type="line"/>
      <point x="639" y="705" type="line"/>
      <point x="600" y="705" type="line"/>
      <point x="254" y="19" type="line"/>
      <point x="285" y="19" type="line"/>
      <point x="158" y="705" type="line"/>
      <point x="116" y="705" type="line"/>
    </contour>
  </outline>
</glyph>
<glyph name="X" format="2">
  <advance width="631"/>
  <unicode hex="0058"/>
  <guideline x="172" y="362" angle="0"/>
  <anchor x="282" y="0" name="bottom"/>
  <anchor x="394" y="705" name="top"/>
  <outline>
    <contour>
      <point x="-10" y="0" type="line"/>
      <point x="43" y="0" type="line"/>
      <point x="348" y="342" type="line"/>
      <point x="329" y="342" type="line"/>
      <point x="527" y="0" type="line"/>
      <point x="573" y="0" type="line"/>
      <point x="358" y="371" type="line"/>
      <point x="358" y="352" type="line"/>
      <point x="670" y="705" type="line"/>
      <point x="617" y="705" type="line"/>
      <point x="337" y="387" type="line"/>
      <point x="347" y="387" type="line"/>
      <point x="164" y="705" type="line"/>
      <point x="118" y="705" type="line"/>
      <point x="319" y="357" type="line"/>
      <point x="319" y="368" type="line"/>
    </contour>
  </outline>
</glyph>
<glyph name="Y" format="2">
  <advance width="577"/>
  <unicode hex="0059"/>
  <anchor x="254" y="0" name="bottom"/>
  <anchor x="361" y="705" name="top"/>
  <anchor x="95" y="705" name="topleft"/>
  <outline>
    <contour>
      <point x="233" y="0" type="line"/>
      <point x="275" y="0" type="line"/>
      <point x="333" y="367" type="line"/>
      <point x="316" y="328" type="line"/>
      <point x="656" y="705" type="line"/>
      <point x="604" y="705" type="line"/>
      <point x="301" y="368" type="line"/>
      <point x="317" y="368" type="line"/>
      <point x="122" y="705" type="line"/>
      <point x="77" y="705" type="line"/>
      <point x="295" y="328" type="line"/>
      <point x="291" y="367" type="line"/>
    </contour>
  </outline>
</glyph>
<glyph name="bracketleft" format="2">
  <advance width="281"/>
  <unicode hex="005B"/>
  <outline>
    <contour>
      <point x="49" y="-180" type="line"/>
      <point x="214" y="-180" type="line"/>
      <point x="220" y="-143" type="line"/>
      <point x="97" y="-143" type="line"/>
      <point x="226" y="668" type="line"/>
      <point x="349" y="668" type="line"/>
      <point x="355" y="705" type="line"/>
      <point x="190" y="705" type="line"/>
    </contour>
  </outline>
</glyph>
<glyph name="backslash" format="2">
  <advance width="256"/>
  <unicode hex="005C"/>
  <outline>
    <contour>
      <point x="193" y="-55" type="line"/>
      <point x="233" y="-44" type="line"/>
      <point x="104" y="744" type="line"/>
      <point x="64" y="733" type="line"/>
    </contour>
  </outline>
</glyph>
<glyph name="bracketright" format="2">
  <advance width="281"/>
  <unicode hex="005D"/>
  <outline>
    <contour>
      <point x="-59" y="-180" type="line"/>
      <point x="106" y="-180" type="line"/>
      <point x="247" y="705" type="line"/>
      <point x="82" y="705" type="line"/>
      <point x="76" y="668" type="line"/>
      <point x="199" y="668" type="line"/>
      <point x="70" y="-143" type="line"/>
      <point x="-53" y="-143" type="line"/>
    </contour>
  </outline>
</glyph>
<glyph name="asciicircum" format="2">
  <advance width="600"/>
  <unicode hex="005E"/>
  <outline>
    <contour>
      <point x="39" y="140" type="line"/>
      <point x="84" y="140" type="line"/>
      <point x="374" y="599" type="line"/>
      <point x="352" y="599" type="line"/>
      <point x="498" y="140" type="line"/>
      <point x="537" y="140" type="line"/>
      <point x="383" y="628" type="line"/>
      <point x="347" y="628" type="line"/>
    </contour>
  </outline>
</glyph>
<glyph name="b" format="2">
  <advance width="568"/>
  <unicode hex="0062"/>
  <anchor x="276" y="0" name="bottom"/>
  <anchor x="378" y="705" name="top"/>
  <outline>
    <contour>
      <point x="270" y="-8" type="curve" smooth="yes"/>
      <point x="395" y="-8"/>
      <point x="493" y="74"/>
      <point x="515" y="212" type="curve" smooth="yes"/>
      <point x="536" y="351"/>
      <point x="466" y="442"/>
      <point x="336" y="442" type="curve" smooth="yes"/>
      <point x="244" y="442"/>
      <point x="169" y="395"/>
      <point x="136" y="324" type="curve"/>
      <point x="144" y="324" type="line"/>
      <point x="205" y="705" type="line"/>
      <point x="163" y="705" type="line"/>
      <point x="51" y="0" type="line"/>
      <point x="93" y="0" type="line"/>
      <point x="111" y="111" type="line"/>
      <point x="103" y="111" type="line"/>
      <point x="112" y="40"/>
      <point x="173" y="-8"/>
    </contour>
    <contour>
      <point x="270" y="31" type="curve" smooth="yes"/>
      <point x="164" y="31"/>
      <point x="108" y="101"/>
      <point x="126" y="217" type="curve" smooth="yes"/>
      <point x="145" y="334"/>
      <point x="223" y="403"/>
      <point x="329" y="403" type="curve" smooth="yes"/>
      <point x="436" y="403"/>
      <point x="491" y="334"/>
      <point x="472" y="212" type="curve" smooth="yes"/>
      <point x="454" y="101"/>
      <point x="377" y="31"/>
    </contour>
  </outline>
</glyph>
<glyph name="c" format="2">
  <advance width="455"/>
  <unicode hex="0063"/>
  <anchor x="239" y="0" name="bottom"/>
  <anchor x="316" y="484" name="top"/>
  <outline>
    <contour>
      <point x="244" y="-8" type="curve" smooth="yes"/>
      <point x="295" y="-8"/>
      <point x="362" y="14"/>
      <point x="406" y="52" type="curve"/>
      <point x="390" y="86" type="line"/>
      <point x="340" y="46"/>
      <point x="288" y="31"/>
      <point x="244" y="31" type="curve" smooth="yes"/>
      <point x="130" y="31"/>
      <point x="78" y="103"/>
      <point x="97" y="225" type="curve" smooth="yes"/>
      <point x="115" y="336"/>
      <point x="189" y="403"/>
      <point x="303" y="403" type="curve" smooth="yes"/>
      <point x="347" y="403"/>
      <point x="394" y="390"/>
      <point x="431" y="350" type="curve"/>
      <point x="456" y="381" type="line"/>
      <point x="425" y="420"/>
      <point x="369" y="442"/>
      <point x="305" y="442" type="curve" smooth="yes"/>
      <point x="172" y="442"/>
      <point x="76" y="357"/>
      <point x="55" y="225" type="curve" smooth="yes"/>
      <point x="33" y="89"/>
      <point x="100" y="-8"/>
    </contour>
  </outline>
</glyph>
<glyph name="d" format="2">
  <advance width="568"/>
  <unicode hex="0064"/>
  <anchor x="252" y="0" name="bottom"/>
  <anchor x="287" y="219" name="center"/>
  <anchor x="460" y="521" name="stroke"/>
  <anchor x="362" y="705" name="top"/>
  <anchor x="611" y="705" name="topright"/>
  <outline>
    <contour>
      <point x="238" y="-8" type="curve" smooth="yes"/>
      <point x="326" y="-8"/>
      <point x="403" y="40"/>
      <point x="436" y="111" type="curve"/>
      <point x="426" y="111" type="line"/>
      <point x="408" y="0" type="line"/>
      <point x="449" y="0" type="line"/>
      <point x="561" y="705" type="line"/>
      <point x="519" y="705" type="line"/>
      <point x="458" y="324" type="line"/>
      <point x="467" y="324" type="line"/>
      <point x="458" y="395"/>
      <point x="397" y="442"/>
      <point x="299" y="442" type="curve" smooth="yes"/>
      <point x="174" y="442"/>
      <point x="75" y="356"/>
      <point x="54" y="222" type="curve" smooth="yes"/>
      <point x="33" y="84"/>
      <point x="104" y="-8"/>
    </contour>
    <contour>
      <point x="240" y="31" type="curve" smooth="yes"/>
      <point x="134" y="31"/>
      <point x="78" y="101"/>
      <point x="97" y="222" type="curve" smooth="yes"/>
      <point x="115" y="334"/>
      <point x="193" y="403"/>
      <point x="299" y="403" type="curve" smooth="yes"/>
      <point x="406" y="403"/>
      <point x="461" y="334"/>
      <point x="442" y="217" type="curve" smooth="yes"/>
      <point x="424" y="101"/>
      <point x="347" y="31"/>
    </contour>
  </outline>
</glyph>
<glyph name="f" format="2">
  <advance width="306"/>
  <unicode hex="0066"/>
  <anchor x="92" y="0" name="bottom"/>
  <anchor x="186" y="595" name="top"/>
  <outline>
    <contour>
      <point x="71" y="0" type="line"/>
      <point x="113" y="0" type="line"/>
      <point x="176" y="398" type="line"/>
      <point x="322" y="398" type="line"/>
      <point x="328" y="434" type="line"/>
      <point x="173" y="434" type="line"/>
      <point x="180" y="422" type="line"/>
      <point x="194" y="512" type="line" smooth="yes"/>
      <point x="209" y="611"/>
      <point x="257" y="661"/>
      <point x="342" y="667" type="curve" smooth="yes"/>
      <point x="388" y="670" type="line"/>
      <point x="389" y="707" type="line"/>
      <point x="358" y="705" type="line" smooth="yes"/>
      <point x="239" y="697"/>
      <point x="172" y="636"/>
      <point x="152" y="512" type="curve" smooth="yes"/>
      <point x="138" y="423" type="line"/>
      <point x="150" y="434" type="line"/>
      <point x="43" y="434" type="line"/>
      <point x="37" y="398" type="line"/>
      <point x="134" y="398" type="line"/>
    </contour>
  </outline>
</glyph>
<glyph name="g" format="2">
  <advance width="570"/>
  <unicode hex="0067"/>
  <anchor x="331" y="484" name="top"/>
  <outline>
    <contour>
      <point x="225" y="-188" type="curve" smooth="yes"/>
      <point x="355" y="-188"/>
      <point x="432" y="-117"/>
      <point x="454" y="22" type="curve" smooth="yes"/>
      <point x="520" y="434" type="line"/>
      <point x="479" y="434" type="line"/>
      <point x="461" y="325" type="line"/>
      <point x="469" y="325" type="line"/>
      <point x="460" y="396"/>
      <point x="398" y="442"/>
      <point x="300" y="442" type="curve" smooth="yes"/>
      <point x="175" y="442"/>
      <point x="76" y="358"/>
      <point x="56" y="232" type="curve" smooth="yes"/>
      <point x="35" y="101"/>
      <point x="107" y="11"/>
      <point x="243" y="11" type="curve" smooth="yes"/>
      <point x="330" y="11"/>
      <point x="408" y="58"/>
      <point x="440" y="129" type="curve"/>
      <point x="430" y="129" type="line"/>
      <point x="412" y="15" type="line" smooth="yes"/>
      <point x="396" y="-91"/>
      <point x="333" y="-149"/>
      <point x="232" y="-149" type="curve" smooth="yes"/>
      <point x="156" y="-149"/>
      <point x="110" y="-135"/>
      <point x="55" y="-87" type="curve"/>
      <point x="30" y="-119" type="line"/>
      <point x="79" y="-165"/>
      <point x="144" y="-188"/>
    </contour>
    <contour>
      <point x="244" y="50" type="curve" smooth="yes"/>
      <point x="136" y="50"/>
      <point x="81" y="118"/>
      <point x="99" y="232" type="curve" smooth="yes"/>
      <point x="115" y="336"/>
      <point x="192" y="403"/>
      <point x="300" y="403" type="curve" smooth="yes"/>
      <point x="408" y="403"/>
      <point x="463" y="336"/>
      <point x="446" y="227" type="curve" smooth="yes"/>
      <point x="429" y="118"/>
      <point x="352" y="50"/>
    </contour>
  </outline>
</glyph>
<glyph name="i" format="2">
  <advance width="212"/>
  <unicode hex="0069"/>
  <anchor x="71" y="0" name="bottom"/>
  <anchor x="93" y="0" name="ogonek"/>
  <outline>
    <contour>
      <point x="130" y="569" type="line"/>
      <point x="194" y="569" type="line"/>
      <point x="204" y="632" type="line"/>
      <point x="140" y="632" type="line"/>
    </contour>
    <contour>
      <point x="51" y="0" type="line"/>
      <point x="93" y="0" type="line"/>
      <point x="162" y="434" type="line"/>
      <point x="120" y="434" type="line"/>
    </contour>
  </outline>
</glyph>
<glyph name="k" format="2">
  <advance width="468"/>
  <unicode hex="006B"/>
  <anchor x="200" y="0" name="bottom"/>
  <anchor x="356" y="705" name="top"/>
  <outline>
    <contour>
      <point x="51" y="0" type="line"/>
      <point x="93" y="0" type="line"/>
      <point x="127" y="213" type="line"/>
      <point x="129" y="213" type="line"/>
      <point x="374" y="0" type="line"/>
      <point x="432" y="0" type="line"/>
      <point x="160" y="240" type="line"/>
      <point x="162" y="208" type="line"/>
      <point x="473" y="434" type="line"/>
      <point x="409" y="434" type="line"/>
      <point x="132" y="233" type="line"/>
      <point x="130" y="233" type="line"/>
      <point x="205" y="705" type="line"/>
      <point x="163" y="705" type="line"/>
    </contour>
  </outline>
</glyph>
<glyph name="l" format="2">
  <advance width="275"/>
  <unicode hex="006C"/>
  <anchor x="147" y="0" name="bottom"/>
  <anchor x="133" y="320" name="center"/>
  <anchor x="255" y="320" name="dot"/>
  <anchor x="184" y="705" name="top"/>
  <anchor x="255" y="705" name="topright"/>
  <outline>
    <contour>
      <point x="182" y="-8" type="curve" smooth="yes"/>
      <point x="196" y="-8"/>
      <point x="212" y="-6"/>
      <point x="231" y="-2" type="curve"/>
      <point x="240" y="37" type="line"/>
      <point x="224" y="33"/>
      <point x="209" y="31"/>
      <point x="192" y="31" type="curve" smooth="yes"/>
      <point x="130" y="31"/>
      <point x="103" y="65"/>
      <point x="117" y="153" type="curve" smooth="yes"/>
      <point x="205" y="705" type="line"/>
      <point x="163" y="705" type="line"/>
      <point x="74" y="146" type="line" smooth="yes"/>
      <point x="59" y="48"/>
      <point x="98" y="-8"/>
    </contour>
  </outline>
</glyph>
<glyph name="n" format="2">
  <advance width="553"/>
  <unicode hex="006E"/>
  <anchor x="243" y="0" name="bottom"/>
  <anchor x="320" y="484" name="top"/>
  <outline>
    <contour>
      <point x="51" y="0" type="line"/>
      <point x="93" y="0" type="line"/>
      <point x="130" y="234" type="line" smooth="yes"/>
      <point x="146" y="336"/>
      <point x="225" y="403"/>
      <point x="327" y="403" type="curve" smooth="yes"/>
      <point x="418" y="403"/>
      <point x="451" y="359"/>
      <point x="435" y="259" type="curve" smooth="yes"/>
      <point x="394" y="0" type="line"/>
      <point x="436" y="0" type="line"/>
      <point x="477" y="262" type="line" smooth="yes"/>
      <point x="497" y="384"/>
      <point x="448" y="442"/>
      <point x="333" y="442" type="curve" smooth="yes"/>
      <point x="247" y="442"/>
      <point x="169" y="399"/>
      <point x="131" y="322" type="curve"/>
      <point x="143" y="322" type="line"/>
      <point x="161" y="434" type="line"/>
      <point x="120" y="434" type="line"/>
    </contour>
  </outline>
</glyph>
<glyph name="o" format="2">
  <advance width="538"/>
  <unicode hex="006F"/>
  <anchor x="235" y="0" name="bottom"/>
  <anchor x="269" y="217" name="center"/>
  <anchor x="294" y="0" name="ogonek"/>
  <anchor x="312" y="484" name="top"/>
  <anchor x="350" y="434" name="topright"/>
  <outline>
    <contour>
      <point x="239" y="-8" type="curve" smooth="yes"/>
      <point x="365" y="-8"/>
      <point x="464" y="77"/>
      <point x="485" y="212" type="curve" smooth="yes"/>
      <point x="506" y="350"/>
      <point x="436" y="442"/>
      <point x="300" y="442" type="curve" smooth="yes"/>
      <point x="175" y="442"/>
      <point x="75" y="357"/>
      <point x="54" y="223" type="curve" smooth="yes"/>
      <point x="33" y="84"/>
      <point x="104" y="-8"/>
    </contour>
    <contour>
      <point x="240" y="31" type="curve" smooth="yes"/>
      <point x="134" y="31"/>
      <point x="78" y="101"/>
      <point x="97" y="223" type="curve" smooth="yes"/>
      <point x="115" y="334"/>
      <point x="193" y="403"/>
      <point x="299" y="403" type="curve" smooth="yes"/>
      <point x="406" y="403"/>
      <point x="461" y="334"/>
      <point x="442" y="212" type="curve" smooth="yes"/>
      <point x="424" y="101"/>
      <point x="347" y="31"/>
    </contour>
  </outline>
</glyph>
<glyph name="p" format="2">
  <advance width="568"/>
  <unicode hex="0070"/>
  <anchor x="248" y="0" name="bottom"/>
  <anchor x="325" y="484" name="top"/>
  <outline>
    <contour>
      <point x="22" y="-180" type="line"/>
      <point x="64" y="-180" type="line"/>
      <point x="111" y="111" type="line"/>
      <point x="103" y="111" type="line"/>
      <point x="112" y="39"/>
      <point x="173" y="-8"/>
      <point x="270" y="-8" type="curve" smooth="yes"/>
      <point x="395" y="-8"/>
      <point x="494" y="79"/>
      <point x="515" y="212" type="curve" smooth="yes"/>
      <point x="536" y="351"/>
      <point x="466" y="442"/>
      <point x="331" y="442" type="curve" smooth="yes"/>
      <point x="244" y="442"/>
      <point x="167" y="395"/>
      <point x="134" y="323" type="curve"/>
      <point x="144" y="323" type="line"/>
      <point x="162" y="434" type="line"/>
      <point x="120" y="434" type="line"/>
    </contour>
    <contour>
      <point x="270" y="31" type="curve" smooth="yes"/>
      <point x="164" y="31"/>
      <point x="108" y="101"/>
      <point x="126" y="217" type="curve" smooth="yes"/>
      <point x="145" y="334"/>
      <point x="223" y="403"/>
      <point x="329" y="403" type="curve" smooth="yes"/>
      <point x="436" y="403"/>
      <point x="491" y="334"/>
      <point x="472" y="212" type="curve" smooth="yes"/>
      <point x="454" y="101"/>
      <point x="377" y="31"/>
    </contour>
  </outline>
</glyph>
<glyph name="q" format="2">
  <advance width="568"/>
  <unicode hex="0071"/>
  <anchor x="248" y="0" name="bottom"/>
  <anchor x="325" y="484" name="top"/>
  <outline>
    <contour>
      <point x="378" y="-180" type="line"/>
      <point x="420" y="-180" type="line"/>
      <point x="518" y="434" type="line"/>
      <point x="477" y="434" type="line"/>
      <point x="459" y="323" type="line"/>
      <point x="467" y="323" type="line"/>
      <point x="458" y="395"/>
      <point x="397" y="442"/>
      <point x="299" y="442" type="curve" smooth="yes"/>
      <point x="175" y="442"/>
      <point x="75" y="356"/>
      <point x="54" y="222" type="curve" smooth="yes"/>
      <point x="33" y="84"/>
      <point x="103" y="-8"/>
      <point x="238" y="-8" type="curve" smooth="yes"/>
      <point x="326" y="-8"/>
      <point x="403" y="39"/>
      <point x="436" y="111" type="curve"/>
      <point x="425" y="111" type="line"/>
    </contour>
    <contour>
      <point x="240" y="31" type="curve" smooth="yes"/>
      <point x="134" y="31"/>
      <point x="78" y="101"/>
      <point x="97" y="222" type="curve" smooth="yes"/>
      <point x="115" y="334"/>
      <point x="193" y="403"/>
      <point x="299" y="403" type="curve" smooth="yes"/>
      <point x="406" y="403"/>
      <point x="461" y="334"/>
      <point x="442" y="217" type="curve" smooth="yes"/>
      <point x="424" y="101"/>
      <point x="347" y="31"/>
    </contour>
  </outline>
</glyph>
<glyph name="s" format="2">
  <advance width="475"/>
  <unicode hex="0073"/>
  <anchor x="202" y="0" name="bottom"/>
  <anchor x="289" y="484" name="top"/>
  <outline>
    <contour>
      <point x="205" y="-8" type="curve" smooth="yes"/>
      <point x="317" y="-8"/>
      <point x="389" y="39"/>
      <point x="399" y="104" type="curve" smooth="yes"/>
      <point x="410" y="171"/>
      <point x="378" y="206"/>
      <point x="294" y="224" type="curve" smooth="yes"/>
      <point x="203" y="243" type="line" smooth="yes"/>
      <point x="149" y="255"/>
      <point x="127" y="279"/>
      <point x="134" y="324" type="curve" smooth="yes"/>
      <point x="141" y="367"/>
      <point x="187" y="404"/>
      <point x="276" y="404" type="curve" smooth="yes"/>
      <point x="329" y="404"/>
      <point x="376" y="387"/>
      <point x="412" y="350" type="curve"/>
      <point x="437" y="382" type="line"/>
      <point x="403" y="420"/>
      <point x="344" y="442"/>
      <point x="279" y="442" type="curve" smooth="yes"/>
      <point x="167" y="442"/>
      <point x="102" y="389"/>
      <point x="92" y="327" type="curve" smooth="yes"/>
      <point x="81" y="259"/>
      <point x="112" y="222"/>
      <point x="188" y="205" type="curve" smooth="yes"/>
      <point x="279" y="185" type="line" smooth="yes"/>
      <point x="339" y="172"/>
      <point x="363" y="151"/>
      <point x="356" y="107" type="curve" smooth="yes"/>
      <point x="349" y="61"/>
      <point x="298" y="31"/>
      <point x="210" y="31" type="curve" smooth="yes"/>
      <point x="152" y="31"/>
      <point x="98" y="46"/>
      <point x="55" y="82" type="curve"/>
      <point x="31" y="50" type="line"/>
      <point x="69" y="13"/>
      <point x="138" y="-8"/>
    </contour>
  </outline>
</glyph>
<glyph name="t" format="2">
  <advance width="320"/>
  <unicode hex="0074"/>
  <anchor x="169" y="0" name="bottom"/>
  <anchor x="155" y="243" name="center"/>
  <anchor x="185" y="600" name="top"/>
  <anchor x="303" y="705" name="topright"/>
  <outline>
    <contour>
      <point x="220" y="-8" type="curve" smooth="yes"/>
      <point x="247" y="-8"/>
      <point x="284" y="1"/>
      <point x="297" y="9" type="curve"/>
      <point x="293" y="44" type="line"/>
      <point x="277" y="37"/>
      <point x="253" y="31"/>
      <point x="229" y="31" type="curve" smooth="yes"/>
      <point x="148" y="31"/>
      <point x="122" y="68"/>
      <point x="137" y="165" type="curve" smooth="yes"/>
      <point x="174" y="398" type="line"/>
      <point x="333" y="398" type="line"/>
      <point x="339" y="434" type="line"/>
      <point x="180" y="434" type="line"/>
      <point x="206" y="600" type="line"/>
      <point x="164" y="600" type="line"/>
      <point x="138" y="434" type="line"/>
      <point x="41" y="434" type="line"/>
      <point x="35" y="398" type="line"/>
      <point x="132" y="398" type="line"/>
      <point x="94" y="156" type="line" smooth="yes"/>
      <point x="77" y="52"/>
      <point x="119" y="-8"/>
    </contour>
  </outline>
</glyph>
<glyph name="u" format="2">
  <advance width="545"/>
  <unicode hex="0075"/>
  <anchor x="239" y="0" name="bottom"/>
  <anchor x="426" y="0" name="ogonek"/>
  <anchor x="316" y="485" name="top"/>
  <anchor x="455" y="434" name="topright"/>
  <outline>
    <contour>
      <point x="220" y="-8" type="curve" smooth="yes"/>
      <point x="303" y="-8"/>
      <point x="380" y="37"/>
      <point x="416" y="114" type="curve"/>
      <point x="403" y="114" type="line"/>
      <point x="385" y="0" type="line"/>
      <point x="426" y="0" type="line"/>
      <point x="495" y="434" type="line"/>
      <point x="453" y="434" type="line"/>
      <point x="416" y="201" type="line" smooth="yes"/>
      <point x="400" y="99"/>
      <point x="323" y="31"/>
      <point x="227" y="31" type="curve" smooth="yes"/>
      <point x="143" y="31"/>
      <point x="103" y="76"/>
      <point x="119" y="176" type="curve" smooth="yes"/>
      <point x="160" y="434" type="line"/>
      <point x="118" y="434" type="line"/>
      <point x="76" y="173" type="line" smooth="yes"/>
      <point x="57" y="53"/>
      <point x="117" y="-8"/>
    </contour>
  </outline>
</glyph>
<glyph name="v" format="2">
  <advance width="504"/>
  <unicode hex="0076"/>
  <anchor x="218" y="0" name="bottom"/>
  <anchor x="295" y="484" name="top"/>
  <outline>
    <contour>
      <point x="195" y="0" type="line"/>
      <point x="241" y="0" type="line"/>
      <point x="516" y="434" type="line"/>
      <point x="467" y="434" type="line"/>
      <point x="209" y="20" type="line"/>
      <point x="229" y="20" type="line"/>
      <point x="104" y="434" type="line"/>
      <point x="58" y="434" type="line"/>
    </contour>
  </outline>
</glyph>
<glyph name="w" format="2">
  <advance width="830"/>
  <unicode hex="0077"/>
  <anchor x="381" y="0" name="bottom"/>
  <anchor x="458" y="484" name="top"/>
  <outline>
    <contour>
      <point x="176" y="0" type="line"/>
      <point x="225" y="0" type="line"/>
      <point x="464" y="422" type="line"/>
      <point x="435" y="422" type="line"/>
      <point x="537" y="0" type="line"/>
      <point x="585" y="0" type="line"/>
      <point x="826" y="434" type="line"/>
      <point x="780" y="434" type="line"/>
      <point x="551" y="19" type="line"/>
      <point x="571" y="19" type="line"/>
      <point x="474" y="434" type="line"/>
      <point x="425" y="434" type="line"/>
      <point x="192" y="19" type="line"/>
      <point x="213" y="19" type="line"/>
      <point x="119" y="434" type="line"/>
      <point x="75" y="434" type="line"/>
    </contour>
  </outline>
</glyph>
<glyph name="x" format="2">
  <advance width="506"/>
  <unicode hex="0078"/>
  <anchor x="219" y="0" name="bottom"/>
  <anchor x="296" y="484" name="top"/>
  <outline>
    <contour>
      <point x="-7" y="0" type="line"/>
      <point x="48" y="0" type="line"/>
      <point x="261" y="204" type="line"/>
      <point x="241" y="204" type="line"/>
      <point x="390" y="0" type="line"/>
      <point x="441" y="0" type="line"/>
      <point x="271" y="232" type="line"/>
      <point x="271" y="215" type="line"/>
      <point x="502" y="434" type="line"/>
      <point x="447" y="434" type="line"/>
      <point x="247" y="243" type="line"/>
      <point x="264" y="243" type="line"/>
      <point x="125" y="434" type="line"/>
      <point x="75" y="434" type="line"/>
      <point x="238" y="212" type="line"/>
      <point x="238" y="235" type="line"/>
    </contour>
  </outline>
</glyph>
<glyph name="y" format="2">
  <advance width="504"/>
  <unicode hex="0079"/>
  <anchor x="337" y="0" name="bottom"/>
  <anchor x="295" y="484" name="top"/>
  <outline>
    <contour>
      <point x="78" y="-180" type="line"/>
      <point x="125" y="-180" type="line"/>
      <point x="517" y="434" type="line"/>
      <point x="468" y="434" type="line"/>
      <point x="209" y="20" type="line"/>
      <point x="229" y="20" type="line"/>
      <point x="104" y="434" type="line"/>
      <point x="58" y="434" type="line"/>
      <point x="198" y="-11" type="line"/>
      <point x="199" y="9" type="line"/>
    </contour>
  </outline>
</glyph>
<glyph name="z" format="2">
  <advance width="454"/>
  <unicode hex="007A"/>
  <anchor x="201" y="0" name="bottom"/>
  <anchor x="278" y="484" name="top"/>
  <outline>
    <contour>
      <point x="26" y="0" type="line"/>
      <point x="387" y="0" type="line"/>
      <point x="393" y="36" type="line"/>
      <point x="76" y="36" type="line"/>
      <point x="74" y="23" type="line"/>
      <point x="440" y="404" type="line"/>
      <point x="445" y="434" type="line"/>
      <point x="95" y="434" type="line"/>
      <point x="89" y="398" type="line"/>
      <point x="395" y="398" type="line"/>
      <point x="397" y="411" type="line"/>
      <point x="31" y="31" type="line"/>
    </contour>
  </outline>
</glyph>
<glyph name="braceleft" format="2">
  <advance width="318"/>
  <unicode hex="007B"/>
  <outline>
    <contour>
      <point x="168" y="-180" type="curve" smooth="yes"/>
      <point x="251" y="-180" type="line"/>
      <point x="257" y="-143" type="line"/>
      <point x="179" y="-143" type="line" smooth="yes"/>
      <point x="149" y="-143"/>
      <point x="137" y="-128"/>
      <point x="142" y="-97" type="curve" smooth="yes"/>
      <point x="183" y="165" type="line" smooth="yes"/>
      <point x="192" y="224"/>
      <point x="164" y="265"/>
      <point x="113" y="265" type="curve"/>
      <point x="112" y="261" type="line"/>
      <point x="163" y="261"/>
      <point x="205" y="302"/>
      <point x="214" y="361" type="curve" smooth="yes"/>
      <point x="256" y="622" type="line" smooth="yes"/>
      <point x="260" y="653"/>
      <point x="278" y="668"/>
      <point x="308" y="668" type="curve" smooth="yes"/>
      <point x="386" y="668" type="line"/>
      <point x="392" y="705" type="line"/>
      <point x="309" y="705" type="line" smooth="yes"/>
      <point x="255" y="705"/>
      <point x="222" y="676"/>
      <point x="213" y="620" type="curve" smooth="yes"/>
      <point x="173" y="364" type="line" smooth="yes"/>
      <point x="164" y="308"/>
      <point x="139" y="285"/>
      <point x="84" y="282" type="curve" smooth="yes"/>
      <point x="65" y="281" type="line"/>
      <point x="59" y="245" type="line"/>
      <point x="78" y="244" type="line" smooth="yes"/>
      <point x="132" y="241"/>
      <point x="150" y="218"/>
      <point x="141" y="162" type="curve" smooth="yes"/>
      <point x="100" y="-95" type="line" smooth="yes"/>
      <point x="91" y="-151"/>
      <point x="114" y="-180"/>
    </contour>
  </outline>
</glyph>
<glyph name="braceright" format="2">
  <advance width="318"/>
  <unicode hex="007D"/>
  <outline>
    <contour>
      <point x="-59" y="-180" type="line"/>
      <point x="24" y="-180" type="line" smooth="yes"/>
      <point x="78" y="-180"/>
      <point x="111" y="-150"/>
      <point x="120" y="-95" type="curve" smooth="yes"/>
      <point x="161" y="162" type="line" smooth="yes"/>
      <point x="170" y="219"/>
      <point x="194" y="242"/>
      <point x="250" y="244" type="curve" smooth="yes"/>
      <point x="269" y="245" type="line"/>
      <point x="275" y="281" type="line"/>
      <point x="256" y="282" type="line" smooth="yes"/>
      <point x="201" y="285"/>
      <point x="184" y="307"/>
      <point x="193" y="364" type="curve" smooth="yes"/>
      <point x="233" y="620" type="line" smooth="yes"/>
      <point x="242" y="675"/>
      <point x="219" y="705"/>
      <point x="165" y="705" type="curve" smooth="yes"/>
      <point x="82" y="705" type="line"/>
      <point x="76" y="668" type="line"/>
      <point x="154" y="668" type="line" smooth="yes"/>
      <point x="184" y="668"/>
      <point x="196" y="653"/>
      <point x="192" y="622" type="curve" smooth="yes"/>
      <point x="150" y="361" type="line" smooth="yes"/>
      <point x="141" y="302"/>
      <point x="169" y="261"/>
      <point x="220" y="261" type="curve"/>
      <point x="221" y="265" type="line"/>
      <point x="170" y="265"/>
      <point x="128" y="224"/>
      <point x="119" y="165" type="curve" smooth="yes"/>
      <point x="78" y="-97" type="line" smooth="yes"/>
      <point x="73" y="-128"/>
      <point x="55" y="-143"/>
      <point x="25" y="-143" type="curve" smooth="yes"/>
      <point x="-53" y="-143" type="line"/>
    </contour>
  </outline>
</glyph>
<glyph name="exclamdown" format="2">
  <advance width="211"/>
  <unicode hex="00A1"/>
  <outline>
    <contour>
      <point x="16" y="-180" type="line"/>
      <point x="69" y="-180" type="line"/>
      <point x="128" y="273" type="line"/>
      <point x="101" y="273" type="line"/>
    </contour>
    <contour>
      <point x="95" y="364" type="line"/>
      <point x="164" y="364" type="line"/>
      <point x="175" y="434" type="line"/>
      <point x="106" y="434" type="line"/>
    </contour>
  </outline>
</glyph>
<glyph name="cent" format="2">
  <advance width="600"/>
  <unicode hex="00A2"/>
  <outline>
    <contour>
      <point x="238" y="-115" type="line"/>
      <point x="278" y="-115" type="line"/>
      <point x="298" y="8" type="line"/>
      <point x="286" y="-5" type="line"/>
      <point x="335" y="-11"/>
      <point x="414" y="7"/>
      <point x="463" y="55" type="curve"/>
      <point x="444" y="89" type="line"/>
      <point x="403" y="50"/>
      <point x="352" y="33"/>
      <point x="308" y="33" type="curve" smooth="yes"/>
      <point x="191" y="33"/>
      <point x="146" y="100"/>
      <point x="146" y="202" type="curve" smooth="yes"/>
      <point x="146" y="323"/>
      <point x="204" y="451"/>
      <point x="353" y="451" type="curve" smooth="yes"/>
      <point x="411" y="451"/>
      <point x="455" y="433"/>
      <point x="492" y="394" type="curve"/>
      <point x="513" y="426" type="line"/>
      <point x="482" y="462"/>
      <point x="426" y="487"/>
      <point x="365" y="490" type="curve"/>
      <point x="370" y="468" type="line"/>
      <point x="392" y="604" type="line"/>
      <point x="352" y="604" type="line"/>
      <point x="330" y="468" type="line"/>
      <point x="343" y="490" type="line"/>
      <point x="171" y="482"/>
      <point x="103" y="338"/>
      <point x="103" y="202" type="curve" smooth="yes"/>
      <point x="103" y="93"/>
      <point x="152" y="13"/>
      <point x="263" y="-3" type="curve"/>
      <point x="258" y="8" type="line"/>
    </contour>
  </outline>
</glyph>
<glyph name="sterling" format="2">
  <advance width="600"/>
  <unicode hex="00A3"/>
  <outline>
    <contour>
      <point x="18" y="0" type="line"/>
      <point x="512" y="0" type="line"/>
      <point x="518" y="39" type="line"/>
      <point x="176" y="39" type="line"/>
      <point x="223" y="335" type="line"/>
      <point x="415" y="335" type="line"/>
      <point x="421" y="371" type="line"/>
      <point x="229" y="371" type="line"/>
      <point x="253" y="524" type="line" smooth="yes"/>
      <point x="268" y="622"/>
      <point x="328" y="672"/>
      <point x="426" y="672" type="curve" smooth="yes"/>
      <point x="503" y="672"/>
      <point x="556" y="647"/>
      <point x="595" y="593" type="curve"/>
      <point x="618" y="630" type="line"/>
      <point x="582" y="679"/>
      <point x="512" y="713"/>
      <point x="429" y="713" type="curve" smooth="yes"/>
      <point x="298" y="713"/>
      <point x="231" y="646"/>
      <point x="211" y="522" type="curve" smooth="yes"/>
      <point x="187" y="371" type="line"/>
      <point x="76" y="371" type="line"/>
      <point x="70" y="335" type="line"/>
      <point x="181" y="335" type="line"/>
      <point x="134" y="39" type="line"/>
      <point x="24" y="39" type="line"/>
    </contour>
  </outline>
</glyph>
<glyph name="brokenbar" format="2">
  <advance width="244"/>
  <unicode hex="00A6"/>
  <outline>
    <contour>
      <point x="126" y="372" type="line"/>
      <point x="168" y="372" type="line"/>
      <point x="221" y="705" type="line"/>
      <point x="179" y="705" type="line"/>
    </contour>
    <contour>
      <point x="39" y="-180" type="line"/>
      <point x="81" y="-180" type="line"/>
      <point x="134" y="153" type="line"/>
      <point x="92" y="153" type="line"/>
    </contour>
  </outline>
</glyph>
<glyph name="copyright" format="2">
  <advance width="815"/>
  <unicode hex="00A9"/>
  <outline>
    <contour>
      <point x="430" y="-8" type="curve" smooth="yes"/>
      <point x="634" y="-8"/>
      <point x="790" y="149"/>
      <point x="790" y="353" type="curve" smooth="yes"/>
      <point x="790" y="557"/>
      <point x="634" y="713"/>
      <point x="430" y="713" type="curve" smooth="yes"/>
      <point x="225" y="713"/>
      <point x="69" y="557"/>
      <point x="69" y="353" type="curve" smooth="yes"/>
      <point x="69" y="149"/>
      <point x="226" y="-8"/>
    </contour>
    <contour>
      <point x="439" y="137" type="curve" smooth="yes"/>
      <point x="490" y="137"/>
      <point x="546" y="159"/>
      <point x="580" y="194" type="curve"/>
      <point x="562" y="227" type="line"/>
      <point x="523" y="190"/>
      <point x="478" y="175"/>
      <point x="438" y="175" type="curve" smooth="yes"/>
      <point x="339" y="175"/>
      <point x="280" y="245"/>
      <point x="280" y="355" type="curve" smooth="yes"/>
      <point x="280" y="466"/>
      <point x="339" y="530"/>
      <point x="438" y="530" type="curve" smooth="yes"/>
      <point x="478" y="530"/>
      <point x="523" y="516"/>
      <point x="562" y="479" type="curve"/>
      <point x="580" y="511" type="line"/>
      <point x="546" y="546"/>
      <point x="492" y="568"/>
      <point x="439" y="568" type="curve" smooth="yes"/>
      <point x="314" y="568"/>
      <point x="239" y="487"/>
      <point x="239" y="356" type="curve" smooth="yes"/>
      <point x="239" y="225"/>
      <point x="314" y="137"/>
    </contour>
    <contour>
      <point x="430" y="28" type="curve" smooth="yes"/>
      <point x="247" y="28"/>
      <point x="106" y="169"/>
      <point x="106" y="353" type="curve" smooth="yes"/>
      <point x="106" y="537"/>
      <point x="247" y="677"/>
      <point x="430" y="677" type="curve" smooth="yes"/>
      <point x="612" y="677"/>
      <point x="753" y="537"/>
      <point x="753" y="353" type="curve" smooth="yes"/>
      <point x="753" y="169"/>
      <point x="612" y="28"/>
    </contour>
  </outline>
</glyph>
<glyph name="logicalnot" format="2">
  <advance width="600"/>
  <unicode hex="00AC"/>
  <outline>
    <contour>
      <point x="495" y="157" type="line"/>
      <point x="535" y="157" type="line"/>
      <point x="575" y="409" type="line"/>
      <point x="87" y="409" type="line"/>
      <point x="81" y="370" type="line"/>
      <point x="529" y="370" type="line"/>
    </contour>
  </outline>
</glyph>
<glyph name="registered" format="2">
  <advance width="815"/>
  <unicode hex="00AE"/>
  <outline>
    <contour>
      <point x="430" y="-8" type="curve" smooth="yes"/>
      <point x="634" y="-8"/>
      <point x="790" y="149"/>
      <point x="790" y="353" type="curve" smooth="yes"/>
      <point x="790" y="557"/>
      <point x="634" y="713"/>
      <point x="430" y="713" type="curve" smooth="yes"/>
      <point x="225" y="713"/>
      <point x="69" y="557"/>
      <point x="69" y="353" type="curve" smooth="yes"/>
      <point x="69" y="149"/>
      <point x="226" y="-8"/>
    </contour>
    <contour>
      <point x="430" y="28" type="curve" smooth="yes"/>
      <point x="247" y="28"/>
      <point x="106" y="169"/>
      <point x="106" y="353" type="curve" smooth="yes"/>
      <point x="106" y="537"/>
      <point x="247" y="677"/>
      <point x="430" y="677" type="curve" smooth="yes"/>
      <point x="612" y="677"/>
      <point x="753" y="537"/>
      <point x="753" y="353" type="curve" smooth="yes"/>
      <point x="753" y="169"/>
      <point x="612" y="28"/>
    </contour>
    <contour>
      <point x="295" y="142" type="line"/>
      <point x="336" y="142" type="line"/>
      <point x="336" y="332" type="line"/>
      <point x="325" y="323" type="line"/>
      <point x="413" y="323" type="line" smooth="yes"/>
      <point x="454" y="323"/>
      <point x="483" y="313"/>
      <point x="499" y="276" type="curve" smooth="yes"/>
      <point x="555" y="142" type="line"/>
      <point x="598" y="142" type="line"/>
      <point x="541" y="281" type="line" smooth="yes"/>
      <point x="525" y="320"/>
      <point x="497" y="334"/>
      <point x="459" y="334" type="curve"/>
      <point x="456" y="325" type="line"/>
      <point x="543" y="325"/>
      <point x="592" y="367"/>
      <point x="592" y="443" type="curve" smooth="yes"/>
      <point x="592" y="520"/>
      <point x="544" y="563"/>
      <point x="457" y="563" type="curve" smooth="yes"/>
      <point x="295" y="563" type="line"/>
    </contour>
    <contour>
      <point x="336" y="360" type="line"/>
      <point x="336" y="526" type="line"/>
      <point x="452" y="526" type="line" smooth="yes"/>
      <point x="520" y="526"/>
      <point x="551" y="499"/>
      <point x="551" y="443" type="curve" smooth="yes"/>
      <point x="551" y="386"/>
      <point x="519" y="360"/>
      <point x="452" y="360" type="curve" smooth="yes"/>
    </contour>
  </outline>
</glyph>
<glyph name="paragraph" format="2">
  <advance width="556"/>
  <unicode hex="00B6"/>
  <outline>
    <contour>
      <point x="178" y="-180" type="line"/>
      <point x="220" y="-180" type="line"/>
      <point x="354" y="667" type="line"/>
      <point x="491" y="667" type="line"/>
      <point x="357" y="-180" type="line"/>
      <point x="399" y="-180" type="line"/>
      <point x="539" y="705" type="line"/>
      <point x="312" y="705" type="line" smooth="yes"/>
      <point x="188" y="705"/>
      <point x="100" y="618"/>
      <point x="100" y="494" type="curve" smooth="yes"/>
      <point x="100" y="406"/>
      <point x="159" y="335"/>
      <point x="259" y="335" type="curve"/>
    </contour>
  </outline>
</glyph>
<glyph name="periodcentered" format="2">
  <advance width="211"/>
  <unicode hex="00B7"/>
  <outline>
    <contour>
      <point x="69" y="205" type="line"/>
      <point x="138" y="205" type="line"/>
      <point x="150" y="275" type="line"/>
      <point x="81" y="275" type="line"/>
    </contour>
  </outline>
</glyph>
<glyph name="ordmasculine" format="2">
  <advance width="326"/>
  <unicode hex="00BA"/>
  <outline>
    <contour>
      <point x="211" y="413" type="curve" smooth="yes"/>
      <point x="290" y="413"/>
      <point x="354" y="476"/>
      <point x="354" y="576" type="curve" smooth="yes"/>
      <point x="354" y="659"/>
      <point x="301" y="713"/>
      <point x="225" y="713" type="curve" smooth="yes"/>
      <point x="146" y="713"/>
      <point x="82" y="650"/>
      <point x="82" y="550" type="curve" smooth="yes"/>
      <point x="82" y="467"/>
      <point x="135" y="413"/>
    </contour>
    <contour>
      <point x="212" y="444" type="curve" smooth="yes"/>
      <point x="155" y="444"/>
      <point x="118" y="482"/>
      <point x="118" y="549" type="curve" smooth="yes"/>
      <point x="118" y="634"/>
      <point x="161" y="682"/>
      <point x="224" y="682" type="curve" smooth="yes"/>
      <point x="281" y="682"/>
      <point x="318" y="644"/>
      <point x="318" y="577" type="curve" smooth="yes"/>
      <point x="318" y="492"/>
      <point x="275" y="444"/>
    </contour>
  </outline>
</glyph>
<glyph name="multiply" format="2">
  <advance width="600"/>
  <unicode hex="00D7"/>
  <outline>
    <contour>
      <point x="97" y="49" type="line"/>
      <point x="321" y="255" type="line"/>
      <point x="509" y="49" type="line"/>
      <point x="537" y="77" type="line"/>
      <point x="351" y="282" type="line"/>
      <point x="577" y="490" type="line"/>
      <point x="549" y="518" type="line"/>
      <point x="325" y="312" type="line"/>
      <point x="137" y="518" type="line"/>
      <point x="109" y="490" type="line"/>
      <point x="295" y="286" type="line"/>
      <point x="69" y="77" type="line"/>
    </contour>
  </outline>
</glyph>
<glyph name="Thorn" format="2">
  <advance width="616"/>
  <unicode hex="00DE"/>
  <anchor x="281" y="0" name="bottom"/>
  <anchor x="393" y="705" name="top"/>
  <outline>
    <contour>
      <point x="62" y="0" type="line"/>
      <point x="104" y="0" type="line"/>
      <point x="130" y="162" type="line"/>
      <point x="352" y="162" type="line" smooth="yes"/>
      <point x="515" y="162"/>
      <point x="603" y="251"/>
      <point x="603" y="386" type="curve" smooth="yes"/>
      <point x="603" y="510"/>
      <point x="522" y="570"/>
      <point x="389" y="570" type="curve" smooth="yes"/>
      <point x="195" y="570" type="line"/>
      <point x="216" y="705" type="line"/>
      <point x="174" y="705" type="line"/>
    </contour>
    <contour>
      <point x="136" y="201" type="line"/>
      <point x="188" y="531" type="line"/>
      <point x="389" y="531" type="line" smooth="yes"/>
      <point x="500" y="531"/>
      <point x="559" y="486"/>
      <point x="559" y="385" type="curve" smooth="yes"/>
      <point x="559" y="265"/>
      <point x="488" y="201"/>
      <point x="356" y="201" type="curve" smooth="yes"/>
    </contour>
  </outline>
</glyph>
<glyph name="germandbls" format="2">
  <advance width="581"/>
  <unicode hex="00DF"/>
  <outline>
    <contour>
      <point x="342" y="-8" type="curve" smooth="yes"/>
      <point x="446" y="-8"/>
      <point x="517" y="40"/>
      <point x="527" y="105" type="curve" smooth="yes"/>
      <point x="539" y="178"/>
      <point x="505" y="209"/>
      <point x="398" y="239" type="curve" smooth="yes"/>
      <point x="318" y="262"/>
      <point x="295" y="289"/>
      <point x="302" y="333" type="curve" smooth="yes"/>
      <point x="306" y="362"/>
      <point x="323" y="387"/>
      <point x="372" y="431" type="curve" smooth="yes"/>
      <point x="445" y="499"/>
      <point x="472" y="534"/>
      <point x="480" y="584" type="curve" smooth="yes"/>
      <point x="492" y="665"/>
      <point x="442" y="713"/>
      <point x="349" y="713" type="curve" smooth="yes"/>
      <point x="233" y="713"/>
      <point x="153" y="642"/>
      <point x="132" y="509" type="curve" smooth="yes"/>
      <point x="51" y="0" type="line"/>
      <point x="93" y="0" type="line"/>
      <point x="173" y="508" type="line" smooth="yes"/>
      <point x="190" y="614"/>
      <point x="253" y="675"/>
      <point x="348" y="675" type="curve" smooth="yes"/>
      <point x="413" y="675"/>
      <point x="445" y="642"/>
      <point x="436" y="586" type="curve" smooth="yes"/>
      <point x="429" y="543"/>
      <point x="406" y="512"/>
      <point x="348" y="458" type="curve" smooth="yes"/>
      <point x="286" y="403"/>
      <point x="263" y="369"/>
      <point x="258" y="339" type="curve" smooth="yes"/>
      <point x="247" y="266"/>
      <point x="280" y="231"/>
      <point x="381" y="202" type="curve" smooth="yes"/>
      <point x="466" y="178"/>
      <point x="493" y="156"/>
      <point x="486" y="112" type="curve" smooth="yes"/>
      <point x="478" y="62"/>
      <point x="426" y="31"/>
      <point x="342" y="31" type="curve" smooth="yes"/>
      <point x="289" y="31"/>
      <point x="236" y="47"/>
      <point x="193" y="82" type="curve"/>
      <point x="170" y="50" type="line"/>
      <point x="204" y="16"/>
      <point x="275" y="-8"/>
    </contour>
  </outline>
</glyph>
<glyph name="ae" format="2">
  <advance width="857"/>
  <unicode hex="00E6"/>
  <anchor x="382" y="0" name="bottom"/>
  <anchor x="459" y="484" name="top"/>
  <outline>
    <contour>
      <point x="197" y="-8" type="curve" smooth="yes"/>
      <point x="298" y="-8"/>
      <point x="380" y="50"/>
      <point x="409" y="142" type="curve"/>
      <point x="392" y="142" type="line"/>
      <point x="403" y="47"/>
      <point x="474" y="-8"/>
      <point x="590" y="-8" type="curve" smooth="yes"/>
      <point x="653" y="-8"/>
      <point x="725" y="15"/>
      <point x="776" y="55" type="curve"/>
      <point x="760" y="88" type="line"/>
      <point x="702" y="47"/>
      <point x="650" y="31"/>
      <point x="593" y="31" type="curve" smooth="yes"/>
      <point x="473" y="31"/>
      <point x="419" y="100"/>
      <point x="437" y="217" type="curve" smooth="yes"/>
      <point x="438" y="223" type="line" smooth="yes"/>
      <point x="455" y="331"/>
      <point x="532" y="405"/>
      <point x="643" y="405" type="curve" smooth="yes"/>
      <point x="746" y="405"/>
      <point x="790" y="341"/>
      <point x="774" y="237" type="curve"/>
      <point x="791" y="247" type="line"/>
      <point x="433" y="247" type="line"/>
      <point x="427" y="211" type="line"/>
      <point x="808" y="211" type="line"/>
      <point x="812" y="231" type="line" smooth="yes"/>
      <point x="833" y="364"/>
      <point x="772" y="442"/>
      <point x="651" y="442" type="curve" smooth="yes"/>
      <point x="558" y="442"/>
      <point x="479" y="399"/>
      <point x="432" y="321" type="curve"/>
      <point x="448" y="321" type="line"/>
      <point x="445" y="398"/>
      <point x="407" y="442"/>
      <point x="306" y="442" type="curve" smooth="yes"/>
      <point x="239" y="442"/>
      <point x="167" y="423"/>
      <point x="110" y="386" type="curve"/>
      <point x="124" y="350" type="line"/>
      <point x="187" y="388"/>
      <point x="240" y="403"/>
      <point x="302" y="403" type="curve" smooth="yes"/>
      <point x="387" y="403"/>
      <point x="417" y="361"/>
      <point x="404" y="275" type="curve" smooth="yes"/>
      <point x="390" y="187" type="line" smooth="yes"/>
      <point x="376" y="98"/>
      <point x="302" y="30"/>
      <point x="206" y="30" type="curve" smooth="yes"/>
      <point x="128" y="30"/>
      <point x="87" y="68"/>
      <point x="96" y="127" type="curve" smooth="yes"/>
      <point x="106" y="190"/>
      <point x="154" y="211"/>
      <point x="340" y="211" type="curve" smooth="yes"/>
      <point x="404" y="211" type="line"/>
      <point x="410" y="247" type="line"/>
      <point x="343" y="247" type="line" smooth="yes"/>
      <point x="131" y="247"/>
      <point x="64" y="215"/>
      <point x="50" y="127" type="curve" smooth="yes"/>
      <point x="38" y="50"/>
      <point x="97" y="-8"/>
    </contour>
  </outline>
</glyph>
<glyph name="eth" format="2">
  <advance width="541"/>
  <unicode hex="00F0"/>
  <outline>
    <contour>
      <point x="237" y="-8" type="curve" smooth="yes"/>
      <point x="374" y="-8"/>
      <point x="466" y="68"/>
      <point x="496" y="263" type="curve" smooth="yes"/>
      <point x="520" y="422"/>
      <point x="492" y="551"/>
      <point x="397" y="631" type="curve"/>
      <point x="397" y="622" type="line"/>
      <point x="514" y="678" type="line"/>
      <point x="498" y="709" type="line"/>
      <point x="365" y="645" type="line"/>
      <point x="379" y="645" type="line"/>
      <point x="343" y="671"/>
      <point x="298" y="693"/>
      <point x="243" y="710" type="curve"/>
      <point x="226" y="677" type="line"/>
      <point x="271" y="663"/>
      <point x="308" y="646"/>
      <point x="341" y="624" type="curve"/>
      <point x="340" y="633" type="line"/>
      <point x="186" y="557" type="line"/>
      <point x="201" y="526" type="line"/>
      <point x="379" y="613" type="line"/>
      <point x="359" y="611" type="line"/>
      <point x="451" y="539"/>
      <point x="481" y="428"/>
      <point x="456" y="272" type="curve"/>
      <point x="474" y="272" type="line"/>
      <point x="466" y="372"/>
      <point x="402" y="423"/>
      <point x="300" y="423" type="curve" smooth="yes"/>
      <point x="170" y="423"/>
      <point x="73" y="339"/>
      <point x="53" y="213" type="curve" smooth="yes"/>
      <point x="31" y="77"/>
      <point x="104" y="-8"/>
    </contour>
    <contour>
      <point x="240" y="31" type="curve" smooth="yes"/>
      <point x="132" y="31"/>
      <point x="77" y="96"/>
      <point x="95" y="213" type="curve" smooth="yes"/>
      <point x="112" y="318"/>
      <point x="189" y="384"/>
      <point x="296" y="384" type="curve" smooth="yes"/>
      <point x="404" y="384"/>
      <point x="458" y="318"/>
      <point x="441" y="208" type="curve" smooth="yes"/>
      <point x="424" y="98"/>
      <point x="347" y="31"/>
    </contour>
  </outline>
</glyph>
<glyph name="divide" format="2">
  <advance width="600"/>
  <unicode hex="00F7"/>
  <outline>
    <contour>
      <point x="64" y="267" type="line"/>
      <point x="552" y="267" type="line"/>
      <point x="558" y="306" type="line"/>
      <point x="70" y="306" type="line"/>
    </contour>
    <contour>
      <point x="232" y="51" type="line"/>
      <point x="302" y="51" type="line"/>
      <point x="314" y="121" type="line"/>
      <point x="244" y="121" type="line"/>
    </contour>
    <contour>
      <point x="296" y="452" type="line"/>
      <point x="366" y="452" type="line"/>
      <point x="377" y="522" type="line"/>
      <point x="307" y="522" type="line"/>
    </contour>
  </outline>
</glyph>
<glyph name="dcroat" format="2">
  <advance width="568"/>
  <unicode hex="0111"/>
  <outline>
    <contour>
      <point x="238" y="-8" type="curve" smooth="yes"/>
      <point x="326" y="-8"/>
      <point x="403" y="40"/>
      <point x="436" y="111" type="curve"/>
      <point x="426" y="111" type="line"/>
      <point x="408" y="0" type="line"/>
      <point x="449" y="0" type="line"/>
      <point x="533" y="532" type="line"/>
      <point x="628" y="532" type="line"/>
      <point x="634" y="568" type="line"/>
      <point x="539" y="568" type="line"/>
      <point x="561" y="705" type="line"/>
      <point x="519" y="705" type="line"/>
      <point x="497" y="568" type="line"/>
      <point x="280" y="568" type="line"/>
      <point x="274" y="532" type="line"/>
      <point x="491" y="532" type="line"/>
      <point x="458" y="324" type="line"/>
      <point x="467" y="324" type="line"/>
      <point x="458" y="395"/>
      <point x="397" y="442"/>
      <point x="299" y="442" type="curve" smooth="yes"/>
      <point x="174" y="442"/>
      <point x="75" y="356"/>
      <point x="54" y="222" type="curve" smooth="yes"/>
      <point x="33" y="84"/>
      <point x="104" y="-8"/>
    </contour>
    <contour>
      <point x="240" y="31" type="curve" smooth="yes"/>
      <point x="134" y="31"/>
      <point x="78" y="101"/>
      <point x="97" y="223" type="curve" smooth="yes"/>
      <point x="115" y="334"/>
      <point x="193" y="403"/>
      <point x="299" y="403" type="curve" smooth="yes"/>
      <point x="406" y="403"/>
      <point x="461" y="334"/>
      <point x="442" y="217" type="curve" smooth="yes"/>
      <point x="424" y="101"/>
      <point x="347" y="31"/>
    </contour>
  </outline>
</glyph>
<glyph name="Hbar" format="2">
  <advance width="781"/>
  <unicode hex="0126"/>
  <outline>
    <contour>
      <point x="76" y="0" type="line"/>
      <point x="118" y="0" type="line"/>
      <point x="172" y="338" type="line"/>
      <point x="646" y="338" type="line"/>
      <point x="592" y="0" type="line"/>
      <point x="634" y="0" type="line"/>
      <point x="718" y="527" type="line"/>
      <point x="815" y="527" type="line"/>
      <point x="821" y="565" type="line"/>
      <point x="724" y="565" type="line"/>
      <point x="746" y="705" type="line"/>
      <point x="704" y="705" type="line"/>
      <point x="682" y="565" type="line"/>
      <point x="208" y="565" type="line"/>
      <point x="230" y="705" type="line"/>
      <point x="188" y="705" type="line"/>
      <point x="166" y="565" type="line"/>
      <point x="70" y="565" type="line"/>
      <point x="64" y="527" type="line"/>
      <point x="160" y="527" type="line"/>
    </contour>
    <contour>
      <point x="178" y="377" type="line"/>
      <point x="202" y="527" type="line"/>
      <point x="676" y="527" type="line"/>
      <point x="652" y="377" type="line"/>
    </contour>
  </outline>
</glyph>
<glyph name="hbar" format="2">
  <advance width="553"/>
  <unicode hex="0127"/>
  <outline>
    <contour>
      <point x="51" y="0" type="line"/>
      <point x="93" y="0" type="line"/>
      <point x="130" y="234" type="line" smooth="yes"/>
      <point x="146" y="336"/>
      <point x="225" y="403"/>
      <point x="327" y="403" type="curve" smooth="yes"/>
      <point x="418" y="403"/>
      <point x="451" y="359"/>
      <point x="435" y="259" type="curve" smooth="yes"/>
      <point x="394" y="0" type="line"/>
      <point x="436" y="0" type="line"/>
      <point x="477" y="262" type="line" smooth="yes"/>
      <point x="497" y="383"/>
      <point x="448" y="442"/>
      <point x="333" y="442" type="curve" smooth="yes"/>
      <point x="247" y="442"/>
      <point x="169" y="399"/>
      <point x="131" y="322" type="curve"/>
      <point x="144" y="322" type="line"/>
      <point x="177" y="532" type="line"/>
      <point x="374" y="532" type="line"/>
      <point x="380" y="568" type="line"/>
      <point x="183" y="568" type="line"/>
      <point x="205" y="705" type="line"/>
      <point x="163" y="705" type="line"/>
      <point x="141" y="568" type="line"/>
      <point x="46" y="568" type="line"/>
      <point x="40" y="532" type="line"/>
      <point x="135" y="532" type="line"/>
    </contour>
  </outline>
</glyph>
<glyph name="idotless" format="2">
  <advance width="212"/>
  <unicode hex="0131"/>
  <anchor x="72" y="0" name="bottom"/>
  <anchor x="93" y="0" name="ogonek"/>
  <anchor x="149" y="484" name="top"/>
  <outline>
    <contour>
      <point x="51" y="0" type="line"/>
      <point x="93" y="0" type="line"/>
      <point x="162" y="434" type="line"/>
      <point x="120" y="434" type="line"/>
    </contour>
  </outline>
</glyph>
<glyph name="kgreenlandic" format="2">
  <advance width="468"/>
  <unicode hex="0138"/>
  <anchor x="200" y="0" name="bottom"/>
  <anchor x="277" y="484" name="top"/>
  <outline>
    <contour>
      <point x="51" y="0" type="line"/>
      <point x="93" y="0" type="line"/>
      <point x="127" y="213" type="line"/>
      <point x="129" y="213" type="line"/>
      <point x="374" y="0" type="line"/>
      <point x="432" y="0" type="line"/>
      <point x="160" y="240" type="line"/>
      <point x="162" y="208" type="line"/>
      <point x="473" y="434" type="line"/>
      <point x="410" y="434" type="line"/>
      <point x="132" y="233" type="line"/>
      <point x="130" y="233" type="line"/>
      <point x="162" y="434" type="line"/>
      <point x="120" y="434" type="line"/>
    </contour>
  </outline>
</glyph>
<glyph name="Eng" format="2">
  <advance width="732"/>
  <unicode hex="014A"/>
  <anchor x="331" y="0" name="bottom"/>
  <anchor x="443" y="705" name="top"/>
  <outline>
    <contour>
      <point x="391" y="-193" type="line"/>
      <point x="434" y="-190" type="line" smooth="yes"/>
      <point x="521" y="-184"/>
      <point x="581" y="-129"/>
      <point x="597" y="-26" type="curve" smooth="yes"/>
      <point x="713" y="705" type="line"/>
      <point x="674" y="705" type="line"/>
      <point x="569" y="42" type="line"/>
      <point x="586" y="42" type="line"/>
      <point x="209" y="705" type="line"/>
      <point x="174" y="705" type="line"/>
      <point x="62" y="0" type="line"/>
      <point x="101" y="0" type="line"/>
      <point x="206" y="663" type="line"/>
      <point x="189" y="663" type="line"/>
      <point x="567" y="0" type="line"/>
      <point x="566" y="22" type="line"/>
      <point x="559" y="-22" type="line"/>
      <point x="546" y="-102"/>
      <point x="503" y="-147"/>
      <point x="430" y="-152" type="curve" smooth="yes"/>
      <point x="389" y="-155" type="line"/>
    </contour>
  </outline>
</glyph>
<glyph name="eng" format="2">
  <advance width="553"/>
  <unicode hex="014B"/>
  <outline>
    <contour>
      <point x="220" y="-193" type="line"/>
      <point x="264" y="-190" type="line" smooth="yes"/>
      <point x="355" y="-184"/>
      <point x="416" y="-124"/>
      <point x="433" y="-21" type="curve" smooth="yes"/>
      <point x="477" y="262" type="line" smooth="yes"/>
      <point x="497" y="384"/>
      <point x="448" y="442"/>
      <point x="333" y="442" type="curve" smooth="yes"/>
      <point x="247" y="442"/>
      <point x="170" y="399"/>
      <point x="132" y="322" type="curve"/>
      <point x="143" y="322" type="line"/>
      <point x="161" y="434" type="line"/>
      <point x="120" y="434" type="line"/>
      <point x="51" y="0" type="line"/>
      <point x="93" y="0" type="line"/>
      <point x="130" y="234" type="line" smooth="yes"/>
      <point x="146" y="336"/>
      <point x="225" y="403"/>
      <point x="327" y="403" type="curve" smooth="yes"/>
      <point x="418" y="403"/>
      <point x="451" y="359"/>
      <point x="435" y="259" type="curve" smooth="yes"/>
      <point x="391" y="-22" type="line" smooth="yes"/>
      <point x="378" y="-102"/>
      <point x="334" y="-147"/>
      <point x="265" y="-152" type="curve" smooth="yes"/>
      <point x="223" y="-155" type="line"/>
    </contour>
  </outline>
</glyph>
<glyph name="OE" format="2">
  <advance width="1038"/>
  <unicode hex="0152"/>
  <anchor x="551" y="0" name="bottom"/>
  <anchor x="663" y="705" name="top"/>
  <outline>
    <contour>
      <point x="405" y="0" type="curve" smooth="yes"/>
      <point x="956" y="0" type="line"/>
      <point x="962" y="39" type="line"/>
      <point x="580" y="39" type="line"/>
      <point x="627" y="338" type="line"/>
      <point x="990" y="338" type="line"/>
      <point x="996" y="377" type="line"/>
      <point x="634" y="377" type="line"/>
      <point x="680" y="666" type="line"/>
      <point x="1060" y="666" type="line"/>
      <point x="1066" y="705" type="line"/>
      <point x="481" y="705" type="line" smooth="yes"/>
      <point x="202" y="705"/>
      <point x="86" y="515"/>
      <point x="86" y="289" type="curve" smooth="yes"/>
      <point x="86" y="105"/>
      <point x="201" y="0"/>
    </contour>
    <contour>
      <point x="406" y="39" type="line" smooth="yes"/>
      <point x="223" y="39"/>
      <point x="131" y="127"/>
      <point x="131" y="289" type="curve" smooth="yes"/>
      <point x="131" y="490"/>
      <point x="224" y="666"/>
      <point x="479" y="666" type="curve" smooth="yes"/>
      <point x="638" y="666" type="line"/>
      <point x="538" y="39" type="line"/>
    </contour>
  </outline>
</glyph>
<glyph name="oe" format="2">
  <advance width="906"/>
  <unicode hex="0153"/>
  <anchor x="430" y="0" name="bottom"/>
  <anchor x="507" y="484" name="top"/>
  <outline>
    <contour>
      <point x="239" y="-8" type="curve" smooth="yes"/>
      <point x="337" y="-8"/>
      <point x="423" y="48"/>
      <point x="462" y="141" type="curve"/>
      <point x="444" y="141" type="line"/>
      <point x="455" y="46"/>
      <point x="523" y="-8"/>
      <point x="638" y="-8" type="curve" smooth="yes"/>
      <point x="707" y="-8"/>
      <point x="779" y="16"/>
      <point x="825" y="54" type="curve"/>
      <point x="808" y="89" type="line"/>
      <point x="751" y="47"/>
      <point x="699" y="31"/>
      <point x="642" y="31" type="curve" smooth="yes"/>
      <point x="522" y="31"/>
      <point x="468" y="100"/>
      <point x="486" y="215" type="curve" smooth="yes"/>
      <point x="487" y="221" type="line" smooth="yes"/>
      <point x="504" y="326"/>
      <point x="578" y="405"/>
      <point x="692" y="405" type="curve" smooth="yes"/>
      <point x="795" y="405"/>
      <point x="839" y="341"/>
      <point x="822" y="235" type="curve"/>
      <point x="840" y="244" type="line"/>
      <point x="473" y="244" type="line"/>
      <point x="467" y="208" type="line"/>
      <point x="857" y="208" type="line"/>
      <point x="861" y="231" type="line" smooth="yes"/>
      <point x="882" y="364"/>
      <point x="817" y="442"/>
      <point x="696" y="442" type="curve" smooth="yes"/>
      <point x="592" y="442"/>
      <point x="508" y="387"/>
      <point x="465" y="292" type="curve"/>
      <point x="483" y="292" type="line"/>
      <point x="473" y="386"/>
      <point x="409" y="442"/>
      <point x="300" y="442" type="curve" smooth="yes"/>
      <point x="175" y="442"/>
      <point x="75" y="357"/>
      <point x="54" y="222" type="curve" smooth="yes"/>
      <point x="33" y="84"/>
      <point x="104" y="-8"/>
    </contour>
    <contour>
      <point x="240" y="31" type="curve" smooth="yes"/>
      <point x="133" y="31"/>
      <point x="78" y="100"/>
      <point x="97" y="222" type="curve" smooth="yes"/>
      <point x="115" y="334"/>
      <point x="192" y="403"/>
      <point x="299" y="403" type="curve" smooth="yes"/>
      <point x="406" y="403"/>
      <point x="461" y="334"/>
      <point x="442" y="217" type="curve" smooth="yes"/>
      <point x="424" y="100"/>
      <point x="347" y="31"/>
    </contour>
  </outline>
</glyph>
<glyph name="Schwa" format="2">
  <advance width="751"/>
  <unicode hex="018F"/>
  <guideline x="-402" y="586" angle="0"/>
  <anchor x="337" y="0" name="bottom"/>
  <anchor x="449" y="705" name="top"/>
  <outline>
    <contour>
      <point x="357" y="-8" type="curve" smooth="yes"/>
      <point x="578" y="-8"/>
      <point x="709" y="162"/>
      <point x="709" y="416" type="curve" smooth="yes"/>
      <point x="709" y="587"/>
      <point x="591" y="713"/>
      <point x="417" y="713" type="curve" smooth="yes"/>
      <point x="299" y="713"/>
      <point x="207" y="684"/>
      <point x="139" y="619" type="curve"/>
      <point x="158" y="583" type="line"/>
      <point x="229" y="646"/>
      <point x="297" y="672"/>
      <point x="410" y="672" type="curve" smooth="yes"/>
      <point x="566" y="672"/>
      <point x="664" y="570"/>
      <point x="664" y="416" type="curve" smooth="yes"/>
      <point x="664" y="199"/>
      <point x="559" y="33"/>
      <point x="363" y="33" type="curve" smooth="yes"/>
      <point x="168" y="33"/>
      <point x="108" y="178"/>
      <point x="132" y="353" type="curve"/>
      <point x="118" y="337" type="line"/>
      <point x="661" y="337" type="line"/>
      <point x="667" y="376" type="line"/>
      <point x="92" y="376" type="line"/>
      <point x="88" y="349" type="line" smooth="yes"/>
      <point x="61" y="170"/>
      <point x="140" y="-8"/>
    </contour>
  </outline>
</glyph>
<glyph name="Yhook" format="2">
  <advance width="607"/>
  <unicode hex="01B3"/>
  <outline>
    <contour>
      <point x="233" y="0" type="line"/>
      <point x="275" y="0" type="line"/>
      <point x="333" y="367" type="line"/>
      <point x="317" y="328" type="line"/>
      <point x="574" y="623" type="line" smooth="yes"/>
      <point x="608" y="662"/>
      <point x="637" y="675"/>
      <point x="671" y="675" type="curve" smooth="yes"/>
      <point x="691" y="675"/>
      <point x="704" y="672"/>
      <point x="717" y="667" type="curve"/>
      <point x="723" y="704" type="line"/>
      <point x="706" y="710"/>
      <point x="696" y="712"/>
      <point x="675" y="712" type="curve" smooth="yes"/>
      <point x="629" y="712"/>
      <point x="588" y="692"/>
      <point x="545" y="643" type="curve" smooth="yes"/>
      <point x="307" y="368" type="line"/>
      <point x="321" y="368" type="line"/>
      <point x="126" y="705" type="line"/>
      <point x="77" y="705" type="line"/>
      <point x="296" y="328" type="line"/>
      <point x="291" y="367" type="line"/>
    </contour>
  </outline>
</glyph>
<glyph name="yhook" format="2">
  <advance width="534"/>
  <unicode hex="01B4"/>
  <outline>
    <contour>
      <point x="416" y="353" type="curve" smooth="yes"/>
      <point x="209" y="20" type="line"/>
      <point x="229" y="20" type="line"/>
      <point x="104" y="434" type="line"/>
      <point x="58" y="434" type="line"/>
      <point x="198" y="-11" type="line"/>
      <point x="199" y="9" type="line"/>
      <point x="78" y="-180" type="line"/>
      <point x="125" y="-180" type="line"/>
      <point x="445" y="322" type="line" smooth="yes"/>
      <point x="484" y="383"/>
      <point x="508" y="404"/>
      <point x="552" y="404" type="curve" smooth="yes"/>
      <point x="563" y="404"/>
      <point x="578" y="402"/>
      <point x="588" y="398" type="curve"/>
      <point x="601" y="435" type="line"/>
      <point x="586" y="440"/>
      <point x="574" y="442"/>
      <point x="553" y="442" type="curve" smooth="yes"/>
      <point x="494" y="442"/>
      <point x="455" y="416"/>
    </contour>
  </outline>
</glyph>
<glyph name="gstroke" format="2">
  <advance width="570"/>
  <unicode hex="01E5"/>
  <outline>
    <contour>
      <point x="225" y="-188" type="curve" smooth="yes"/>
      <point x="329" y="-188"/>
      <point x="398" y="-143"/>
      <point x="434" y="-56" type="curve"/>
      <point x="420" y="-63" type="line"/>
      <point x="515" y="-63" type="line"/>
      <point x="521" y="-27" type="line"/>
      <point x="439" y="-27" type="line"/>
      <point x="441" y="-36" type="line"/>
      <point x="447" y="-19"/>
      <point x="451" y="3"/>
      <point x="454" y="22" type="curve" smooth="yes"/>
      <point x="520" y="434" type="line"/>
      <point x="479" y="434" type="line"/>
      <point x="462" y="328" type="line"/>
      <point x="470" y="328" type="line"/>
      <point x="459" y="399"/>
      <point x="400" y="442"/>
      <point x="301" y="442" type="curve" smooth="yes"/>
      <point x="177" y="442"/>
      <point x="76" y="360"/>
      <point x="57" y="240" type="curve" smooth="yes"/>
      <point x="37" y="114"/>
      <point x="111" y="26"/>
      <point x="245" y="26" type="curve" smooth="yes"/>
      <point x="334" y="26"/>
      <point x="409" y="70"/>
      <point x="442" y="142" type="curve"/>
      <point x="432" y="142" type="line"/>
      <point x="412" y="15" type="line" smooth="yes"/>
      <point x="410" y="-3"/>
      <point x="406" y="-19"/>
      <point x="401" y="-34" type="curve"/>
      <point x="407" y="-27" type="line"/>
      <point x="276" y="-27" type="line"/>
      <point x="270" y="-63" type="line"/>
      <point x="400" y="-63" type="line"/>
      <point x="391" y="-55" type="line"/>
      <point x="362" y="-117"/>
      <point x="308" y="-149"/>
      <point x="232" y="-149" type="curve" smooth="yes"/>
      <point x="156" y="-149"/>
      <point x="111" y="-132"/>
      <point x="56" y="-85" type="curve"/>
      <point x="30" y="-119" type="line"/>
      <point x="79" y="-165"/>
      <point x="144" y="-188"/>
    </contour>
    <contour>
      <point x="246" y="65" type="curve" smooth="yes"/>
      <point x="138" y="65"/>
      <point x="82" y="129"/>
      <point x="100" y="239" type="curve" smooth="yes"/>
      <point x="116" y="339"/>
      <point x="192" y="403"/>
      <point x="300" y="403" type="curve" smooth="yes"/>
      <point x="409" y="403"/>
      <point x="464" y="339"/>
      <point x="447" y="235" type="curve" smooth="yes"/>
      <point x="431" y="130"/>
      <point x="355" y="65"/>
    </contour>
  </outline>
</glyph>
<glyph name="jdotless" format="2">
  <advance width="215"/>
  <unicode hex="0237"/>
  <anchor x="75" y="0" name="bottom"/>
  <anchor x="152" y="484" name="top"/>
  <outline>
    <contour>
      <point x="-120" y="-193" type="line"/>
      <point x="-76" y="-190" type="line" smooth="yes"/>
      <point x="15" y="-184"/>
      <point x="76" y="-124"/>
      <point x="93" y="-21" type="curve" smooth="yes"/>
      <point x="165" y="434" type="line"/>
      <point x="123" y="434" type="line"/>
      <point x="51" y="-22" type="line" smooth="yes"/>
      <point x="38" y="-102"/>
      <point x="-6" y="-147"/>
      <point x="-75" y="-152" type="curve" smooth="yes"/>
      <point x="-117" y="-155" type="line"/>
    </contour>
  </outline>
</glyph>
<glyph name="bhook" format="2">
  <advance width="568"/>
  <unicode hex="0253"/>
  <outline>
    <contour>
      <point x="270" y="-8" type="curve" smooth="yes"/>
      <point x="395" y="-8"/>
      <point x="494" y="79"/>
      <point x="515" y="212" type="curve" smooth="yes"/>
      <point x="536" y="351"/>
      <point x="466" y="442"/>
      <point x="331" y="442" type="curve" smooth="yes"/>
      <point x="244" y="442"/>
      <point x="167" y="395"/>
      <point x="134" y="324" type="curve"/>
      <point x="144" y="324" type="line"/>
      <point x="183" y="566" type="line" smooth="yes"/>
      <point x="194" y="636"/>
      <point x="234" y="675"/>
      <point x="302" y="675" type="curve" smooth="yes"/>
      <point x="315" y="675"/>
      <point x="323" y="674"/>
      <point x="340" y="669" type="curve"/>
      <point x="352" y="706" type="line"/>
      <point x="338" y="711"/>
      <point x="324" y="713"/>
      <point x="306" y="713" type="curve" smooth="yes"/>
      <point x="214" y="713"/>
      <point x="156" y="661"/>
      <point x="140" y="564" type="curve" smooth="yes"/>
      <point x="51" y="0" type="line"/>
      <point x="93" y="0" type="line"/>
      <point x="111" y="111" type="line"/>
      <point x="103" y="111" type="line"/>
      <point x="112" y="40"/>
      <point x="173" y="-8"/>
    </contour>
    <contour>
      <point x="270" y="31" type="curve" smooth="yes"/>
      <point x="164" y="31"/>
      <point x="108" y="101"/>
      <point x="126" y="217" type="curve" smooth="yes"/>
      <point x="145" y="334"/>
      <point x="223" y="403"/>
      <point x="329" y="403" type="curve" smooth="yes"/>
      <point x="436" y="403"/>
      <point x="491" y="334"/>
      <point x="472" y="212" type="curve" smooth="yes"/>
      <point x="454" y="101"/>
      <point x="377" y="31"/>
    </contour>
  </outline>
</glyph>
<glyph name="schwa" format="2">
  <advance width="523"/>
  <unicode hex="0259"/>
  <outline>
    <contour>
      <point x="224" y="-8" type="curve" smooth="yes"/>
      <point x="356" y="-8"/>
      <point x="449" y="85"/>
      <point x="469" y="214" type="curve" smooth="yes"/>
      <point x="491" y="351"/>
      <point x="418" y="442"/>
      <point x="271" y="442" type="curve" smooth="yes"/>
      <point x="207" y="442"/>
      <point x="134" y="419"/>
      <point x="83" y="381" type="curve"/>
      <point x="100" y="346" type="line"/>
      <point x="157" y="387"/>
      <point x="211" y="403"/>
      <point x="272" y="403" type="curve" smooth="yes"/>
      <point x="390" y="403"/>
      <point x="447" y="335"/>
      <point x="429" y="219" type="curve" smooth="yes"/>
      <point x="428" y="213" type="line" smooth="yes"/>
      <point x="410" y="101"/>
      <point x="333" y="30"/>
      <point x="226" y="30" type="curve" smooth="yes"/>
      <point x="115" y="30"/>
      <point x="70" y="92"/>
      <point x="87" y="202" type="curve"/>
      <point x="66" y="190" type="line"/>
      <point x="440" y="190" type="line"/>
      <point x="446" y="226" type="line"/>
      <point x="50" y="226" type="line"/>
      <point x="46" y="205" type="line" smooth="yes"/>
      <point x="25" y="70"/>
      <point x="94" y="-8"/>
    </contour>
  </outline>
</glyph>
<glyph name="commaturnedmod" format="2">
  <advance width="500"/>
  <unicode hex="02BB"/>
  <anchor x="293" y="484" name="_top"/>
  <anchor x="324" y="685" name="top"/>
  <outline>
    <contour>
      <point x="263" y="520" type="line"/>
      <point x="332" y="520" type="line"/>
      <point x="343" y="590" type="line"/>
      <point x="292" y="590" type="line"/>
      <point x="310" y="584" type="line"/>
      <point x="316" y="618"/>
      <point x="324" y="646"/>
      <point x="361" y="682" type="curve"/>
      <point x="338" y="703" type="line"/>
      <point x="297" y="667"/>
      <point x="280" y="624"/>
      <point x="273" y="578" type="curve" smooth="yes"/>
    </contour>
  </outline>
</glyph>
<glyph name="ringhalfleft" format="2">
  <advance width="500"/>
  <unicode hex="02BF"/>
  <anchor x="293" y="484" name="_top"/>
  <anchor x="324" y="685" name="top"/>
  <outline>
    <contour>
      <point x="296" y="506" type="curve"/>
      <point x="302" y="541" type="line"/>
      <point x="268" y="541"/>
      <point x="249" y="568"/>
      <point x="254" y="600" type="curve" smooth="yes"/>
      <point x="259" y="633"/>
      <point x="286" y="659"/>
      <point x="320" y="659" type="curve"/>
      <point x="326" y="695" type="line"/>
      <point x="270" y="695"/>
      <point x="222" y="653"/>
      <point x="214" y="600" type="curve" smooth="yes"/>
      <point x="206" y="547"/>
      <point x="240" y="506"/>
    </contour>
  </outline>
</glyph>
<glyph name="verticallinemod" format="2">
  <advance width="500"/>
  <unicode hex="02C8"/>
  <outline>
    <contour>
      <point x="281" y="546" type="line"/>
      <point x="323" y="546" type="line"/>
      <point x="358" y="765" type="line"/>
      <point x="316" y="765" type="line"/>
    </contour>
  </outline>
</glyph>
<glyph name="secondtonechinese" format="2">
  <advance width="500"/>
  <unicode hex="02CA"/>
  <anchor x="293" y="484" name="_top"/>
  <anchor x="324" y="685" name="top"/>
  <outline>
    <contour>
      <point x="277" y="499" type="line"/>
      <point x="313" y="499" type="line"/>
      <point x="470" y="720" type="line"/>
      <point x="416" y="720" type="line"/>
    </contour>
  </outline>
</glyph>
<glyph name="gravecomb" format="2">
  <unicode hex="0300"/>
  <anchor x="43" y="484" name="_top"/>
  <anchor x="74" y="685" name="top"/>
  <outline>
    <contour>
      <point x="27" y="499" type="line"/>
      <point x="63" y="499" type="line"/>
      <point x="-6" y="720" type="line"/>
      <point x="-60" y="720" type="line"/>
    </contour>
  </outline>
</glyph>
<glyph name="acutecomb" format="2">
  <unicode hex="0301"/>
  <anchor x="43" y="484" name="_top"/>
  <anchor x="74" y="685" name="top"/>
  <outline>
    <contour>
      <point x="27" y="499" type="line"/>
      <point x="63" y="499" type="line"/>
      <point x="220" y="720" type="line"/>
      <point x="166" y="720" type="line"/>
    </contour>
  </outline>
</glyph>
<glyph name="circumflexcomb" format="2">
  <unicode hex="0302"/>
  <anchor x="43" y="484" name="_top"/>
  <anchor x="74" y="685" name="top"/>
  <outline>
    <contour>
      <point x="-88" y="499" type="line"/>
      <point x="-53" y="499" type="line"/>
      <point x="74" y="682" type="line"/>
      <point x="143" y="499" type="line"/>
      <point x="178" y="499" type="line"/>
      <point x="104" y="720" type="line"/>
      <point x="56" y="720" type="line"/>
    </contour>
  </outline>
</glyph>
<glyph name="macroncomb" format="2">
  <unicode hex="0304"/>
  <anchor x="43" y="484" name="_top"/>
  <anchor x="74" y="685" name="top"/>
  <outline>
    <contour>
      <point x="-82" y="584" type="line"/>
      <point x="198" y="584" type="line"/>
      <point x="204" y="621" type="line"/>
      <point x="-76" y="621" type="line"/>
    </contour>
  </outline>
</glyph>
<glyph name="brevecomb" format="2">
  <unicode hex="0306"/>
  <anchor x="43" y="484" name="_top"/>
  <anchor x="74" y="685" name="top"/>
  <outline>
    <contour>
      <point x="45" y="497" type="curve" smooth="yes"/>
      <point x="130" y="497"/>
      <point x="195" y="569"/>
      <point x="221" y="703" type="curve"/>
      <point x="189" y="707" type="line"/>
      <point x="168" y="592"/>
      <point x="118" y="533"/>
      <point x="50" y="533" type="curve" smooth="yes"/>
      <point x="-18" y="533"/>
      <point x="-48" y="592"/>
      <point x="-33" y="707" type="curve"/>
      <point x="-67" y="703" type="line"/>
      <point x="-83" y="569"/>
      <point x="-40" y="497"/>
    </contour>
  </outline>
</glyph>
<glyph name="dotaccentcomb" format="2">
  <unicode hex="0307"/>
  <anchor x="43" y="484" name="_top"/>
  <anchor x="74" y="685" name="top"/>
  <outline>
    <contour>
      <point x="24" y="569" type="line"/>
      <point x="88" y="569" type="line"/>
      <point x="98" y="632" type="line"/>
      <point x="34" y="632" type="line"/>
    </contour>
  </outline>
</glyph>
<glyph name="dieresiscomb" format="2">
  <unicode hex="0308"/>
  <anchor x="43" y="484" name="_top"/>
  <anchor x="74" y="685" name="top"/>
  <outline>
    <contour>
      <point x="106" y="570" type="line"/>
      <point x="167" y="570" type="line"/>
      <point x="177" y="630" type="line"/>
      <point x="116" y="630" type="line"/>
    </contour>
    <contour>
      <point x="-55" y="570" type="line"/>
      <point x="6" y="570" type="line"/>
      <point x="16" y="630" type="line"/>
      <point x="-45" y="630" type="line"/>
    </contour>
  </outline>
</glyph>
<glyph name="hookabovecomb" format="2">
  <unicode hex="0309"/>
  <anchor x="43" y="484" name="_top"/>
  <anchor x="74" y="685" name="top"/>
  <outline>
    <contour>
      <point x="27" y="499" type="line"/>
      <point x="63" y="499" type="line"/>
      <point x="66" y="516" type="line" smooth="yes"/>
      <point x="76" y="582"/>
      <point x="150" y="585"/>
      <point x="161" y="654" type="curve" smooth="yes"/>
      <point x="168" y="699"/>
      <point x="139" y="725"/>
      <point x="83" y="725" type="curve" smooth="yes"/>
      <point x="52" y="725"/>
      <point x="24" y="718"/>
      <point x="0" y="703" type="curve"/>
      <point x="5" y="670" type="line"/>
      <point x="32" y="684"/>
      <point x="53" y="688"/>
      <point x="73" y="688" type="curve" smooth="yes"/>
      <point x="109" y="688"/>
      <point x="123" y="675"/>
      <point x="119" y="652" type="curve" smooth="yes"/>
      <point x="112" y="604"/>
      <point x="42" y="595"/>
      <point x="31" y="521" type="curve" smooth="yes"/>
    </contour>
  </outline>
</glyph>
<glyph name="ringcomb" format="2">
  <unicode hex="030A"/>
  <anchor x="43" y="484" name="_top"/>
  <anchor x="74" y="685" name="top"/>
  <outline>
    <contour>
      <point x="61" y="496" type="curve" smooth="yes"/>
      <point x="124" y="496"/>
      <point x="173" y="545"/>
      <point x="173" y="606" type="curve" smooth="yes"/>
      <point x="173" y="667"/>
      <point x="124" y="716"/>
      <point x="61" y="716" type="curve" smooth="yes"/>
      <point x="-2" y="716"/>
      <point x="-51" y="667"/>
      <point x="-51" y="606" type="curve" smooth="yes"/>
      <point x="-51" y="545"/>
      <point x="-2" y="496"/>
    </contour>
    <contour>
      <point x="61" y="528" type="curve" smooth="yes"/>
      <point x="15" y="528"/>
      <point x="-17" y="562"/>
      <point x="-17" y="606" type="curve" smooth="yes"/>
      <point x="-17" y="650"/>
      <point x="15" y="684"/>
      <point x="61" y="684" type="curve" smooth="yes"/>
      <point x="107" y="684"/>
      <point x="139" y="650"/>
      <point x="139" y="606" type="curve" smooth="yes"/>
      <point x="139" y="562"/>
      <point x="107" y="528"/>
    </contour>
  </outline>
</glyph>
<glyph name="hungarumlautcomb" format="2">
  <unicode hex="030B"/>
  <anchor x="43" y="484" name="_top"/>
  <anchor x="74" y="685" name="top"/>
  <outline>
    <contour>
      <point x="86" y="499" type="line"/>
      <point x="113" y="499" type="line"/>
      <point x="227" y="720" type="line"/>
      <point x="179" y="720" type="line"/>
    </contour>
    <contour>
      <point x="-23" y="499" type="line"/>
      <point x="4" y="499" type="line"/>
      <point x="118" y="720" type="line"/>
      <point x="70" y="720" type="line"/>
    </contour>
  </outline>
</glyph>
<glyph name="caroncomb" format="2">
  <unicode hex="030C"/>
  <anchor x="43" y="484" name="_top"/>
  <anchor x="74" y="685" name="top"/>
  <outline>
    <contour>
      <point x="21" y="499" type="line"/>
      <point x="69" y="499" type="line"/>
      <point x="213" y="720" type="line"/>
      <point x="178" y="720" type="line"/>
      <point x="51" y="537" type="line"/>
      <point x="-18" y="720" type="line"/>
      <point x="-53" y="720" type="line"/>
    </contour>
  </outline>
</glyph>
<glyph name="dblgravecomb" format="2">
  <unicode hex="030F"/>
  <anchor x="43" y="484" name="_top"/>
  <anchor x="74" y="685" name="top"/>
  <outline>
    <contour>
      <point x="86" y="499" type="line"/>
      <point x="113" y="499" type="line"/>
      <point x="90" y="720" type="line"/>
      <point x="42" y="720" type="line"/>
    </contour>
    <contour>
      <point x="-23" y="499" type="line"/>
      <point x="4" y="499" type="line"/>
      <point x="-19" y="720" type="line"/>
      <point x="-67" y="720" type="line"/>
    </contour>
  </outline>
</glyph>
<glyph name="breveinvertedcomb" format="2">
  <unicode hex="0311"/>
  <anchor x="42" y="484" name="_top"/>
  <anchor x="74" y="685" name="top"/>
  <outline>
    <contour>
      <point x="-66" y="497" type="line"/>
      <point x="-45" y="613"/>
      <point x="4" y="671"/>
      <point x="72" y="671" type="curve" smooth="yes"/>
      <point x="140" y="671"/>
      <point x="171" y="613"/>
      <point x="156" y="497" type="curve"/>
      <point x="190" y="502" type="line"/>
      <point x="206" y="636"/>
      <point x="163" y="707"/>
      <point x="78" y="707" type="curve" smooth="yes"/>
      <point x="-7" y="707"/>
      <point x="-72" y="636"/>
      <point x="-98" y="502" type="curve"/>
    </contour>
  </outline>
</glyph>
<glyph name="horncomb" format="2">
  <unicode hex="031B"/>
  <anchor x="34" y="434" name="_topright"/>
  <outline>
    <contour>
      <point x="43" y="396" type="line"/>
      <point x="137" y="400"/>
      <point x="197" y="452"/>
      <point x="211" y="546" type="curve" smooth="yes"/>
      <point x="215" y="566" type="line"/>
      <point x="175" y="566" type="line"/>
      <point x="173" y="554" type="line" smooth="yes"/>
      <point x="161" y="477"/>
      <point x="131" y="435"/>
      <point x="34" y="434" type="curve"/>
      <point x="30" y="409" type="line"/>
    </contour>
  </outline>
</glyph>
<glyph name="dieresisbelowcomb" format="2">
  <unicode hex="0324"/>
  <anchor x="-34" y="0" name="_bottom"/>
  <anchor x="-61" y="-170" name="bottom"/>
  <outline>
    <contour>
      <point x="-11" y="-171" type="line"/>
      <point x="50" y="-171" type="line"/>
      <point x="59" y="-111" type="line"/>
      <point x="-2" y="-111" type="line"/>
    </contour>
    <contour>
      <point x="-172" y="-171" type="line"/>
      <point x="-111" y="-171" type="line"/>
      <point x="-102" y="-111" type="line"/>
      <point x="-163" y="-111" type="line"/>
    </contour>
  </outline>
</glyph>
<glyph name="ogonekcomb" format="2">
  <unicode hex="0328"/>
  <anchor x="-34" y="0" name="_ogonek"/>
  <outline>
    <contour>
      <point x="-81" y="-190" type="curve" smooth="yes"/>
      <point x="-50" y="-190"/>
      <point x="-23" y="-183"/>
      <point x="-7" y="-173" type="curve"/>
      <point x="-15" y="-141" type="line"/>
      <point x="-36" y="-150"/>
      <point x="-53" y="-154"/>
      <point x="-70" y="-154" type="curve" smooth="yes"/>
      <point x="-103" y="-154"/>
      <point x="-128" y="-136"/>
      <point x="-121" y="-94" type="curve" smooth="yes"/>
      <point x="-113" y="-46"/>
      <point x="-66" y="-13"/>
      <point x="-34" y="0" type="curve"/>
      <point x="-50" y="31" type="line"/>
      <point x="-112" y="1"/>
      <point x="-153" y="-48"/>
      <point x="-161" y="-98" type="curve" smooth="yes"/>
      <point x="-169" y="-154"/>
      <point x="-136" y="-190"/>
    </contour>
  </outline>
</glyph>
<glyph name="brevebelowcomb" format="2">
  <unicode hex="032E"/>
  <anchor x="-34" y="0" name="_bottom"/>
  <anchor x="-61" y="-170" name="bottom"/>
  <outline>
    <contour>
      <point x="-68" y="-215" type="curve" smooth="yes"/>
      <point x="15" y="-215"/>
      <point x="78" y="-160"/>
      <point x="99" y="-68" type="curve"/>
      <point x="67" y="-64" type="line"/>
      <point x="50" y="-137"/>
      <point x="4" y="-179"/>
      <point x="-62" y="-179" type="curve" smooth="yes"/>
      <point x="-128" y="-179"/>
      <point x="-162" y="-137"/>
      <point x="-155" y="-64" type="curve"/>
      <point x="-189" y="-68" type="line"/>
      <point x="-196" y="-160"/>
      <point x="-151" y="-215"/>
    </contour>
  </outline>
</glyph>
<glyph name="strokeshortcomb" format="2">
  <unicode hex="0335"/>
  <anchor x="52" y="540" name="_stroke"/>
  <outline>
    <contour>
      <point x="-118" y="522" type="line"/>
      <point x="216" y="522" type="line"/>
      <point x="221" y="558" type="line"/>
      <point x="-113" y="558" type="line"/>
    </contour>
  </outline>
</glyph>
<glyph name="slashshortcomb" format="2">
  <unicode hex="0337"/>
  <anchor x="-47" y="320" name="_center"/>
  <outline>
    <contour>
      <point x="-166" y="247" type="line"/>
      <point x="83" y="359" type="line"/>
      <point x="71" y="393" type="line"/>
      <point x="-177" y="281" type="line"/>
    </contour>
  </outline>
</glyph>
<glyph name="Omega" format="2">
  <advance width="760"/>
  <unicode hex="03A9"/>
  <outline>
    <contour>
      <point x="11" y="0" type="line"/>
      <point x="285" y="0" type="line"/>
      <point x="291" y="36" type="line"/>
      <point x="181" y="134"/>
      <point x="129" y="241"/>
      <point x="129" y="353" type="curve" smooth="yes"/>
      <point x="129" y="536"/>
      <point x="240" y="672"/>
      <point x="442" y="672" type="curve" smooth="yes"/>
      <point x="592" y="672"/>
      <point x="688" y="572"/>
      <point x="688" y="432" type="curve" smooth="yes"/>
      <point x="688" y="255"/>
      <point x="581" y="127"/>
      <point x="413" y="36" type="curve"/>
      <point x="407" y="0" type="line"/>
      <point x="681" y="0" type="line"/>
      <point x="687" y="38" type="line"/>
      <point x="447" y="38" type="line"/>
      <point x="447" y="22" type="line"/>
      <point x="618" y="102"/>
      <point x="733" y="241"/>
      <point x="733" y="432" type="curve" smooth="yes"/>
      <point x="733" y="594"/>
      <point x="617" y="713"/>
      <point x="445" y="713" type="curve" smooth="yes"/>
      <point x="216" y="713"/>
      <point x="84" y="563"/>
      <point x="84" y="351" type="curve" smooth="yes"/>
      <point x="84" y="232"/>
      <point x="141" y="121"/>
      <point x="257" y="22" type="curve"/>
      <point x="257" y="38" type="line"/>
      <point x="17" y="38" type="line"/>
    </contour>
  </outline>
</glyph>
<glyph name="pi" format="2">
  <advance width="560"/>
  <unicode hex="03C0"/>
  <outline>
    <contour>
      <point x="455" y="-3" type="curve" smooth="yes"/>
      <point x="472" y="-3"/>
      <point x="491" y="-1"/>
      <point x="512" y="3" type="curve"/>
      <point x="521" y="42" type="line"/>
      <point x="500" y="38"/>
      <point x="482" y="36"/>
      <point x="466" y="36" type="curve" smooth="yes"/>
      <point x="391" y="36"/>
      <point x="367" y="78"/>
      <point x="380" y="161" type="curve" smooth="yes"/>
      <point x="418" y="398" type="line"/>
      <point x="545" y="398" type="line"/>
      <point x="551" y="434" type="line"/>
      <point x="40" y="434" type="line"/>
      <point x="34" y="398" type="line"/>
      <point x="132" y="398" type="line"/>
      <point x="101" y="241"/>
      <point x="60" y="115"/>
      <point x="-2" y="0" type="curve"/>
      <point x="45" y="0" type="line"/>
      <point x="103" y="112"/>
      <point x="140" y="230"/>
      <point x="174" y="398" type="curve"/>
      <point x="376" y="398" type="line"/>
      <point x="339" y="162" type="line" smooth="yes"/>
      <point x="323" y="60"/>
      <point x="354" y="-3"/>
    </contour>
  </outline>
</glyph>
<glyph name="Dje-cy" format="2">
  <advance width="817"/>
  <unicode hex="0402"/>
  <outline>
    <contour>
      <point x="509" y="-188" type="curve" smooth="yes"/>
      <point x="631" y="-188"/>
      <point x="702" y="-110"/>
      <point x="726" y="43" type="curve" smooth="yes"/>
      <point x="742" y="146" type="line" smooth="yes"/>
      <point x="771" y="333"/>
      <point x="694" y="429"/>
      <point x="525" y="429" type="curve" smooth="yes"/>
      <point x="456" y="429"/>
      <point x="391" y="415"/>
      <point x="341" y="387" type="curve"/>
      <point x="385" y="666" type="line"/>
      <point x="654" y="666" type="line"/>
      <point x="660" y="705" type="line"/>
      <point x="80" y="705" type="line"/>
      <point x="74" y="666" type="line"/>
      <point x="343" y="666" type="line"/>
      <point x="237" y="0" type="line"/>
      <point x="279" y="0" type="line"/>
      <point x="333" y="341" type="line"/>
      <point x="393" y="376"/>
      <point x="456" y="388"/>
      <point x="525" y="388" type="curve" smooth="yes"/>
      <point x="668" y="388"/>
      <point x="728" y="311"/>
      <point x="700" y="140" type="curve" smooth="yes"/>
      <point x="684" y="42" type="line" smooth="yes"/>
      <point x="663" y="-86"/>
      <point x="603" y="-149"/>
      <point x="508" y="-149" type="curve" smooth="yes"/>
      <point x="469" y="-149"/>
      <point x="437" y="-142"/>
      <point x="413" y="-130" type="curve"/>
      <point x="401" y="-167" type="line"/>
      <point x="425" y="-179"/>
      <point x="465" y="-188"/>
    </contour>
  </outline>
</glyph>
<glyph name="Lje-cy" format="2">
  <advance width="1126"/>
  <unicode hex="0409"/>
  <outline>
    <contour>
      <point x="7" y="-13" type="line"/>
      <point x="139" y="48"/>
      <point x="224" y="146"/>
      <point x="275" y="465" type="curve" smooth="yes"/>
      <point x="307" y="666" type="line"/>
      <point x="645" y="666" type="line"/>
      <point x="539" y="0" type="line"/>
      <point x="826" y="0" type="line" smooth="yes"/>
      <point x="983" y="0"/>
      <point x="1068" y="70"/>
      <point x="1068" y="209" type="curve" smooth="yes"/>
      <point x="1068" y="313"/>
      <point x="997" y="379"/>
      <point x="860" y="379" type="curve" smooth="yes"/>
      <point x="641" y="379" type="line"/>
      <point x="693" y="705" type="line"/>
      <point x="273" y="705" type="line"/>
      <point x="237" y="475" type="line" smooth="yes"/>
      <point x="184" y="137"/>
      <point x="95" y="75"/>
      <point x="-10" y="25" type="curve"/>
    </contour>
    <contour>
      <point x="587" y="39" type="line"/>
      <point x="635" y="340" type="line"/>
      <point x="859" y="340" type="line" smooth="yes"/>
      <point x="965" y="340"/>
      <point x="1024" y="295"/>
      <point x="1024" y="208" type="curve" smooth="yes"/>
      <point x="1024" y="96"/>
      <point x="959" y="39"/>
      <point x="830" y="39" type="curve" smooth="yes"/>
    </contour>
  </outline>
</glyph>
<glyph name="Nje-cy" format="2">
  <advance width="1166"/>
  <unicode hex="040A"/>
  <outline>
    <contour>
      <point x="62" y="0" type="line"/>
      <point x="104" y="0" type="line"/>
      <point x="158" y="338" type="line"/>
      <point x="632" y="338" type="line"/>
      <point x="578" y="0" type="line"/>
      <point x="866" y="0" type="line" smooth="yes"/>
      <point x="1023" y="0"/>
      <point x="1108" y="70"/>
      <point x="1108" y="209" type="curve" smooth="yes"/>
      <point x="1108" y="313"/>
      <point x="1037" y="379"/>
      <point x="900" y="379" type="curve" smooth="yes"/>
      <point x="680" y="379" type="line"/>
      <point x="732" y="705" type="line"/>
      <point x="690" y="705" type="line"/>
      <point x="638" y="377" type="line"/>
      <point x="164" y="377" type="line"/>
      <point x="216" y="705" type="line"/>
      <point x="174" y="705" type="line"/>
    </contour>
    <contour>
      <point x="626" y="39" type="line"/>
      <point x="674" y="340" type="line"/>
      <point x="899" y="340" type="line" smooth="yes"/>
      <point x="1005" y="340"/>
      <point x="1064" y="295"/>
      <point x="1064" y="208" type="curve" smooth="yes"/>
      <point x="1064" y="96"/>
      <point x="999" y="39"/>
      <point x="870" y="39" type="curve" smooth="yes"/>
    </contour>
  </outline>
</glyph>
<glyph name="Tshe-cy" format="2">
  <advance width="833"/>
  <unicode hex="040B"/>
  <outline>
    <contour>
      <point x="237" y="0" type="line"/>
      <point x="279" y="0" type="line"/>
      <point x="333" y="341" type="line"/>
      <point x="395" y="376"/>
      <point x="468" y="388"/>
      <point x="537" y="388" type="curve" smooth="yes"/>
      <point x="685" y="388"/>
      <point x="745" y="310"/>
      <point x="717" y="140" type="curve" smooth="yes"/>
      <point x="694" y="0" type="line"/>
      <point x="736" y="0" type="line"/>
      <point x="759" y="146" type="line" smooth="yes"/>
      <point x="788" y="333"/>
      <point x="711" y="429"/>
      <point x="537" y="429" type="curve" smooth="yes"/>
      <point x="468" y="429"/>
      <point x="393" y="415"/>
      <point x="341" y="387" type="curve"/>
      <point x="385" y="666" type="line"/>
      <point x="654" y="666" type="line"/>
      <point x="660" y="705" type="line"/>
      <point x="80" y="705" type="line"/>
      <point x="74" y="666" type="line"/>
      <point x="343" y="666" type="line"/>
    </contour>
  </outline>
</glyph>
<glyph name="Dzhe-cy" format="2">
  <advance width="746"/>
  <unicode hex="040F"/>
  <outline>
    <contour>
      <point x="295" y="-150" type="line"/>
      <point x="335" y="-150" type="line"/>
      <point x="359" y="0" type="line"/>
      <point x="615" y="0" type="line"/>
      <point x="727" y="705" type="line"/>
      <point x="685" y="705" type="line"/>
      <point x="580" y="39" type="line"/>
      <point x="111" y="39" type="line"/>
      <point x="216" y="705" type="line"/>
      <point x="174" y="705" type="line"/>
      <point x="62" y="0" type="line"/>
      <point x="319" y="0" type="line"/>
    </contour>
  </outline>
</glyph>
<glyph name="Be-cy" format="2">
  <advance width="649"/>
  <unicode hex="0411"/>
  <outline>
    <contour>
      <point x="62" y="0" type="line"/>
      <point x="349" y="0" type="line" smooth="yes"/>
      <point x="506" y="0"/>
      <point x="591" y="70"/>
      <point x="591" y="209" type="curve" smooth="yes"/>
      <point x="591" y="313"/>
      <point x="520" y="379"/>
      <point x="383" y="379" type="curve" smooth="yes"/>
      <point x="164" y="379" type="line"/>
      <point x="210" y="666" type="line"/>
      <point x="590" y="666" type="line"/>
      <point x="596" y="705" type="line"/>
      <point x="174" y="705" type="line"/>
    </contour>
    <contour>
      <point x="110" y="39" type="line"/>
      <point x="158" y="340" type="line"/>
      <point x="382" y="340" type="line" smooth="yes"/>
      <point x="488" y="340"/>
      <point x="547" y="295"/>
      <point x="547" y="208" type="curve" smooth="yes"/>
      <point x="547" y="96"/>
      <point x="482" y="39"/>
      <point x="353" y="39" type="curve" smooth="yes"/>
    </contour>
  </outline>
</glyph>
<glyph name="Ge-cy" format="2">
  <advance width="527"/>
  <unicode hex="0413"/>
  <anchor x="62" y="0" name="bottomright"/>
  <anchor x="169" y="353" name="stroke"/>
  <anchor x="352" y="705" name="top"/>
  <outline>
    <contour>
      <point x="62" y="0" type="line"/>
      <point x="104" y="0" type="line"/>
      <point x="210" y="666" type="line"/>
      <point x="585" y="666" type="line"/>
      <point x="591" y="705" type="line"/>
      <point x="174" y="705" type="line"/>
    </contour>
  </outline>
</glyph>
<glyph name="De-cy" format="2">
  <advance width="760"/>
  <unicode hex="0414"/>
  <outline>
    <contour>
      <point x="-39" y="-150" type="line"/>
      <point x="1" y="-150" type="line"/>
      <point x="25" y="0" type="line"/>
      <point x="663" y="0" type="line"/>
      <point x="639" y="-150" type="line"/>
      <point x="679" y="-150" type="line"/>
      <point x="709" y="39" type="line"/>
      <point x="609" y="39" type="line"/>
      <point x="714" y="705" type="line"/>
      <point x="274" y="705" type="line"/>
      <point x="245" y="525" type="line" smooth="yes"/>
      <point x="206" y="281"/>
      <point x="148" y="127"/>
      <point x="59" y="39" type="curve"/>
      <point x="-9" y="39" type="line"/>
    </contour>
    <contour>
      <point x="111" y="39" type="line"/>
      <point x="194" y="127"/>
      <point x="248" y="283"/>
      <point x="286" y="525" type="curve" smooth="yes"/>
      <point x="308" y="666" type="line"/>
      <point x="666" y="666" type="line"/>
      <point x="567" y="39" type="line"/>
    </contour>
  </outline>
</glyph>
<glyph name="Zhe-cy" format="2">
  <advance width="928"/>
  <unicode hex="0416"/>
  <guideline x="541" y="705" angle="0"/>
  <anchor x="830" y="0" name="bottomright"/>
  <anchor x="541" y="705" name="top"/>
  <outline>
    <contour>
      <point x="-17" y="0" type="line"/>
      <point x="30" y="0" type="line"/>
      <point x="164" y="210" type="line" smooth="yes"/>
      <point x="222" y="301"/>
      <point x="279" y="339"/>
      <point x="360" y="339" type="curve" smooth="yes"/>
      <point x="462" y="339" type="line"/>
      <point x="408" y="0" type="line"/>
      <point x="450" y="0" type="line"/>
      <point x="504" y="339" type="line"/>
      <point x="608" y="339" type="line" smooth="yes"/>
      <point x="687" y="339"/>
      <point x="736" y="303"/>
      <point x="766" y="210" type="curve" smooth="yes"/>
      <point x="834" y="0" type="line"/>
      <point x="877" y="0" type="line"/>
      <point x="798" y="239" type="line" smooth="yes"/>
      <point x="771" y="322"/>
      <point x="711" y="370"/>
      <point x="637" y="376" type="curve"/>
      <point x="658" y="359" type="line"/>
      <point x="949" y="705" type="line"/>
      <point x="897" y="705" type="line"/>
      <point x="610" y="363" type="line"/>
      <point x="627" y="378" type="line"/>
      <point x="510" y="378" type="line"/>
      <point x="562" y="705" type="line"/>
      <point x="520" y="705" type="line"/>
      <point x="468" y="378" type="line"/>
      <point x="338" y="378" type="line"/>
      <point x="357" y="363" type="line"/>
      <point x="178" y="705" type="line"/>
      <point x="134" y="705" type="line"/>
      <point x="315" y="359" type="line"/>
      <point x="328" y="376" type="line"/>
      <point x="252" y="370"/>
      <point x="189" y="322"/>
      <point x="136" y="239" type="curve" smooth="yes"/>
    </contour>
  </outline>
</glyph>
<glyph name="Ze-cy" format="2">
  <advance width="645"/>
  <unicode hex="0417"/>
  <guideline x="381" y="33" angle="0"/>
  <guideline x="442" y="672" angle="180"/>
  <anchor x="286" y="0" name="bottom"/>
  <anchor x="392" y="705" name="top"/>
  <outline>
    <contour>
      <point x="305" y="-8" type="curve" smooth="yes"/>
      <point x="446" y="-8"/>
      <point x="565" y="51"/>
      <point x="565" y="203" type="curve" smooth="yes"/>
      <point x="565" y="290"/>
      <point x="509" y="352"/>
      <point x="420" y="363" type="curve"/>
      <point x="420" y="349" type="line"/>
      <point x="531" y="363"/>
      <point x="602" y="434"/>
      <point x="602" y="545" type="curve" smooth="yes"/>
      <point x="602" y="660"/>
      <point x="500" y="713"/>
      <point x="381" y="713" type="curve" smooth="yes"/>
      <point x="288" y="713"/>
      <point x="186" y="682"/>
      <point x="113" y="620" type="curve"/>
      <point x="134" y="584" type="line"/>
      <point x="203" y="644"/>
      <point x="294" y="672"/>
      <point x="381" y="672" type="curve" smooth="yes"/>
      <point x="478" y="672"/>
      <point x="558" y="634"/>
      <point x="558" y="543" type="curve" smooth="yes"/>
      <point x="558" y="435"/>
      <point x="482" y="376"/>
      <point x="364" y="376" type="curve" smooth="yes"/>
      <point x="192" y="376" type="line"/>
      <point x="186" y="337" type="line"/>
      <point x="357" y="337" type="line" smooth="yes"/>
      <point x="463" y="337"/>
      <point x="521" y="292"/>
      <point x="521" y="204" type="curve" smooth="yes"/>
      <point x="521" y="75"/>
      <point x="424" y="33"/>
      <point x="310" y="33" type="curve" smooth="yes"/>
      <point x="206" y="33"/>
      <point x="129" y="52"/>
      <point x="50" y="120" type="curve"/>
      <point x="27" y="85" type="line"/>
      <point x="103" y="19"/>
      <point x="184" y="-8"/>
    </contour>
  </outline>
</glyph>
<glyph name="Ii-cy" format="2">
  <advance width="732"/>
  <unicode hex="0418"/>
  <anchor x="563" y="0" name="bottomright"/>
  <anchor x="443" y="705" name="top"/>
  <outline>
    <contour>
      <point x="62" y="0" type="line"/>
      <point x="96" y="0" type="line"/>
      <point x="691" y="663" type="line"/>
      <point x="667" y="663" type="line"/>
      <point x="562" y="0" type="line"/>
      <point x="601" y="0" type="line"/>
      <point x="713" y="705" type="line"/>
      <point x="678" y="705" type="line"/>
      <point x="83" y="42" type="line"/>
      <point x="108" y="42" type="line"/>
      <point x="213" y="705" type="line"/>
      <point x="174" y="705" type="line"/>
    </contour>
  </outline>
</glyph>
<glyph name="Pe-cy" format="2">
  <advance width="746"/>
  <unicode hex="041F"/>
  <anchor x="573" y="0" name="bottomright"/>
  <outline>
    <contour>
      <point x="62" y="0" type="line"/>
      <point x="104" y="0" type="line"/>
      <point x="210" y="666" type="line"/>
      <point x="679" y="666" type="line"/>
      <point x="573" y="0" type="line"/>
      <point x="615" y="0" type="line"/>
      <point x="727" y="705" type="line"/>
      <point x="174" y="705" type="line"/>
    </contour>
  </outline>
</glyph>
<glyph name="U-cy" format="2">
  <advance width="628"/>
  <unicode hex="0423"/>
  <guideline x="495" y="473" angle="235.9701"/>
  <anchor x="383" y="705" name="top"/>
  <outline>
    <contour>
      <point x="177" y="0" type="line"/>
      <point x="225" y="0" type="line"/>
      <point x="701" y="705" type="line"/>
      <point x="653" y="705" type="line"/>
      <point x="339" y="240" type="line"/>
      <point x="351" y="240" type="line"/>
      <point x="132" y="705" type="line"/>
      <point x="88" y="705" type="line"/>
      <point x="327" y="198" type="line"/>
      <point x="327" y="223" type="line"/>
    </contour>
  </outline>
</glyph>
<glyph name="Ef-cy" format="2">
  <advance width="810"/>
  <unicode hex="0424"/>
  <guideline x="338" y="658" angle="0"/>
  <guideline x="266" y="57" angle="180"/>
  <outline>
    <contour>
      <point x="348" y="-20" type="line"/>
      <point x="390" y="-20" type="line"/>
      <point x="405" y="71" type="line"/>
      <point x="389" y="57" type="line"/>
      <point x="423" y="57" type="line" smooth="yes"/>
      <point x="635" y="57"/>
      <point x="771" y="228"/>
      <point x="771" y="398" type="curve" smooth="yes"/>
      <point x="771" y="557"/>
      <point x="653" y="658"/>
      <point x="483" y="658" type="curve" smooth="yes"/>
      <point x="479" y="658" type="line"/>
      <point x="495" y="644" type="line"/>
      <point x="509" y="730" type="line"/>
      <point x="467" y="730" type="line"/>
      <point x="453" y="644" type="line"/>
      <point x="470" y="658" type="line"/>
      <point x="436" y="658" type="line" smooth="yes"/>
      <point x="224" y="658"/>
      <point x="88" y="487"/>
      <point x="88" y="317" type="curve" smooth="yes"/>
      <point x="88" y="158"/>
      <point x="206" y="57"/>
      <point x="376" y="57" type="curve" smooth="yes"/>
      <point x="380" y="57" type="line"/>
      <point x="363" y="71" type="line"/>
    </contour>
    <contour>
      <point x="364" y="82" type="line"/>
      <point x="381" y="96" type="line"/>
      <point x="379" y="96" type="line" smooth="yes"/>
      <point x="231" y="96"/>
      <point x="133" y="176"/>
      <point x="133" y="316" type="curve" smooth="yes"/>
      <point x="133" y="469"/>
      <point x="250" y="619"/>
      <point x="433" y="619" type="curve" smooth="yes"/>
      <point x="463" y="619" type="line"/>
      <point x="451" y="633" type="line"/>
    </contour>
    <contour>
      <point x="406" y="82" type="line"/>
      <point x="493" y="633" type="line"/>
      <point x="480" y="619" type="line"/>
      <point x="484" y="619" type="line" smooth="yes"/>
      <point x="630" y="617"/>
      <point x="726" y="538"/>
      <point x="726" y="399" type="curve" smooth="yes"/>
      <point x="726" y="246"/>
      <point x="609" y="96"/>
      <point x="426" y="96" type="curve" smooth="yes"/>
      <point x="396" y="96" type="line"/>
    </contour>
  </outline>
</glyph>
<glyph name="Tse-cy" format="2">
  <advance width="773"/>
  <unicode hex="0426"/>
  <outline>
    <contour>
      <point x="652" y="-150" type="line"/>
      <point x="692" y="-150" type="line"/>
      <point x="722" y="39" type="line"/>
      <point x="622" y="39" type="line"/>
      <point x="727" y="705" type="line"/>
      <point x="685" y="705" type="line"/>
      <point x="580" y="39" type="line"/>
      <point x="111" y="39" type="line"/>
      <point x="216" y="705" type="line"/>
      <point x="174" y="705" type="line"/>
      <point x="62" y="0" type="line"/>
      <point x="676" y="0" type="line"/>
    </contour>
  </outline>
</glyph>
<glyph name="Sha-cy" format="2">
  <advance width="1038"/>
  <unicode hex="0428"/>
  <outline>
    <contour>
      <point x="62" y="0" type="line"/>
      <point x="907" y="0" type="line"/>
      <point x="1019" y="705" type="line"/>
      <point x="977" y="705" type="line"/>
      <point x="872" y="39" type="line"/>
      <point x="513" y="39" type="line"/>
      <point x="618" y="705" type="line"/>
      <point x="576" y="705" type="line"/>
      <point x="471" y="39" type="line"/>
      <point x="111" y="39" type="line"/>
      <point x="216" y="705" type="line"/>
      <point x="174" y="705" type="line"/>
    </contour>
  </outline>
</glyph>
<glyph name="Shcha-cy" format="2">
  <advance width="1064"/>
  <unicode hex="0429"/>
  <outline>
    <contour>
      <point x="943" y="-150" type="line"/>
      <point x="983" y="-150" type="line"/>
      <point x="1013" y="39" type="line"/>
      <point x="915" y="39" type="line"/>
      <point x="1020" y="705" type="line"/>
      <point x="978" y="705" type="line"/>
      <point x="873" y="39" type="line"/>
      <point x="513" y="39" type="line"/>
      <point x="618" y="705" type="line"/>
      <point x="576" y="705" type="line"/>
      <point x="471" y="39" type="line"/>
      <point x="111" y="39" type="line"/>
      <point x="216" y="705" type="line"/>
      <point x="174" y="705" type="line"/>
      <point x="62" y="0" type="line"/>
      <point x="967" y="0" type="line"/>
    </contour>
  </outline>
</glyph>
<glyph name="Hardsign-cy" format="2">
  <advance width="776"/>
  <unicode hex="042A"/>
  <outline>
    <contour>
      <point x="189" y="0" type="line"/>
      <point x="476" y="0" type="line" smooth="yes"/>
      <point x="633" y="0"/>
      <point x="718" y="70"/>
      <point x="718" y="209" type="curve" smooth="yes"/>
      <point x="718" y="313"/>
      <point x="647" y="379"/>
      <point x="510" y="379" type="curve" smooth="yes"/>
      <point x="291" y="379" type="line"/>
      <point x="343" y="705" type="line"/>
      <point x="80" y="705" type="line"/>
      <point x="74" y="666" type="line"/>
      <point x="295" y="666" type="line"/>
    </contour>
    <contour>
      <point x="237" y="39" type="line"/>
      <point x="285" y="340" type="line"/>
      <point x="509" y="340" type="line" smooth="yes"/>
      <point x="615" y="340"/>
      <point x="674" y="295"/>
      <point x="674" y="208" type="curve" smooth="yes"/>
      <point x="674" y="96"/>
      <point x="609" y="39"/>
      <point x="480" y="39" type="curve" smooth="yes"/>
    </contour>
  </outline>
</glyph>
<glyph name="Iu-cy" format="2">
  <advance width="984"/>
  <unicode hex="042E"/>
  <outline>
    <contour>
      <point x="594" y="-8" type="curve" smooth="yes"/>
      <point x="822" y="-8"/>
      <point x="941" y="179"/>
      <point x="941" y="416" type="curve" smooth="yes"/>
      <point x="941" y="609"/>
      <point x="834" y="713"/>
      <point x="666" y="713" type="curve" smooth="yes"/>
      <point x="467" y="713"/>
      <point x="351" y="571"/>
      <point x="325" y="377" type="curve"/>
      <point x="164" y="377" type="line"/>
      <point x="216" y="705" type="line"/>
      <point x="174" y="705" type="line"/>
      <point x="62" y="0" type="line"/>
      <point x="104" y="0" type="line"/>
      <point x="158" y="338" type="line"/>
      <point x="321" y="338" type="line"/>
      <point x="303" y="133"/>
      <point x="396" y="-8"/>
    </contour>
    <contour>
      <point x="596" y="33" type="curve" smooth="yes"/>
      <point x="451" y="33"/>
      <point x="364" y="116"/>
      <point x="364" y="289" type="curve" smooth="yes"/>
      <point x="364" y="507"/>
      <point x="469" y="672"/>
      <point x="663" y="672" type="curve" smooth="yes"/>
      <point x="809" y="672"/>
      <point x="896" y="589"/>
      <point x="896" y="416" type="curve" smooth="yes"/>
      <point x="896" y="199"/>
      <point x="791" y="33"/>
    </contour>
  </outline>
</glyph>
<glyph name="be-cy" format="2">
  <advance width="544"/>
  <unicode hex="0431"/>
  <outline>
    <contour>
      <point x="242" y="-8" type="curve" smooth="yes"/>
      <point x="370" y="-8"/>
      <point x="467" y="80"/>
      <point x="488" y="212" type="curve" smooth="yes"/>
      <point x="509" y="350"/>
      <point x="441" y="442"/>
      <point x="306" y="442" type="curve" smooth="yes"/>
      <point x="224" y="442"/>
      <point x="140" y="397"/>
      <point x="102" y="318" type="curve"/>
      <point x="115" y="318" type="line"/>
      <point x="122" y="361" type="line" smooth="yes"/>
      <point x="144" y="498"/>
      <point x="215" y="573"/>
      <point x="338" y="614" type="curve" smooth="yes"/>
      <point x="532" y="678" type="line"/>
      <point x="521" y="717" type="line"/>
      <point x="335" y="653" type="line" smooth="yes"/>
      <point x="187" y="602"/>
      <point x="104" y="520"/>
      <point x="76" y="339" type="curve" smooth="yes"/>
      <point x="59" y="236" type="line" smooth="yes"/>
      <point x="35" y="79"/>
      <point x="103" y="-8"/>
    </contour>
    <contour>
      <point x="242" y="31" type="curve" smooth="yes"/>
      <point x="134" y="31"/>
      <point x="80" y="97"/>
      <point x="101" y="225" type="curve" smooth="yes"/>
      <point x="118" y="335"/>
      <point x="195" y="403"/>
      <point x="302" y="403" type="curve" smooth="yes"/>
      <point x="409" y="403"/>
      <point x="464" y="336"/>
      <point x="444" y="212" type="curve" smooth="yes"/>
      <point x="426" y="97"/>
      <point x="350" y="31"/>
    </contour>
  </outline>
</glyph>
<glyph name="ge-cy" format="2">
  <advance width="415"/>
  <unicode hex="0433"/>
  <anchor x="54" y="0" name="bottomright"/>
  <anchor x="136" y="218" name="center"/>
  <anchor x="275" y="484" name="top"/>
  <outline>
    <contour>
      <point x="54" y="0" type="line"/>
      <point x="96" y="0" type="line"/>
      <point x="159" y="397" type="line"/>
      <point x="432" y="397" type="line"/>
      <point x="438" y="434" type="line"/>
      <point x="123" y="434" type="line"/>
    </contour>
  </outline>
</glyph>
<glyph name="de-cy" format="2">
  <advance width="569"/>
  <unicode hex="0434"/>
  <outline>
    <contour>
      <point x="-28" y="-130" type="line"/>
      <point x="10" y="-130" type="line"/>
      <point x="31" y="0" type="line"/>
      <point x="463" y="0" type="line"/>
      <point x="442" y="-130" type="line"/>
      <point x="480" y="-130" type="line"/>
      <point x="507" y="36" type="line"/>
      <point x="433" y="36" type="line"/>
      <point x="496" y="434" type="line"/>
      <point x="184" y="434" type="line"/>
      <point x="163" y="302" type="line" smooth="yes"/>
      <point x="145" y="187"/>
      <point x="109" y="101"/>
      <point x="46" y="36" type="curve"/>
      <point x="-1" y="36" type="line"/>
    </contour>
    <contour>
      <point x="95" y="36" type="line"/>
      <point x="148" y="102"/>
      <point x="188" y="199"/>
      <point x="204" y="300" type="curve" smooth="yes"/>
      <point x="219" y="398" type="line"/>
      <point x="448" y="398" type="line"/>
      <point x="391" y="36" type="line"/>
    </contour>
  </outline>
</glyph>
<glyph name="zhe-cy" format="2">
  <advance width="748"/>
  <unicode hex="0436"/>
  <anchor x="661" y="0" name="bottomright"/>
  <anchor x="417" y="484" name="top"/>
  <outline>
    <contour>
      <point x="-27" y="0" type="line"/>
      <point x="22" y="0" type="line"/>
      <point x="137" y="134" type="line" smooth="yes"/>
      <point x="187" y="192"/>
      <point x="215" y="207"/>
      <point x="281" y="207" type="curve" smooth="yes"/>
      <point x="352" y="207" type="line"/>
      <point x="319" y="0" type="line"/>
      <point x="361" y="0" type="line"/>
      <point x="396" y="207" type="line"/>
      <point x="469" y="207" type="line" smooth="yes"/>
      <point x="535" y="207"/>
      <point x="557" y="192"/>
      <point x="589" y="134" type="curve" smooth="yes"/>
      <point x="662" y="0" type="line"/>
      <point x="707" y="0" type="line"/>
      <point x="630" y="142" type="line" smooth="yes"/>
      <point x="590" y="216"/>
      <point x="567" y="236"/>
      <point x="511" y="242" type="curve"/>
      <point x="530" y="229" type="line"/>
      <point x="750" y="434" type="line"/>
      <point x="698" y="434" type="line"/>
      <point x="492" y="243" type="line"/>
      <point x="399" y="243" type="line"/>
      <point x="430" y="434" type="line"/>
      <point x="388" y="434" type="line"/>
      <point x="357" y="243" type="line"/>
      <point x="264" y="243" type="line"/>
      <point x="120" y="434" type="line"/>
      <point x="72" y="434" type="line"/>
      <point x="227" y="229" type="line"/>
      <point x="246" y="242" type="line"/>
      <point x="188" y="236"/>
      <point x="158" y="216"/>
      <point x="95" y="142" type="curve" smooth="yes"/>
    </contour>
  </outline>
</glyph>
<glyph name="ze-cy" format="2">
  <advance width="477"/>
  <unicode hex="0437"/>
  <anchor x="203" y="0" name="bottom"/>
  <anchor x="280" y="484" name="top"/>
  <outline>
    <contour>
      <point x="203" y="-8" type="curve" smooth="yes"/>
      <point x="332" y="-8"/>
      <point x="396" y="41"/>
      <point x="408" y="116" type="curve" smooth="yes"/>
      <point x="419" y="182"/>
      <point x="376" y="227"/>
      <point x="305" y="227" type="curve"/>
      <point x="303" y="215" type="line"/>
      <point x="367" y="221"/>
      <point x="417" y="263"/>
      <point x="425" y="316" type="curve" smooth="yes"/>
      <point x="438" y="395"/>
      <point x="382" y="442"/>
      <point x="269" y="442" type="curve" smooth="yes"/>
      <point x="195" y="442"/>
      <point x="129" y="424"/>
      <point x="71" y="387" type="curve"/>
      <point x="87" y="350" type="line"/>
      <point x="143" y="388"/>
      <point x="201" y="404"/>
      <point x="269" y="404" type="curve" smooth="yes"/>
      <point x="354" y="404"/>
      <point x="391" y="370"/>
      <point x="382" y="318" type="curve" smooth="yes"/>
      <point x="374" y="268"/>
      <point x="332" y="239"/>
      <point x="268" y="239" type="curve" smooth="yes"/>
      <point x="167" y="239" type="line"/>
      <point x="161" y="203" type="line"/>
      <point x="270" y="203" type="line" smooth="yes"/>
      <point x="342" y="203"/>
      <point x="375" y="175"/>
      <point x="366" y="119" type="curve" smooth="yes"/>
      <point x="357" y="62"/>
      <point x="310" y="31"/>
      <point x="204" y="31" type="curve" smooth="yes"/>
      <point x="134" y="31"/>
      <point x="76" y="50"/>
      <point x="34" y="87" type="curve"/>
      <point x="10" y="53" type="line"/>
      <point x="53" y="15"/>
      <point x="121" y="-8"/>
    </contour>
  </outline>
</glyph>
<glyph name="ii-cy" format="2">
  <advance width="566"/>
  <unicode hex="0438"/>
  <anchor x="405" y="0" name="bottomright"/>
  <anchor x="326" y="484" name="top"/>
  <outline>
    <contour>
      <point x="54" y="0" type="line"/>
      <point x="92" y="0" type="line"/>
      <point x="494" y="401" type="line"/>
      <point x="469" y="404" type="line"/>
      <point x="405" y="0" type="line"/>
      <point x="444" y="0" type="line"/>
      <point x="513" y="434" type="line"/>
      <point x="476" y="434" type="line"/>
      <point x="74" y="33" type="line"/>
      <point x="98" y="30" type="line"/>
      <point x="162" y="434" type="line"/>
      <point x="123" y="434" type="line"/>
    </contour>
  </outline>
</glyph>
<glyph name="ka-cy" format="2">
  <advance width="497"/>
  <unicode hex="043A"/>
  <anchor x="410" y="0" name="bottomright"/>
  <anchor x="241" y="218" name="center"/>
  <anchor x="318" y="484" name="top"/>
  <outline>
    <contour>
      <point x="54" y="0" type="line"/>
      <point x="96" y="0" type="line"/>
      <point x="129" y="207" type="line"/>
      <point x="218" y="207" type="line" smooth="yes"/>
      <point x="284" y="207"/>
      <point x="306" y="192"/>
      <point x="338" y="134" type="curve" smooth="yes"/>
      <point x="411" y="0" type="line"/>
      <point x="456" y="0" type="line"/>
      <point x="379" y="142" type="line" smooth="yes"/>
      <point x="339" y="216"/>
      <point x="316" y="236"/>
      <point x="260" y="242" type="curve"/>
      <point x="277" y="229" type="line"/>
      <point x="497" y="434" type="line"/>
      <point x="445" y="434" type="line"/>
      <point x="241" y="243" type="line"/>
      <point x="134" y="243" type="line"/>
      <point x="165" y="434" type="line"/>
      <point x="123" y="434" type="line"/>
    </contour>
  </outline>
</glyph>
<glyph name="em-cy" format="2">
  <advance width="636"/>
  <unicode hex="043C"/>
  <anchor x="476" y="0" name="bottomright"/>
  <outline>
    <contour>
      <point x="54" y="0" type="line"/>
      <point x="92" y="0" type="line"/>
      <point x="154" y="390" type="line"/>
      <point x="135" y="390" type="line"/>
      <point x="285" y="69" type="line"/>
      <point x="310" y="69" type="line"/>
      <point x="561" y="390" type="line"/>
      <point x="538" y="390" type="line"/>
      <point x="476" y="0" type="line"/>
      <point x="514" y="0" type="line"/>
      <point x="583" y="434" type="line"/>
      <point x="549" y="434" type="line"/>
      <point x="302" y="115" type="line"/>
      <point x="158" y="434" type="line"/>
      <point x="123" y="434" type="line"/>
    </contour>
  </outline>
</glyph>
<glyph name="pe-cy" format="2">
  <advance width="565"/>
  <unicode hex="043F"/>
  <anchor x="401" y="0" name="bottomright"/>
  <outline>
    <contour>
      <point x="54" y="0" type="line"/>
      <point x="96" y="0" type="line"/>
      <point x="159" y="398" type="line"/>
      <point x="464" y="398" type="line"/>
      <point x="401" y="0" type="line"/>
      <point x="443" y="0" type="line"/>
      <point x="512" y="434" type="line"/>
      <point x="123" y="434" type="line"/>
    </contour>
  </outline>
</glyph>
<glyph name="te-cy" format="2">
  <advance width="418"/>
  <unicode hex="0442"/>
  <anchor x="154" y="0" name="bottomright"/>
  <outline>
    <contour>
      <point x="154" y="0" type="line"/>
      <point x="196" y="0" type="line"/>
      <point x="259" y="398" type="line"/>
      <point x="444" y="398" type="line"/>
      <point x="450" y="434" type="line"/>
      <point x="38" y="434" type="line"/>
      <point x="32" y="398" type="line"/>
      <point x="217" y="398" type="line"/>
    </contour>
  </outline>
</glyph>
<glyph name="ef-cy" format="2">
  <advance width="756"/>
  <unicode hex="0444"/>
  <outline>
    <contour>
      <point x="294" y="-180" type="line"/>
      <point x="336" y="-180" type="line"/>
      <point x="382" y="107" type="line"/>
      <point x="373" y="107" type="line"/>
      <point x="380" y="34"/>
      <point x="422" y="-8"/>
      <point x="498" y="-8" type="curve" smooth="yes"/>
      <point x="600" y="-8"/>
      <point x="679" y="80"/>
      <point x="700" y="212" type="curve" smooth="yes"/>
      <point x="721" y="350"/>
      <point x="671" y="442"/>
      <point x="563" y="442" type="curve" smooth="yes"/>
      <point x="493" y="442"/>
      <point x="436" y="400"/>
      <point x="406" y="327" type="curve"/>
      <point x="417" y="327" type="line"/>
      <point x="477" y="705" type="line"/>
      <point x="435" y="705" type="line"/>
      <point x="375" y="327" type="line"/>
      <point x="384" y="327" type="line"/>
      <point x="376" y="400"/>
      <point x="335" y="442"/>
      <point x="259" y="442" type="curve" smooth="yes"/>
      <point x="157" y="442"/>
      <point x="78" y="355"/>
      <point x="57" y="222" type="curve" smooth="yes"/>
      <point x="36" y="85"/>
      <point x="87" y="-8"/>
      <point x="194" y="-8" type="curve" smooth="yes"/>
      <point x="264" y="-8"/>
      <point x="320" y="34"/>
      <point x="351" y="107" type="curve"/>
      <point x="340" y="107" type="line"/>
    </contour>
    <contour>
      <point x="199" y="30" type="curve" smooth="yes"/>
      <point x="118" y="30"/>
      <point x="79" y="96"/>
      <point x="99" y="222" type="curve" smooth="yes"/>
      <point x="117" y="336"/>
      <point x="178" y="404"/>
      <point x="258" y="404" type="curve" smooth="yes"/>
      <point x="339" y="404"/>
      <point x="377" y="334"/>
      <point x="358" y="217" type="curve" smooth="yes"/>
      <point x="340" y="98"/>
      <point x="280" y="30"/>
    </contour>
    <contour>
      <point x="499" y="30" type="curve" smooth="yes"/>
      <point x="418" y="30"/>
      <point x="380" y="98"/>
      <point x="398" y="217" type="curve" smooth="yes"/>
      <point x="417" y="334"/>
      <point x="477" y="404"/>
      <point x="558" y="404" type="curve" smooth="yes"/>
      <point x="639" y="404"/>
      <point x="677" y="336"/>
      <point x="657" y="212" type="curve" smooth="yes"/>
      <point x="639" y="96"/>
      <point x="580" y="30"/>
    </contour>
  </outline>
</glyph>
<glyph name="tse-cy" format="2">
  <advance width="575"/>
  <unicode hex="0446"/>
  <outline>
    <contour>
      <point x="448" y="-130" type="line"/>
      <point x="486" y="-130" type="line"/>
      <point x="513" y="36" type="line"/>
      <point x="439" y="36" type="line"/>
      <point x="502" y="434" type="line"/>
      <point x="460" y="434" type="line"/>
      <point x="397" y="36" type="line"/>
      <point x="102" y="36" type="line"/>
      <point x="165" y="434" type="line"/>
      <point x="123" y="434" type="line"/>
      <point x="54" y="0" type="line"/>
      <point x="469" y="0" type="line"/>
    </contour>
  </outline>
</glyph>
<glyph name="che-cy" format="2">
  <advance width="532"/>
  <unicode hex="0447"/>
  <anchor x="368" y="0" name="bottomright"/>
  <anchor x="251" y="180" name="center"/>
  <anchor x="299" y="484" name="top"/>
  <outline>
    <contour>
      <point x="368" y="0" type="line"/>
      <point x="410" y="0" type="line"/>
      <point x="479" y="434" type="line"/>
      <point x="437" y="434" type="line"/>
      <point x="405" y="231" type="line"/>
      <point x="357" y="205"/>
      <point x="315" y="193"/>
      <point x="256" y="193" type="curve" smooth="yes"/>
      <point x="152" y="193"/>
      <point x="113" y="240"/>
      <point x="129" y="341" type="curve" smooth="yes"/>
      <point x="144" y="434" type="line"/>
      <point x="102" y="434" type="line"/>
      <point x="87" y="340" type="line" smooth="yes"/>
      <point x="67" y="216"/>
      <point x="127" y="154"/>
      <point x="250" y="154" type="curve" smooth="yes"/>
      <point x="306" y="154"/>
      <point x="356" y="168"/>
      <point x="398" y="190" type="curve"/>
    </contour>
  </outline>
</glyph>
<glyph name="sha-cy" format="2">
  <advance width="770"/>
  <unicode hex="0448"/>
  <outline>
    <contour>
      <point x="54" y="0" type="line"/>
      <point x="648" y="0" type="line"/>
      <point x="717" y="434" type="line"/>
      <point x="675" y="434" type="line"/>
      <point x="612" y="36" type="line"/>
      <point x="378" y="36" type="line"/>
      <point x="441" y="434" type="line"/>
      <point x="399" y="434" type="line"/>
      <point x="336" y="36" type="line"/>
      <point x="102" y="36" type="line"/>
      <point x="165" y="434" type="line"/>
      <point x="123" y="434" type="line"/>
    </contour>
  </outline>
</glyph>
<glyph name="yeru-cy" format="2">
  <advance width="689"/>
  <unicode hex="044B"/>
  <anchor x="388" y="484" name="top"/>
  <outline>
    <contour>
      <point x="54" y="0" type="line"/>
      <point x="269" y="0" type="line" smooth="yes"/>
      <point x="381" y="0"/>
      <point x="449" y="48"/>
      <point x="462" y="133" type="curve" smooth="yes"/>
      <point x="476" y="220"/>
      <point x="424" y="271"/>
      <point x="312" y="271" type="curve" smooth="yes"/>
      <point x="139" y="271" type="line"/>
      <point x="165" y="434" type="line"/>
      <point x="123" y="434" type="line"/>
    </contour>
    <contour>
      <point x="102" y="36" type="line"/>
      <point x="133" y="236" type="line"/>
      <point x="308" y="236" type="line" smooth="yes"/>
      <point x="388" y="236"/>
      <point x="430" y="204"/>
      <point x="419" y="133" type="curve" smooth="yes"/>
      <point x="409" y="67"/>
      <point x="357" y="36"/>
      <point x="277" y="36" type="curve" smooth="yes"/>
    </contour>
    <contour>
      <point x="525" y="0" type="line"/>
      <point x="567" y="0" type="line"/>
      <point x="636" y="434" type="line"/>
      <point x="594" y="434" type="line"/>
    </contour>
  </outline>
</glyph>
<glyph name="ereversed-cy" format="2">
  <advance width="471"/>
  <unicode hex="044D"/>
  <anchor x="250" y="484" name="top"/>
  <outline>
    <contour>
      <point x="163" y="-8" type="curve" smooth="yes"/>
      <point x="297" y="-8"/>
      <point x="393" y="77"/>
      <point x="414" y="209" type="curve" smooth="yes"/>
      <point x="437" y="351"/>
      <point x="364" y="442"/>
      <point x="225" y="442" type="curve" smooth="yes"/>
      <point x="163" y="442"/>
      <point x="95" y="419"/>
      <point x="55" y="382" type="curve"/>
      <point x="70" y="347" type="line"/>
      <point x="116" y="387"/>
      <point x="175" y="403"/>
      <point x="225" y="403" type="curve" smooth="yes"/>
      <point x="337" y="403"/>
      <point x="383" y="333"/>
      <point x="375" y="229" type="curve"/>
      <point x="384" y="241" type="line"/>
      <point x="116" y="241" type="line"/>
      <point x="110" y="205" type="line"/>
      <point x="378" y="205" type="line"/>
      <point x="372" y="213" type="line"/>
      <point x="354" y="105"/>
      <point x="284" y="31"/>
      <point x="166" y="31" type="curve" smooth="yes"/>
      <point x="115" y="31"/>
      <point x="63" y="47"/>
      <point x="26" y="85" type="curve"/>
      <point x="3" y="53" type="line"/>
      <point x="31" y="15"/>
      <point x="96" y="-8"/>
    </contour>
  </outline>
</glyph>
<glyph name="iu-cy" format="2">
  <advance width="727"/>
  <unicode hex="044E"/>
  <outline>
    <contour>
      <point x="425" y="-8" type="curve" smooth="yes"/>
      <point x="551" y="-8"/>
      <point x="650" y="79"/>
      <point x="671" y="212" type="curve" smooth="yes"/>
      <point x="692" y="350"/>
      <point x="622" y="442"/>
      <point x="486" y="442" type="curve" smooth="yes"/>
      <point x="369" y="442"/>
      <point x="275" y="366"/>
      <point x="244" y="243" type="curve"/>
      <point x="133" y="243" type="line"/>
      <point x="164" y="434" type="line"/>
      <point x="123" y="434" type="line"/>
      <point x="54" y="0" type="line"/>
      <point x="95" y="0" type="line"/>
      <point x="128" y="207" type="line"/>
      <point x="238" y="207" type="line"/>
      <point x="225" y="75"/>
      <point x="296" y="-8"/>
    </contour>
    <contour>
      <point x="426" y="31" type="curve" smooth="yes"/>
      <point x="320" y="31"/>
      <point x="264" y="101"/>
      <point x="282" y="217" type="curve" smooth="yes"/>
      <point x="301" y="334"/>
      <point x="379" y="403"/>
      <point x="485" y="403" type="curve" smooth="yes"/>
      <point x="592" y="403"/>
      <point x="647" y="334"/>
      <point x="628" y="212" type="curve" smooth="yes"/>
      <point x="610" y="101"/>
      <point x="533" y="31"/>
    </contour>
  </outline>
</glyph>
<glyph name="ia-cy" format="2">
  <advance width="520"/>
  <unicode hex="044F"/>
  <outline>
    <contour>
      <point x="16" y="0" type="line"/>
      <point x="68" y="0" type="line"/>
      <point x="153" y="106" type="line" smooth="yes"/>
      <point x="185" y="146"/>
      <point x="227" y="178"/>
      <point x="288" y="178" type="curve" smooth="yes"/>
      <point x="384" y="178" type="line"/>
      <point x="356" y="0" type="line"/>
      <point x="398" y="0" type="line"/>
      <point x="467" y="434" type="line"/>
      <point x="264" y="434" type="line" smooth="yes"/>
      <point x="154" y="434"/>
      <point x="97" y="383"/>
      <point x="85" y="310" type="curve" smooth="yes"/>
      <point x="72" y="228"/>
      <point x="119" y="180"/>
      <point x="222" y="180" type="curve"/>
      <point x="222" y="186" type="line"/>
      <point x="216" y="186" type="line" smooth="yes"/>
      <point x="183" y="186"/>
      <point x="143" y="158"/>
      <point x="112" y="120" type="curve" smooth="yes"/>
    </contour>
    <contour>
      <point x="235" y="214" type="line" smooth="yes"/>
      <point x="149" y="214"/>
      <point x="118" y="247"/>
      <point x="128" y="310" type="curve" smooth="yes"/>
      <point x="137" y="366"/>
      <point x="178" y="399"/>
      <point x="264" y="399" type="curve" smooth="yes"/>
      <point x="419" y="399" type="line"/>
      <point x="390" y="214" type="line"/>
    </contour>
  </outline>
</glyph>
<glyph name="dje-cy" format="2">
  <advance width="545"/>
  <unicode hex="0452"/>
  <outline>
    <contour>
      <point x="236" y="-185" type="line"/>
      <point x="375" y="-157"/>
      <point x="426" y="-80"/>
      <point x="448" y="58" type="curve" smooth="yes"/>
      <point x="480" y="262" type="line" smooth="yes"/>
      <point x="500" y="384"/>
      <point x="450" y="442"/>
      <point x="334" y="442" type="curve" smooth="yes"/>
      <point x="250" y="442"/>
      <point x="170" y="397"/>
      <point x="134" y="323" type="curve"/>
      <point x="147" y="323" type="line"/>
      <point x="180" y="532" type="line"/>
      <point x="377" y="532" type="line"/>
      <point x="383" y="568" type="line"/>
      <point x="186" y="568" type="line"/>
      <point x="208" y="705" type="line"/>
      <point x="166" y="705" type="line"/>
      <point x="144" y="568" type="line"/>
      <point x="49" y="568" type="line"/>
      <point x="43" y="532" type="line"/>
      <point x="138" y="532" type="line"/>
      <point x="54" y="0" type="line"/>
      <point x="96" y="0" type="line"/>
      <point x="133" y="234" type="line" smooth="yes"/>
      <point x="149" y="336"/>
      <point x="228" y="403"/>
      <point x="329" y="403" type="curve" smooth="yes"/>
      <point x="421" y="403"/>
      <point x="454" y="359"/>
      <point x="438" y="259" type="curve" smooth="yes"/>
      <point x="406" y="55" type="line" smooth="yes"/>
      <point x="387" y="-60"/>
      <point x="352" y="-123"/>
      <point x="233" y="-148" type="curve"/>
    </contour>
  </outline>
</glyph>
<glyph name="e-cy" format="2">
  <advance width="471"/>
  <unicode hex="0454"/>
  <outline>
    <contour>
      <point x="247" y="-8" type="curve" smooth="yes"/>
      <point x="311" y="-8"/>
      <point x="377" y="15"/>
      <point x="417" y="53" type="curve"/>
      <point x="401" y="87" type="line"/>
      <point x="356" y="48"/>
      <point x="300" y="31"/>
      <point x="247" y="31" type="curve" smooth="yes"/>
      <point x="135" y="31"/>
      <point x="84" y="101"/>
      <point x="99" y="213" type="curve"/>
      <point x="90" y="205" type="line"/>
      <point x="357" y="205" type="line"/>
      <point x="363" y="241" type="line"/>
      <point x="95" y="241" type="line"/>
      <point x="102" y="231" type="line"/>
      <point x="120" y="329"/>
      <point x="188" y="403"/>
      <point x="306" y="403" type="curve" smooth="yes"/>
      <point x="358" y="403"/>
      <point x="409" y="387"/>
      <point x="446" y="349" type="curve"/>
      <point x="469" y="381" type="line"/>
      <point x="441" y="419"/>
      <point x="376" y="442"/>
      <point x="309" y="442" type="curve" smooth="yes"/>
      <point x="175" y="442"/>
      <point x="79" y="357"/>
      <point x="58" y="225" type="curve" smooth="yes"/>
      <point x="35" y="83"/>
      <point x="108" y="-8"/>
    </contour>
  </outline>
</glyph>
<glyph name="nje-cy" format="2">
  <advance width="873"/>
  <unicode hex="045A"/>
  <outline>
    <contour>
      <point x="54" y="0" type="line"/>
      <point x="96" y="0" type="line"/>
      <point x="129" y="206" type="line"/>
      <point x="437" y="206" type="line"/>
      <point x="404" y="0" type="line"/>
      <point x="619" y="0" type="line" smooth="yes"/>
      <point x="731" y="0"/>
      <point x="799" y="48"/>
      <point x="812" y="133" type="curve" smooth="yes"/>
      <point x="826" y="220"/>
      <point x="774" y="271"/>
      <point x="662" y="271" type="curve" smooth="yes"/>
      <point x="489" y="271" type="line"/>
      <point x="515" y="434" type="line"/>
      <point x="473" y="434" type="line"/>
      <point x="442" y="243" type="line"/>
      <point x="134" y="243" type="line"/>
      <point x="165" y="434" type="line"/>
      <point x="123" y="434" type="line"/>
    </contour>
    <contour>
      <point x="452" y="36" type="line"/>
      <point x="483" y="236" type="line"/>
      <point x="658" y="236" type="line" smooth="yes"/>
      <point x="738" y="236"/>
      <point x="780" y="204"/>
      <point x="769" y="133" type="curve" smooth="yes"/>
      <point x="759" y="67"/>
      <point x="707" y="36"/>
      <point x="627" y="36" type="curve" smooth="yes"/>
    </contour>
  </outline>
</glyph>
<glyph name="dzhe-cy" format="2">
  <advance width="565"/>
  <unicode hex="045F"/>
  <outline>
    <contour>
      <point x="208" y="-130" type="line"/>
      <point x="246" y="-130" type="line"/>
      <point x="267" y="0" type="line"/>
      <point x="443" y="0" type="line"/>
      <point x="512" y="434" type="line"/>
      <point x="470" y="434" type="line"/>
      <point x="407" y="36" type="line"/>
      <point x="102" y="36" type="line"/>
      <point x="165" y="434" type="line"/>
      <point x="123" y="434" type="line"/>
      <point x="54" y="0" type="line"/>
      <point x="229" y="0" type="line"/>
    </contour>
  </outline>
</glyph>
<glyph name="Yat-cy" format="2">
  <advance width="707"/>
  <unicode hex="0462"/>
  <outline>
    <contour>
      <point x="120" y="0" type="line"/>
      <point x="407" y="0" type="line" smooth="yes"/>
      <point x="564" y="0"/>
      <point x="649" y="70"/>
      <point x="649" y="209" type="curve" smooth="yes"/>
      <point x="649" y="313"/>
      <point x="578" y="379"/>
      <point x="441" y="379" type="curve" smooth="yes"/>
      <point x="222" y="379" type="line"/>
      <point x="249" y="548" type="line"/>
      <point x="489" y="548" type="line"/>
      <point x="495" y="587" type="line"/>
      <point x="255" y="587" type="line"/>
      <point x="274" y="705" type="line"/>
      <point x="232" y="705" type="line"/>
      <point x="213" y="587" type="line"/>
      <point x="39" y="587" type="line"/>
      <point x="33" y="548" type="line"/>
      <point x="207" y="548" type="line"/>
    </contour>
    <contour>
      <point x="168" y="39" type="line"/>
      <point x="216" y="340" type="line"/>
      <point x="440" y="340" type="line" smooth="yes"/>
      <point x="546" y="340"/>
      <point x="605" y="295"/>
      <point x="605" y="208" type="curve" smooth="yes"/>
      <point x="605" y="96"/>
      <point x="540" y="39"/>
      <point x="411" y="39" type="curve" smooth="yes"/>
    </contour>
  </outline>
</glyph>
<glyph name="yat-cy" format="2">
  <advance width="598"/>
  <unicode hex="0463"/>
  <outline>
    <contour>
      <point x="129" y="0" type="line"/>
      <point x="344" y="0" type="line" smooth="yes"/>
      <point x="456" y="0"/>
      <point x="524" y="48"/>
      <point x="537" y="133" type="curve" smooth="yes"/>
      <point x="551" y="220"/>
      <point x="499" y="271"/>
      <point x="387" y="271" type="curve" smooth="yes"/>
      <point x="214" y="271" type="line"/>
      <point x="234" y="398" type="line"/>
      <point x="394" y="398" type="line"/>
      <point x="400" y="434" type="line"/>
      <point x="240" y="434" type="line"/>
      <point x="283" y="705" type="line"/>
      <point x="241" y="705" type="line"/>
      <point x="198" y="434" type="line"/>
      <point x="38" y="434" type="line"/>
      <point x="32" y="398" type="line"/>
      <point x="192" y="398" type="line"/>
    </contour>
    <contour>
      <point x="177" y="36" type="line"/>
      <point x="208" y="236" type="line"/>
      <point x="383" y="236" type="line" smooth="yes"/>
      <point x="463" y="236"/>
      <point x="505" y="204"/>
      <point x="494" y="133" type="curve" smooth="yes"/>
      <point x="484" y="67"/>
      <point x="432" y="36"/>
      <point x="352" y="36" type="curve" smooth="yes"/>
    </contour>
  </outline>
</glyph>
<glyph name="Yusbig-cy" format="2">
  <advance width="908"/>
  <unicode hex="046A"/>
  <outline>
    <contour>
      <point x="-17" y="0" type="line"/>
      <point x="30" y="0" type="line"/>
      <point x="164" y="210" type="line" smooth="yes"/>
      <point x="222" y="301"/>
      <point x="279" y="339"/>
      <point x="360" y="339" type="curve" smooth="yes"/>
      <point x="452" y="339" type="line"/>
      <point x="398" y="0" type="line"/>
      <point x="440" y="0" type="line"/>
      <point x="494" y="339" type="line"/>
      <point x="588" y="339" type="line" smooth="yes"/>
      <point x="667" y="339"/>
      <point x="716" y="303"/>
      <point x="746" y="210" type="curve" smooth="yes"/>
      <point x="814" y="0" type="line"/>
      <point x="857" y="0" type="line"/>
      <point x="778" y="239" type="line" smooth="yes"/>
      <point x="751" y="321"/>
      <point x="693" y="378"/>
      <point x="600" y="378" type="curve" smooth="yes"/>
      <point x="510" y="378" type="line"/>
      <point x="516" y="365" type="line"/>
      <point x="863" y="705" type="line"/>
      <point x="199" y="705" type="line"/>
      <point x="438" y="365" type="line"/>
      <point x="448" y="378" type="line"/>
      <point x="355" y="378" type="line" smooth="yes"/>
      <point x="262" y="378"/>
      <point x="197" y="334"/>
      <point x="136" y="239" type="curve" smooth="yes"/>
    </contour>
    <contour>
      <point x="476" y="382" type="line"/>
      <point x="259" y="694" type="line"/>
      <point x="255" y="666" type="line"/>
      <point x="788" y="666" type="line"/>
      <point x="792" y="694" type="line"/>
      <point x="478" y="382" type="line"/>
    </contour>
  </outline>
</glyph>
<glyph name="yusbig-cy" format="2">
  <advance width="748"/>
  <unicode hex="046B"/>
  <outline>
    <contour>
      <point x="-27" y="0" type="line"/>
      <point x="23" y="0" type="line"/>
      <point x="138" y="134" type="line" smooth="yes"/>
      <point x="188" y="192"/>
      <point x="216" y="207"/>
      <point x="282" y="207" type="curve" smooth="yes"/>
      <point x="352" y="207" type="line"/>
      <point x="319" y="0" type="line"/>
      <point x="361" y="0" type="line"/>
      <point x="394" y="207" type="line"/>
      <point x="469" y="207" type="line" smooth="yes"/>
      <point x="535" y="207"/>
      <point x="557" y="192"/>
      <point x="589" y="134" type="curve" smooth="yes"/>
      <point x="662" y="0" type="line"/>
      <point x="707" y="0" type="line"/>
      <point x="629" y="142" type="line" smooth="yes"/>
      <point x="588" y="219"/>
      <point x="563" y="243"/>
      <point x="481" y="243" type="curve" smooth="yes"/>
      <point x="412" y="243" type="line"/>
      <point x="411" y="234" type="line"/>
      <point x="634" y="434" type="line"/>
      <point x="184" y="434" type="line"/>
      <point x="344" y="234" type="line"/>
      <point x="345" y="243" type="line"/>
      <point x="275" y="243" type="line" smooth="yes"/>
      <point x="194" y="243"/>
      <point x="163" y="218"/>
      <point x="95" y="142" type="curve" smooth="yes"/>
    </contour>
    <contour>
      <point x="377" y="253" type="line"/>
      <point x="252" y="413" type="line"/>
      <point x="252" y="399" type="line"/>
      <point x="554" y="399" type="line"/>
      <point x="554" y="413" type="line"/>
      <point x="379" y="253" type="line"/>
    </contour>
  </outline>
</glyph>
<glyph name="Izhitsa-cy" format="2">
  <advance width="719"/>
  <unicode hex="0474"/>
  <outline>
    <contour>
      <point x="276" y="0" type="line"/>
      <point x="321" y="0" type="line"/>
      <point x="627" y="532" type="line" smooth="yes"/>
      <point x="692" y="645"/>
      <point x="740" y="676"/>
      <point x="828" y="676" type="curve"/>
      <point x="825" y="713" type="line"/>
      <point x="706" y="713"/>
      <point x="658" y="669"/>
      <point x="580" y="533" type="curve" smooth="yes"/>
      <point x="289" y="24" type="line"/>
      <point x="313" y="24" type="line"/>
      <point x="129" y="705" type="line"/>
      <point x="86" y="705" type="line"/>
    </contour>
  </outline>
</glyph>
<glyph name="izhitsa-cy" format="2">
  <advance width="530"/>
  <unicode hex="0475"/>
  <outline>
    <contour>
      <point x="199" y="0" type="line"/>
      <point x="245" y="0" type="line"/>
      <point x="449" y="323" type="line" smooth="yes"/>
      <point x="488" y="384"/>
      <point x="516" y="405"/>
      <point x="580" y="407" type="curve"/>
      <point x="582" y="442" type="line"/>
      <point x="504" y="442"/>
      <point x="460" y="417"/>
      <point x="414" y="343" type="curve" smooth="yes"/>
      <point x="213" y="20" type="line"/>
      <point x="233" y="20" type="line"/>
      <point x="108" y="434" type="line"/>
      <point x="62" y="434" type="line"/>
    </contour>
  </outline>
</glyph>
<glyph name="Iishorttail-cy" format="2">
  <advance width="742"/>
  <unicode hex="048A"/>
  <outline>
    <contour>
      <point x="579" y="-150" type="line"/>
      <point x="617" y="-150" type="line"/>
      <point x="710" y="39" type="line"/>
      <point x="607" y="39" type="line"/>
      <point x="713" y="705" type="line"/>
      <point x="678" y="705" type="line"/>
      <point x="83" y="43" type="line"/>
      <point x="106" y="32" type="line"/>
      <point x="213" y="705" type="line"/>
      <point x="174" y="705" type="line"/>
      <point x="62" y="0" type="line"/>
      <point x="96" y="0" type="line"/>
      <point x="692" y="664" type="line"/>
      <point x="669" y="675" type="line"/>
      <point x="562" y="0" type="line"/>
      <point x="653" y="0" type="line"/>
    </contour>
    <contour>
      <point x="451" y="760" type="curve" smooth="yes"/>
      <point x="521" y="760"/>
      <point x="596" y="786"/>
      <point x="659" y="884" type="curve"/>
      <point x="629" y="897" type="line"/>
      <point x="573" y="820"/>
      <point x="527" y="796"/>
      <point x="456" y="796" type="curve" smooth="yes"/>
      <point x="387" y="796"/>
      <point x="343" y="828"/>
      <point x="325" y="898" type="curve"/>
      <point x="290" y="884" type="line"/>
      <point x="311" y="793"/>
      <point x="381" y="760"/>
    </contour>
  </outline>
</glyph>
<glyph name="Semisoftsign-cy" format="2">
  <advance width="697"/>
  <unicode hex="048C"/>
  <outline>
    <contour>
      <point x="110" y="0" type="line"/>
      <point x="397" y="0" type="line" smooth="yes"/>
      <point x="554" y="0"/>
      <point x="639" y="70"/>
      <point x="639" y="209" type="curve" smooth="yes"/>
      <point x="639" y="313"/>
      <point x="568" y="379"/>
      <point x="431" y="379" type="curve" smooth="yes"/>
      <point x="212" y="379" type="line"/>
      <point x="239" y="548" type="line"/>
      <point x="383" y="548" type="line"/>
      <point x="389" y="587" type="line"/>
      <point x="245" y="587" type="line"/>
      <point x="264" y="705" type="line"/>
      <point x="222" y="705" type="line"/>
      <point x="203" y="587" type="line"/>
      <point x="59" y="587" type="line"/>
      <point x="53" y="548" type="line"/>
      <point x="197" y="548" type="line"/>
    </contour>
    <contour>
      <point x="158" y="39" type="line"/>
      <point x="206" y="340" type="line"/>
      <point x="430" y="340" type="line" smooth="yes"/>
      <point x="536" y="340"/>
      <point x="595" y="295"/>
      <point x="595" y="208" type="curve" smooth="yes"/>
      <point x="595" y="96"/>
      <point x="530" y="39"/>
      <point x="401" y="39" type="curve" smooth="yes"/>
    </contour>
  </outline>
</glyph>
<glyph name="ertick-cy" format="2">
  <advance width="574"/>
  <unicode hex="048F"/>
  <outline>
    <contour>
      <point x="25" y="-180" type="line"/>
      <point x="67" y="-180" type="line"/>
      <point x="114" y="111" type="line"/>
      <point x="106" y="111" type="line"/>
      <point x="115" y="39"/>
      <point x="176" y="-8"/>
      <point x="273" y="-8" type="curve" smooth="yes"/>
      <point x="314" y="-8"/>
      <point x="355" y="3"/>
      <point x="388" y="21" type="curve"/>
      <point x="383" y="23" type="line"/>
      <point x="419" y="-36" type="line"/>
      <point x="448" y="-17" type="line"/>
      <point x="412" y="42" type="line"/>
      <point x="412" y="35" type="line"/>
      <point x="465" y="72"/>
      <point x="505" y="135"/>
      <point x="517" y="212" type="curve" smooth="yes"/>
      <point x="539" y="351"/>
      <point x="469" y="442"/>
      <point x="334" y="442" type="curve" smooth="yes"/>
      <point x="247" y="442"/>
      <point x="170" y="395"/>
      <point x="137" y="323" type="curve"/>
      <point x="147" y="323" type="line"/>
      <point x="165" y="434" type="line"/>
      <point x="123" y="434" type="line"/>
    </contour>
    <contour>
      <point x="273" y="31" type="curve" smooth="yes"/>
      <point x="167" y="31"/>
      <point x="111" y="101"/>
      <point x="129" y="217" type="curve" smooth="yes"/>
      <point x="148" y="334"/>
      <point x="226" y="403"/>
      <point x="332" y="403" type="curve" smooth="yes"/>
      <point x="439" y="403"/>
      <point x="494" y="334"/>
      <point x="474" y="212" type="curve" smooth="yes"/>
      <point x="464" y="148"/>
      <point x="434" y="98"/>
      <point x="392" y="68" type="curve"/>
      <point x="397" y="65" type="line"/>
      <point x="355" y="132" type="line"/>
      <point x="326" y="113" type="line"/>
      <point x="368" y="48" type="line"/>
      <point x="370" y="54" type="line"/>
      <point x="344" y="40"/>
      <point x="311" y="31"/>
    </contour>
  </outline>
</glyph>
<glyph name="gheupturn-cy" format="2">
  <advance width="415"/>
  <unicode hex="0491"/>
  <outline>
    <contour>
      <point x="54" y="0" type="line"/>
      <point x="96" y="0" type="line"/>
      <point x="159" y="397" type="line"/>
      <point x="432" y="397" type="line"/>
      <point x="456" y="552" type="line"/>
      <point x="418" y="552" type="line"/>
      <point x="400" y="434" type="line"/>
      <point x="123" y="434" type="line"/>
    </contour>
  </outline>
</glyph>
<glyph name="Ghestroke-cy" format="2">
  <advance width="558"/>
  <unicode hex="0492"/>
  <guideline x="455" y="377" angle="0"/>
  <outline>
    <contour>
      <point x="93" y="0" type="line"/>
      <point x="135" y="0" type="line"/>
      <point x="189" y="338" type="line"/>
      <point x="379" y="338" type="line"/>
      <point x="385" y="376" type="line"/>
      <point x="195" y="376" type="line"/>
      <point x="241" y="666" type="line"/>
      <point x="617" y="666" type="line"/>
      <point x="623" y="705" type="line"/>
      <point x="205" y="705" type="line"/>
      <point x="153" y="376" type="line"/>
      <point x="53" y="376" type="line"/>
      <point x="47" y="338" type="line"/>
      <point x="147" y="338" type="line"/>
    </contour>
  </outline>
</glyph>
<glyph name="ghestroke-cy" format="2">
  <advance width="432"/>
  <unicode hex="0493"/>
  <outline>
    <contour>
      <point x="71" y="0" type="line"/>
      <point x="113" y="0" type="line"/>
      <point x="145" y="201" type="line"/>
      <point x="295" y="201" type="line"/>
      <point x="301" y="237" type="line"/>
      <point x="151" y="237" type="line"/>
      <point x="176" y="398" type="line"/>
      <point x="449" y="398" type="line"/>
      <point x="455" y="434" type="line"/>
      <point x="140" y="434" type="line"/>
      <point x="109" y="237" type="line"/>
      <point x="9" y="237" type="line"/>
      <point x="3" y="201" type="line"/>
      <point x="103" y="201" type="line"/>
    </contour>
  </outline>
</glyph>
<glyph name="zedescender-cy" format="2">
  <advance width="477"/>
  <unicode hex="0499"/>
  <outline>
    <contour>
      <point x="174" y="-130" type="line"/>
      <point x="214" y="-130" type="line"/>
      <point x="234" y="-7" type="line"/>
      <point x="342" y="0"/>
      <point x="397" y="47"/>
      <point x="408" y="116" type="curve" smooth="yes"/>
      <point x="419" y="181"/>
      <point x="377" y="226"/>
      <point x="305" y="228" type="curve"/>
      <point x="307" y="216" type="line"/>
      <point x="370" y="222"/>
      <point x="418" y="264"/>
      <point x="425" y="316" type="curve" smooth="yes"/>
      <point x="438" y="395"/>
      <point x="382" y="442"/>
      <point x="269" y="442" type="curve" smooth="yes"/>
      <point x="195" y="442"/>
      <point x="129" y="424"/>
      <point x="71" y="387" type="curve"/>
      <point x="87" y="350" type="line"/>
      <point x="143" y="388"/>
      <point x="201" y="404"/>
      <point x="269" y="404" type="curve" smooth="yes"/>
      <point x="354" y="404"/>
      <point x="391" y="370"/>
      <point x="382" y="318" type="curve" smooth="yes"/>
      <point x="374" y="268"/>
      <point x="332" y="239"/>
      <point x="268" y="239" type="curve" smooth="yes"/>
      <point x="167" y="239" type="line"/>
      <point x="161" y="203" type="line"/>
      <point x="270" y="203" type="line" smooth="yes"/>
      <point x="342" y="203"/>
      <point x="375" y="175"/>
      <point x="366" y="119" type="curve" smooth="yes"/>
      <point x="357" y="62"/>
      <point x="310" y="31"/>
      <point x="204" y="31" type="curve" smooth="yes"/>
      <point x="134" y="31"/>
      <point x="76" y="50"/>
      <point x="34" y="87" type="curve"/>
      <point x="10" y="53" type="line"/>
      <point x="51" y="16"/>
      <point x="116" y="-6"/>
      <point x="194" y="-8" type="curve"/>
    </contour>
  </outline>
</glyph>
<glyph name="kaverticalstroke-cy" format="2">
  <advance width="497"/>
  <unicode hex="049D"/>
  <outline>
    <contour>
      <point x="54" y="0" type="line"/>
      <point x="96" y="0" type="line"/>
      <point x="129" y="207" type="line"/>
      <point x="189" y="207" type="line"/>
      <point x="171" y="97" type="line"/>
      <point x="207" y="97" type="line"/>
      <point x="226" y="215" type="line"/>
      <point x="207" y="207" type="line"/>
      <point x="218" y="207" type="line" smooth="yes"/>
      <point x="286" y="207"/>
      <point x="307" y="191"/>
      <point x="338" y="134" type="curve" smooth="yes"/>
      <point x="411" y="0" type="line"/>
      <point x="456" y="0" type="line"/>
      <point x="379" y="142" type="line" smooth="yes"/>
      <point x="339" y="216"/>
      <point x="316" y="236"/>
      <point x="260" y="242" type="curve"/>
      <point x="277" y="229" type="line"/>
      <point x="497" y="434" type="line"/>
      <point x="445" y="434" type="line"/>
      <point x="239" y="243" type="line"/>
      <point x="230" y="243" type="line"/>
      <point x="247" y="346" type="line"/>
      <point x="211" y="346" type="line"/>
      <point x="194" y="243" type="line"/>
      <point x="134" y="243" type="line"/>
      <point x="165" y="434" type="line"/>
      <point x="123" y="434" type="line"/>
    </contour>
  </outline>
</glyph>
<glyph name="kastroke-cy" format="2">
  <advance width="497"/>
  <unicode hex="049F"/>
  <outline>
    <contour>
      <point x="54" y="0" type="line"/>
      <point x="96" y="0" type="line"/>
      <point x="129" y="207" type="line"/>
      <point x="218" y="207" type="line" smooth="yes"/>
      <point x="284" y="207"/>
      <point x="306" y="192"/>
      <point x="338" y="134" type="curve" smooth="yes"/>
      <point x="411" y="0" type="line"/>
      <point x="456" y="0" type="line"/>
      <point x="379" y="142" type="line" smooth="yes"/>
      <point x="339" y="216"/>
      <point x="316" y="236"/>
      <point x="260" y="242" type="curve"/>
      <point x="277" y="229" type="line"/>
      <point x="497" y="434" type="line"/>
      <point x="445" y="434" type="line"/>
      <point x="239" y="243" type="line"/>
      <point x="134" y="243" type="line"/>
      <point x="180" y="532" type="line"/>
      <point x="377" y="532" type="line"/>
      <point x="383" y="568" type="line"/>
      <point x="186" y="568" type="line"/>
      <point x="208" y="705" type="line"/>
      <point x="166" y="705" type="line"/>
      <point x="144" y="568" type="line"/>
      <point x="49" y="568" type="line"/>
      <point x="43" y="532" type="line"/>
      <point x="138" y="532" type="line"/>
    </contour>
  </outline>
</glyph>
<glyph name="kabashkir-cy" format="2">
  <advance width="572"/>
  <unicode hex="04A1"/>
  <outline>
    <contour>
      <point x="129" y="0" type="line"/>
      <point x="171" y="0" type="line"/>
      <point x="204" y="207" type="line"/>
      <point x="293" y="207" type="line" smooth="yes"/>
      <point x="359" y="207"/>
      <point x="381" y="192"/>
      <point x="413" y="134" type="curve" smooth="yes"/>
      <point x="486" y="0" type="line"/>
      <point x="531" y="0" type="line"/>
      <point x="454" y="142" type="line" smooth="yes"/>
      <point x="414" y="216"/>
      <point x="391" y="236"/>
      <point x="335" y="242" type="curve"/>
      <point x="352" y="229" type="line"/>
      <point x="572" y="434" type="line"/>
      <point x="520" y="434" type="line"/>
      <point x="314" y="243" type="line"/>
      <point x="209" y="243" type="line"/>
      <point x="240" y="434" type="line"/>
      <point x="38" y="434" type="line"/>
      <point x="32" y="398" type="line"/>
      <point x="192" y="398" type="line"/>
    </contour>
  </outline>
</glyph>
<glyph name="endescender-cy" format="2">
  <advance width="588"/>
  <unicode hex="04A3"/>
  <outline>
    <contour>
      <point x="459" y="-130" type="line"/>
      <point x="499" y="-130" type="line"/>
      <point x="526" y="37" type="line"/>
      <point x="452" y="37" type="line"/>
      <point x="515" y="434" type="line"/>
      <point x="473" y="434" type="line"/>
      <point x="442" y="243" type="line"/>
      <point x="134" y="243" type="line"/>
      <point x="165" y="434" type="line"/>
      <point x="123" y="434" type="line"/>
      <point x="54" y="0" type="line"/>
      <point x="96" y="0" type="line"/>
      <point x="129" y="206" type="line"/>
      <point x="437" y="206" type="line"/>
      <point x="404" y="0" type="line"/>
      <point x="480" y="0" type="line"/>
    </contour>
  </outline>
</glyph>
<glyph name="enghe-cy" format="2">
  <advance width="727"/>
  <unicode hex="04A5"/>
  <outline>
    <contour>
      <point x="54" y="0" type="line"/>
      <point x="96" y="0" type="line"/>
      <point x="129" y="206" type="line"/>
      <point x="437" y="206" type="line"/>
      <point x="404" y="0" type="line"/>
      <point x="446" y="0" type="line"/>
      <point x="509" y="398" type="line"/>
      <point x="744" y="398" type="line"/>
      <point x="750" y="434" type="line"/>
      <point x="473" y="434" type="line"/>
      <point x="442" y="243" type="line"/>
      <point x="134" y="243" type="line"/>
      <point x="165" y="434" type="line"/>
      <point x="123" y="434" type="line"/>
    </contour>
  </outline>
</glyph>
<glyph name="Haabkhasian-cy" format="2">
  <advance width="780"/>
  <unicode hex="04A8"/>
  <outline>
    <contour>
      <point x="369" y="-8" type="curve" smooth="yes"/>
      <point x="577" y="-8"/>
      <point x="722" y="173"/>
      <point x="722" y="386" type="curve" smooth="yes"/>
      <point x="722" y="490"/>
      <point x="664" y="555"/>
      <point x="571" y="555" type="curve" smooth="yes"/>
      <point x="431" y="555"/>
      <point x="358" y="421"/>
      <point x="358" y="269" type="curve" smooth="yes"/>
      <point x="358" y="110"/>
      <point x="473" y="-8"/>
      <point x="632" y="-8" type="curve" smooth="yes"/>
      <point x="691" y="-8"/>
      <point x="733" y="2"/>
      <point x="769" y="23" type="curve"/>
      <point x="757" y="61" type="line"/>
      <point x="719" y="42"/>
      <point x="679" y="33"/>
      <point x="629" y="33" type="curve" smooth="yes"/>
      <point x="491" y="33"/>
      <point x="402" y="127"/>
      <point x="402" y="275" type="curve" smooth="yes"/>
      <point x="402" y="394"/>
      <point x="456" y="514"/>
      <point x="570" y="514" type="curve" smooth="yes"/>
      <point x="640" y="514"/>
      <point x="678" y="467"/>
      <point x="678" y="384" type="curve" smooth="yes"/>
      <point x="678" y="202"/>
      <point x="567" y="33"/>
      <point x="372" y="33" type="curve" smooth="yes"/>
      <point x="231" y="33"/>
      <point x="133" y="116"/>
      <point x="133" y="289" type="curve" smooth="yes"/>
      <point x="133" y="525"/>
      <point x="250" y="672"/>
      <point x="436" y="672" type="curve" smooth="yes"/>
      <point x="460" y="672"/>
      <point x="489" y="669"/>
      <point x="511" y="662" type="curve"/>
      <point x="521" y="700" type="line"/>
      <point x="503" y="708"/>
      <point x="465" y="713"/>
      <point x="439" y="713" type="curve" smooth="yes"/>
      <point x="224" y="713"/>
      <point x="88" y="545"/>
      <point x="88" y="289" type="curve" smooth="yes"/>
      <point x="88" y="96"/>
      <point x="206" y="-8"/>
    </contour>
  </outline>
</glyph>
